<mxfile host="drawio-plugin" modified="2023-08-03T20:40:10.827Z" agent="5.0 (Windows NT 6.2; Win64; x64) AppleWebKit/537.36 (KHTML, like Gecko) Chrome/87.0.4280.141 Safari/537.36" etag="wVQOWWRZGFezwii_9lPf" version="13.7.9" type="embed"><diagram id="lMCECdiOliHJ0kIxP1SO" name="Page-1"><mxGraphModel dx="15120" dy="-10040" grid="0" gridSize="10" guides="1" tooltips="1" connect="1" arrows="1" fold="1" page="0" pageScale="1" pageWidth="850" pageHeight="1100" background="#ffffff" math="0" shadow="0"><root><mxCell id="0"/><mxCell id="1" parent="0"/><mxCell id="26" value="" style="group;direction=east;rotation=0;fillColor=#dae8fc;strokeColor=#6c8ebf;fontColor=#1A1A1A;sketch=1;shadow=0;" parent="1" vertex="1" connectable="0"><mxGeometry x="429.63" y="16713" width="50" height="70" as="geometry"/></mxCell><mxCell id="15" value="3" style="rounded=0;whiteSpace=wrap;html=1;sketch=1;fillColor=#dae8fc;strokeColor=#6c8ebf;fontSize=20;fontStyle=1;direction=east;rotation=0;fontColor=#1A1A1A;shadow=0;" parent="26" vertex="1"><mxGeometry width="49.999999999999986" height="70" as="geometry"/></mxCell><mxCell id="38" value="" style="group;direction=east;rotation=0;fillColor=#f8cecc;strokeColor=#b85450;sketch=1;shadow=0;" parent="1" vertex="1" connectable="0"><mxGeometry x="148.45" y="16703" width="50" height="80" as="geometry"/></mxCell><mxCell id="39" value="4" style="rounded=0;whiteSpace=wrap;html=1;sketch=1;fillColor=#f8cecc;strokeColor=#b85450;fontSize=20;fontStyle=1;direction=east;rotation=0;shadow=0;fontColor=#000000;" parent="38" vertex="1"><mxGeometry width="49.999999999999986" height="80" as="geometry"/></mxCell><mxCell id="40" value="" style="group;direction=east;rotation=0;fillColor=#dae8fc;strokeColor=#6c8ebf;fontColor=#1A1A1A;sketch=1;shadow=0;" parent="1" vertex="1" connectable="0"><mxGeometry x="359.75" y="16673" width="50" height="110" as="geometry"/></mxCell><mxCell id="41" value="7" style="rounded=0;whiteSpace=wrap;html=1;sketch=1;fillColor=#dae8fc;strokeColor=#6c8ebf;fontSize=20;fontStyle=1;direction=east;rotation=0;fontColor=#1A1A1A;shadow=0;" parent="40" vertex="1"><mxGeometry width="49.999999999999986" height="110.00000000000001" as="geometry"/></mxCell><mxCell id="42" value="" style="group;direction=east;rotation=0;fillColor=#dae8fc;strokeColor=#6c8ebf;fontColor=#1A1A1A;sketch=1;shadow=0;" parent="1" vertex="1" connectable="0"><mxGeometry x="288.98" y="16743" width="50" height="40" as="geometry"/></mxCell><mxCell id="43" value="1" style="rounded=0;whiteSpace=wrap;html=1;sketch=1;fillColor=#dae8fc;strokeColor=#6c8ebf;fontSize=20;fontStyle=1;direction=east;rotation=0;fontColor=#1A1A1A;shadow=0;" parent="42" vertex="1"><mxGeometry width="49.999999999999986" height="40" as="geometry"/></mxCell><mxCell id="50" value="" style="group;direction=east;rotation=0;fillColor=#dae8fc;strokeColor=#6c8ebf;fontColor=#1A1A1A;sketch=1;shadow=0;" parent="1" vertex="1" connectable="0"><mxGeometry x="218.45" y="16683" width="50" height="100" as="geometry"/></mxCell><mxCell id="51" value="6" style="rounded=0;whiteSpace=wrap;html=1;sketch=1;fillColor=#dae8fc;strokeColor=#6c8ebf;fontSize=20;fontStyle=1;direction=east;rotation=0;fontColor=#1A1A1A;shadow=0;" parent="50" vertex="1"><mxGeometry width="49.999999999999986" height="100" as="geometry"/></mxCell><mxCell id="914" value="2" style="rounded=0;whiteSpace=wrap;html=1;sketch=1;fillColor=#dae8fc;strokeColor=#6c8ebf;fontSize=20;fontStyle=1;direction=east;rotation=0;fontColor=#1A1A1A;shadow=0;" parent="1" vertex="1"><mxGeometry x="500.24" y="16723" width="49.999999999999986" height="60" as="geometry"/></mxCell><mxCell id="915" value="5" style="rounded=0;whiteSpace=wrap;html=1;sketch=1;fillColor=#dae8fc;strokeColor=#6c8ebf;fontSize=20;fontStyle=1;direction=east;rotation=0;fontColor=#1A1A1A;shadow=0;" parent="1" vertex="1"><mxGeometry x="569.25" y="16693" width="49.999999999999986" height="90" as="geometry"/></mxCell><mxCell id="927" value="" style="group" parent="1" vertex="1" connectable="0"><mxGeometry x="137.99703904079064" y="16797" width="26.6068742993711" height="59" as="geometry"/></mxCell><mxCell id="925" value="" style="shape=flexArrow;endArrow=classic;html=1;shadow=0;strokeColor=#1A1A1A;fontFamily=Helvetica;fontSize=13;fontColor=#1A1A1A;endWidth=27.142857142857146;endSize=7.775;width=17.5;sketch=1;" parent="927" edge="1"><mxGeometry x="-8.887039040790654" width="50" height="50" as="geometry"><mxPoint x="13.970103816352207" y="59" as="sourcePoint"/><mxPoint x="13.970103816352207" as="targetPoint"/></mxGeometry></mxCell><mxCell id="926" value="&lt;font style=&quot;font-size: 13px;&quot;&gt;pivot&lt;/font&gt;" style="text;html=1;align=center;verticalAlign=middle;resizable=0;points=[];autosize=1;fontSize=13;fontFamily=Helvetica;fontColor=#1A1A1A;fontStyle=1;rotation=1;horizontal=0;" parent="927" vertex="1"><mxGeometry x="0.3034371496855499" y="23.527027027026634" width="26" height="35" as="geometry"/></mxCell><mxCell id="929" value="" style="shape=flexArrow;endArrow=classic;html=1;shadow=0;strokeColor=#1A1A1A;fontFamily=Helvetica;fontSize=13;fontColor=#1A1A1A;endWidth=27.142857142857146;endSize=7.775;width=17.5;sketch=1;" parent="1" edge="1"><mxGeometry x="219.10999999999999" y="16800" width="50" height="50" as="geometry"><mxPoint x="241.96714285714285" y="16859" as="sourcePoint"/><mxPoint x="241.96714285714285" y="16800" as="targetPoint"/></mxGeometry></mxCell><mxCell id="930" value="&lt;font style=&quot;font-size: 15px;&quot;&gt;i&lt;/font&gt;" style="text;html=1;align=center;verticalAlign=middle;resizable=0;points=[];autosize=1;fontSize=15;fontFamily=Helvetica;fontColor=#1A1A1A;fontStyle=1;rotation=90;horizontal=0;" parent="1" vertex="1"><mxGeometry x="228.3004761904762" y="16837.527027027027" width="28" height="8" as="geometry"/></mxCell><mxCell id="931" value="" style="group" parent="1" vertex="1" connectable="0"><mxGeometry x="177.99703904079064" y="16799" width="26.6068742993711" height="59.527027027026634" as="geometry"/></mxCell><mxCell id="932" value="" style="shape=flexArrow;endArrow=classic;html=1;shadow=0;strokeColor=#1A1A1A;fontFamily=Helvetica;fontSize=13;fontColor=#1A1A1A;endWidth=27.142857142857146;endSize=7.775;width=17.5;sketch=1;" parent="931" edge="1"><mxGeometry x="-8.887039040790654" width="50" height="50" as="geometry"><mxPoint x="13.970103816352207" y="59" as="sourcePoint"/><mxPoint x="13.970103816352207" as="targetPoint"/></mxGeometry></mxCell><mxCell id="933" value="&lt;font style=&quot;font-size: 13px&quot;&gt;swap&lt;/font&gt;" style="text;html=1;align=center;verticalAlign=middle;resizable=0;points=[];autosize=1;fontSize=13;fontFamily=Helvetica;fontColor=#1A1A1A;fontStyle=1;rotation=1;horizontal=0;" parent="931" vertex="1"><mxGeometry x="0.3034371496855499" y="22.527027027026634" width="26" height="37" as="geometry"/></mxCell><mxCell id="935" value="" style="group;direction=east;rotation=0;fillColor=#dae8fc;strokeColor=#6c8ebf;fontColor=#1A1A1A;sketch=1;shadow=0;" parent="1" vertex="1" connectable="0"><mxGeometry x="440.08" y="17030" width="50" height="70" as="geometry"/></mxCell><mxCell id="936" value="3" style="rounded=0;whiteSpace=wrap;html=1;sketch=1;fillColor=#dae8fc;strokeColor=#6c8ebf;fontSize=20;fontStyle=1;direction=east;rotation=0;fontColor=#1A1A1A;shadow=0;" parent="935" vertex="1"><mxGeometry width="49.999999999999986" height="70" as="geometry"/></mxCell><mxCell id="937" value="" style="group;direction=east;rotation=0;fillColor=#f8cecc;strokeColor=#b85450;sketch=1;shadow=0;" parent="1" vertex="1" connectable="0"><mxGeometry x="158.89999999999998" y="17020" width="50" height="80" as="geometry"/></mxCell><mxCell id="938" value="4" style="rounded=0;whiteSpace=wrap;html=1;sketch=1;fillColor=#f8cecc;strokeColor=#b85450;fontSize=20;fontStyle=1;direction=east;rotation=0;shadow=0;fontColor=#000000;" parent="937" vertex="1"><mxGeometry width="49.999999999999986" height="80" as="geometry"/></mxCell><mxCell id="939" value="" style="group;direction=east;rotation=0;fillColor=#dae8fc;strokeColor=#6c8ebf;fontColor=#1A1A1A;sketch=1;shadow=0;" parent="1" vertex="1" connectable="0"><mxGeometry x="370.2" y="16990" width="50" height="110" as="geometry"/></mxCell><mxCell id="940" value="7" style="rounded=0;whiteSpace=wrap;html=1;sketch=1;fillColor=#dae8fc;strokeColor=#6c8ebf;fontSize=20;fontStyle=1;direction=east;rotation=0;fontColor=#1A1A1A;shadow=0;" parent="939" vertex="1"><mxGeometry width="49.999999999999986" height="110.00000000000001" as="geometry"/></mxCell><mxCell id="941" value="" style="group;direction=east;rotation=0;fillColor=#dae8fc;strokeColor=#6c8ebf;fontColor=#1A1A1A;sketch=1;shadow=0;" parent="1" vertex="1" connectable="0"><mxGeometry x="299.43" y="17060" width="50" height="40" as="geometry"/></mxCell><mxCell id="942" value="1" style="rounded=0;whiteSpace=wrap;html=1;sketch=1;fillColor=#dae8fc;strokeColor=#6c8ebf;fontSize=20;fontStyle=1;direction=east;rotation=0;fontColor=#1A1A1A;shadow=0;" parent="941" vertex="1"><mxGeometry width="49.999999999999986" height="40" as="geometry"/></mxCell><mxCell id="943" value="" style="group;direction=east;rotation=0;fillColor=#f5f5f5;strokeColor=#666666;fontColor=#333333;sketch=1;shadow=0;" parent="1" vertex="1" connectable="0"><mxGeometry x="228.89999999999998" y="17000" width="50" height="100" as="geometry"/></mxCell><mxCell id="944" value="6" style="rounded=0;whiteSpace=wrap;html=1;sketch=1;fillColor=#f5f5f5;strokeColor=#666666;fontSize=20;fontStyle=1;direction=east;rotation=0;fontColor=#333333;shadow=0;" parent="943" vertex="1"><mxGeometry width="49.999999999999986" height="100" as="geometry"/></mxCell><mxCell id="945" value="2" style="rounded=0;whiteSpace=wrap;html=1;sketch=1;fillColor=#dae8fc;strokeColor=#6c8ebf;fontSize=20;fontStyle=1;direction=east;rotation=0;fontColor=#1A1A1A;shadow=0;" parent="1" vertex="1"><mxGeometry x="510.69" y="17040" width="49.999999999999986" height="60" as="geometry"/></mxCell><mxCell id="946" value="5" style="rounded=0;whiteSpace=wrap;html=1;sketch=1;fillColor=#dae8fc;strokeColor=#6c8ebf;fontSize=20;fontStyle=1;direction=east;rotation=0;fontColor=#1A1A1A;shadow=0;" parent="1" vertex="1"><mxGeometry x="579.7" y="17010" width="49.999999999999986" height="90" as="geometry"/></mxCell><mxCell id="947" value="" style="group" parent="1" vertex="1" connectable="0"><mxGeometry x="148.44703904079063" y="17114" width="26.6068742993711" height="59" as="geometry"/></mxCell><mxCell id="948" value="" style="shape=flexArrow;endArrow=classic;html=1;shadow=0;strokeColor=#1A1A1A;fontFamily=Helvetica;fontSize=13;fontColor=#1A1A1A;endWidth=27.142857142857146;endSize=7.775;width=17.5;sketch=1;" parent="947" edge="1"><mxGeometry x="-8.887039040790654" width="50" height="50" as="geometry"><mxPoint x="13.970103816352207" y="59" as="sourcePoint"/><mxPoint x="13.970103816352207" as="targetPoint"/></mxGeometry></mxCell><mxCell id="949" value="&lt;font style=&quot;font-size: 13px;&quot;&gt;pivot&lt;/font&gt;" style="text;html=1;align=center;verticalAlign=middle;resizable=0;points=[];autosize=1;fontSize=13;fontFamily=Helvetica;fontColor=#1A1A1A;fontStyle=1;rotation=1;horizontal=0;" parent="947" vertex="1"><mxGeometry x="0.3034371496855499" y="23.527027027026634" width="26" height="35" as="geometry"/></mxCell><mxCell id="952" value="" style="group" parent="1" vertex="1" connectable="0"><mxGeometry x="188.44703904079063" y="17116" width="26.6068742993711" height="59.527027027026634" as="geometry"/></mxCell><mxCell id="953" value="" style="shape=flexArrow;endArrow=classic;html=1;shadow=0;strokeColor=#1A1A1A;fontFamily=Helvetica;fontSize=13;fontColor=#1A1A1A;endWidth=27.142857142857146;endSize=7.775;width=17.5;sketch=1;" parent="952" edge="1"><mxGeometry x="-8.887039040790654" width="50" height="50" as="geometry"><mxPoint x="13.970103816352207" y="59" as="sourcePoint"/><mxPoint x="13.970103816352207" as="targetPoint"/></mxGeometry></mxCell><mxCell id="954" value="&lt;font style=&quot;font-size: 13px&quot;&gt;swap&lt;/font&gt;" style="text;html=1;align=center;verticalAlign=middle;resizable=0;points=[];autosize=1;fontSize=13;fontFamily=Helvetica;fontColor=#1A1A1A;fontStyle=1;rotation=1;horizontal=0;" parent="952" vertex="1"><mxGeometry x="0.3034371496855499" y="22.527027027026634" width="26" height="37" as="geometry"/></mxCell><mxCell id="955" value="" style="group" parent="1" vertex="1" connectable="0"><mxGeometry x="318.67047619047617" y="17116.53" width="8" height="59" as="geometry"/></mxCell><mxCell id="950" value="" style="shape=flexArrow;endArrow=classic;html=1;shadow=0;strokeColor=#1A1A1A;fontFamily=Helvetica;fontSize=13;fontColor=#1A1A1A;endWidth=27.142857142857146;endSize=7.775;width=17.5;sketch=1;" parent="955" edge="1"><mxGeometry x="-19.190476190476204" width="50" height="50" as="geometry"><mxPoint x="3.6666666666664014" y="59" as="sourcePoint"/><mxPoint x="3.6666666666664014" as="targetPoint"/></mxGeometry></mxCell><mxCell id="951" value="&lt;font style=&quot;font-size: 15px;&quot;&gt;i&lt;/font&gt;" style="text;html=1;align=center;verticalAlign=middle;resizable=0;points=[];autosize=1;fontSize=15;fontFamily=Helvetica;fontColor=#1A1A1A;fontStyle=1;rotation=90;horizontal=0;" parent="955" vertex="1"><mxGeometry x="-10" y="37.527027027026634" width="28" height="8" as="geometry"/></mxCell><mxCell id="956" value="&lt;p&gt;&lt;font face=&quot;Helvetica&quot;&gt;6 is &lt;br&gt;greater &lt;br&gt;than 4&lt;/font&gt;&lt;/p&gt;" style="text;align=center;verticalAlign=middle;resizable=0;points=[];autosize=1;fontSize=15;fontColor=#000000;fontStyle=1;fontFamily=Verdana;html=1;labelPosition=center;verticalLabelPosition=middle;spacing=0;" parent="1" vertex="1"><mxGeometry x="223.03999999999996" y="16922" width="62" height="91" as="geometry"/></mxCell><mxCell id="957" value="" style="group;direction=east;rotation=0;fillColor=#dae8fc;strokeColor=#6c8ebf;fontColor=#1A1A1A;sketch=1;shadow=0;" parent="1" vertex="1" connectable="0"><mxGeometry x="443.89" y="17335" width="50" height="70" as="geometry"/></mxCell><mxCell id="958" value="3" style="rounded=0;whiteSpace=wrap;html=1;sketch=1;fillColor=#dae8fc;strokeColor=#6c8ebf;fontSize=20;fontStyle=1;direction=east;rotation=0;fontColor=#1A1A1A;shadow=0;" parent="957" vertex="1"><mxGeometry width="49.999999999999986" height="70" as="geometry"/></mxCell><mxCell id="959" value="" style="group;direction=east;rotation=0;fillColor=#f8cecc;strokeColor=#b85450;sketch=1;shadow=0;" parent="1" vertex="1" connectable="0"><mxGeometry x="162.70999999999998" y="17325" width="50" height="80" as="geometry"/></mxCell><mxCell id="960" value="4" style="rounded=0;whiteSpace=wrap;html=1;sketch=1;fillColor=#f8cecc;strokeColor=#b85450;fontSize=20;fontStyle=1;direction=east;rotation=0;shadow=0;fontColor=#000000;" parent="959" vertex="1"><mxGeometry width="49.999999999999986" height="80" as="geometry"/></mxCell><mxCell id="961" value="" style="group;direction=east;rotation=0;fillColor=#dae8fc;strokeColor=#6c8ebf;fontColor=#1A1A1A;sketch=1;shadow=0;" parent="1" vertex="1" connectable="0"><mxGeometry x="374.01" y="17295" width="50" height="110" as="geometry"/></mxCell><mxCell id="962" value="7" style="rounded=0;whiteSpace=wrap;html=1;sketch=1;fillColor=#dae8fc;strokeColor=#6c8ebf;fontSize=20;fontStyle=1;direction=east;rotation=0;fontColor=#1A1A1A;shadow=0;" parent="961" vertex="1"><mxGeometry width="49.999999999999986" height="110.00000000000001" as="geometry"/></mxCell><mxCell id="963" value="" style="group;direction=east;rotation=0;fillColor=#fff2cc;strokeColor=#d6b656;sketch=1;shadow=0;" parent="1" vertex="1" connectable="0"><mxGeometry x="303.24" y="17365" width="50" height="40" as="geometry"/></mxCell><mxCell id="964" value="1" style="rounded=0;whiteSpace=wrap;html=1;sketch=1;fillColor=#fff2cc;strokeColor=#d6b656;fontSize=20;fontStyle=1;direction=east;rotation=0;shadow=0;fontColor=#1A1A1A;" parent="963" vertex="1"><mxGeometry width="49.999999999999986" height="40" as="geometry"/></mxCell><mxCell id="965" value="" style="group;direction=east;rotation=0;fillColor=#f5f5f5;strokeColor=#666666;fontColor=#333333;sketch=1;shadow=0;" parent="1" vertex="1" connectable="0"><mxGeometry x="232.70999999999998" y="17305" width="50" height="100" as="geometry"/></mxCell><mxCell id="966" value="6" style="rounded=0;whiteSpace=wrap;html=1;sketch=1;fillColor=#f5f5f5;strokeColor=#666666;fontSize=20;fontStyle=1;direction=east;rotation=0;fontColor=#333333;shadow=0;" parent="965" vertex="1"><mxGeometry width="49.999999999999986" height="100" as="geometry"/></mxCell><mxCell id="967" value="2" style="rounded=0;whiteSpace=wrap;html=1;sketch=1;fillColor=#dae8fc;strokeColor=#6c8ebf;fontSize=20;fontStyle=1;direction=east;rotation=0;fontColor=#1A1A1A;shadow=0;" parent="1" vertex="1"><mxGeometry x="514.5" y="17345" width="49.999999999999986" height="60" as="geometry"/></mxCell><mxCell id="968" value="5" style="rounded=0;whiteSpace=wrap;html=1;sketch=1;fillColor=#dae8fc;strokeColor=#6c8ebf;fontSize=20;fontStyle=1;direction=east;rotation=0;fontColor=#1A1A1A;shadow=0;" parent="1" vertex="1"><mxGeometry x="583.51" y="17315" width="49.999999999999986" height="90" as="geometry"/></mxCell><mxCell id="969" value="" style="group" parent="1" vertex="1" connectable="0"><mxGeometry x="152.25703904079063" y="17419" width="26.6068742993711" height="59" as="geometry"/></mxCell><mxCell id="970" value="" style="shape=flexArrow;endArrow=classic;html=1;shadow=0;strokeColor=#1A1A1A;fontFamily=Helvetica;fontSize=13;fontColor=#1A1A1A;endWidth=27.142857142857146;endSize=7.775;width=17.5;sketch=1;" parent="969" edge="1"><mxGeometry x="-8.887039040790654" width="50" height="50" as="geometry"><mxPoint x="13.970103816352207" y="59" as="sourcePoint"/><mxPoint x="13.970103816352207" as="targetPoint"/></mxGeometry></mxCell><mxCell id="971" value="&lt;font style=&quot;font-size: 13px;&quot;&gt;pivot&lt;/font&gt;" style="text;html=1;align=center;verticalAlign=middle;resizable=0;points=[];autosize=1;fontSize=13;fontFamily=Helvetica;fontColor=#1A1A1A;fontStyle=1;rotation=1;horizontal=0;" parent="969" vertex="1"><mxGeometry x="0.3034371496855499" y="23.527027027026634" width="26" height="35" as="geometry"/></mxCell><mxCell id="972" value="" style="group" parent="1" vertex="1" connectable="0"><mxGeometry x="243.99703904079064" y="17422" width="26.6068742993711" height="59.527027027026634" as="geometry"/></mxCell><mxCell id="973" value="" style="shape=flexArrow;endArrow=classic;html=1;shadow=0;strokeColor=#1A1A1A;fontFamily=Helvetica;fontSize=13;fontColor=#1A1A1A;endWidth=27.142857142857146;endSize=7.775;width=17.5;sketch=1;" parent="972" edge="1"><mxGeometry x="-8.887039040790654" width="50" height="50" as="geometry"><mxPoint x="13.970103816352207" y="59" as="sourcePoint"/><mxPoint x="13.970103816352207" as="targetPoint"/></mxGeometry></mxCell><mxCell id="974" value="&lt;font style=&quot;font-size: 13px&quot;&gt;swap&lt;/font&gt;" style="text;html=1;align=center;verticalAlign=middle;resizable=0;points=[];autosize=1;fontSize=13;fontFamily=Helvetica;fontColor=#1A1A1A;fontStyle=1;rotation=1;horizontal=0;" parent="972" vertex="1"><mxGeometry x="0.3034371496855499" y="22.527027027026634" width="26" height="37" as="geometry"/></mxCell><mxCell id="975" value="" style="group" parent="1" vertex="1" connectable="0"><mxGeometry x="322.48047619047617" y="17421.53" width="8" height="59" as="geometry"/></mxCell><mxCell id="976" value="" style="shape=flexArrow;endArrow=classic;html=1;shadow=0;strokeColor=#1A1A1A;fontFamily=Helvetica;fontSize=13;fontColor=#1A1A1A;endWidth=27.142857142857146;endSize=7.775;width=17.5;sketch=1;" parent="975" edge="1"><mxGeometry x="-19.190476190476204" width="50" height="50" as="geometry"><mxPoint x="3.6666666666664014" y="59" as="sourcePoint"/><mxPoint x="3.6666666666664014" as="targetPoint"/></mxGeometry></mxCell><mxCell id="977" value="&lt;font style=&quot;font-size: 15px;&quot;&gt;i&lt;/font&gt;" style="text;html=1;align=center;verticalAlign=middle;resizable=0;points=[];autosize=1;fontSize=15;fontFamily=Helvetica;fontColor=#1A1A1A;fontStyle=1;rotation=90;horizontal=0;" parent="975" vertex="1"><mxGeometry x="-10" y="37.527027027026634" width="28" height="8" as="geometry"/></mxCell><mxCell id="978" value="&lt;p&gt;&lt;font face=&quot;Helvetica&quot;&gt;greater&lt;/font&gt;&lt;/p&gt;" style="text;align=center;verticalAlign=middle;resizable=0;points=[];autosize=1;fontSize=15;fontColor=#000000;fontStyle=1;fontFamily=Verdana;html=1;labelPosition=center;verticalLabelPosition=middle;spacing=0;" parent="1" vertex="1"><mxGeometry x="227.99999999999997" y="17259" width="62" height="53" as="geometry"/></mxCell><mxCell id="980" value="&lt;p&gt;&lt;font face=&quot;Helvetica&quot;&gt;smaller&lt;/font&gt;&lt;/p&gt;" style="text;align=center;verticalAlign=middle;resizable=0;points=[];autosize=1;fontSize=15;fontColor=#000000;fontStyle=1;fontFamily=Verdana;html=1;labelPosition=center;verticalLabelPosition=middle;spacing=0;" parent="1" vertex="1"><mxGeometry x="297.73999999999995" y="17320" width="61" height="53" as="geometry"/></mxCell><mxCell id="981" value="" style="group;direction=east;rotation=0;fillColor=#dae8fc;strokeColor=#6c8ebf;fontColor=#1A1A1A;sketch=1;shadow=0;" parent="1" vertex="1" connectable="0"><mxGeometry x="447.26" y="17608" width="50" height="70" as="geometry"/></mxCell><mxCell id="982" value="3" style="rounded=0;whiteSpace=wrap;html=1;sketch=1;fillColor=#dae8fc;strokeColor=#6c8ebf;fontSize=20;fontStyle=1;direction=east;rotation=0;fontColor=#1A1A1A;shadow=0;" parent="981" vertex="1"><mxGeometry width="49.999999999999986" height="70" as="geometry"/></mxCell><mxCell id="983" value="" style="group;direction=east;rotation=0;fillColor=#f8cecc;strokeColor=#b85450;sketch=1;shadow=0;" parent="1" vertex="1" connectable="0"><mxGeometry x="166.07999999999998" y="17598" width="50" height="80" as="geometry"/></mxCell><mxCell id="984" value="4" style="rounded=0;whiteSpace=wrap;html=1;sketch=1;fillColor=#f8cecc;strokeColor=#b85450;fontSize=20;fontStyle=1;direction=east;rotation=0;shadow=0;fontColor=#000000;" parent="983" vertex="1"><mxGeometry width="49.999999999999986" height="80" as="geometry"/></mxCell><mxCell id="985" value="" style="group;direction=east;rotation=0;fillColor=#dae8fc;strokeColor=#6c8ebf;fontColor=#1A1A1A;sketch=1;shadow=0;" parent="1" vertex="1" connectable="0"><mxGeometry x="377.38" y="17568" width="50" height="110" as="geometry"/></mxCell><mxCell id="986" value="7" style="rounded=0;whiteSpace=wrap;html=1;sketch=1;fillColor=#dae8fc;strokeColor=#6c8ebf;fontSize=20;fontStyle=1;direction=east;rotation=0;fontColor=#1A1A1A;shadow=0;" parent="985" vertex="1"><mxGeometry width="49.999999999999986" height="110.00000000000001" as="geometry"/></mxCell><mxCell id="987" value="" style="group;direction=east;rotation=0;fillColor=#fff2cc;strokeColor=#d6b656;sketch=1;shadow=0;" parent="1" vertex="1" connectable="0"><mxGeometry x="236.61" y="17638" width="50" height="40" as="geometry"/></mxCell><mxCell id="988" value="1" style="rounded=0;whiteSpace=wrap;html=1;sketch=1;fillColor=#fff2cc;strokeColor=#d6b656;fontSize=20;fontStyle=1;direction=east;rotation=0;shadow=0;fontColor=#1A1A1A;" parent="987" vertex="1"><mxGeometry width="49.999999999999986" height="40" as="geometry"/></mxCell><mxCell id="989" value="" style="group;direction=east;rotation=0;fillColor=#f5f5f5;strokeColor=#666666;fontColor=#333333;sketch=1;shadow=0;" parent="1" vertex="1" connectable="0"><mxGeometry x="306.08" y="17578" width="50" height="100" as="geometry"/></mxCell><mxCell id="990" value="6" style="rounded=0;whiteSpace=wrap;html=1;sketch=1;fillColor=#f5f5f5;strokeColor=#666666;fontSize=20;fontStyle=1;direction=east;rotation=0;fontColor=#333333;shadow=0;" parent="989" vertex="1"><mxGeometry width="49.999999999999986" height="100" as="geometry"/></mxCell><mxCell id="991" value="2" style="rounded=0;whiteSpace=wrap;html=1;sketch=1;fillColor=#dae8fc;strokeColor=#6c8ebf;fontSize=20;fontStyle=1;direction=east;rotation=0;fontColor=#1A1A1A;shadow=0;" parent="1" vertex="1"><mxGeometry x="517.87" y="17618" width="49.999999999999986" height="60" as="geometry"/></mxCell><mxCell id="992" value="5" style="rounded=0;whiteSpace=wrap;html=1;sketch=1;fillColor=#dae8fc;strokeColor=#6c8ebf;fontSize=20;fontStyle=1;direction=east;rotation=0;fontColor=#1A1A1A;shadow=0;" parent="1" vertex="1"><mxGeometry x="586.88" y="17588" width="49.999999999999986" height="90" as="geometry"/></mxCell><mxCell id="993" value="" style="group" parent="1" vertex="1" connectable="0"><mxGeometry x="173.99703904079064" y="17692" width="26.6068742993711" height="59" as="geometry"/></mxCell><mxCell id="994" value="" style="shape=flexArrow;endArrow=classic;html=1;shadow=0;strokeColor=#1A1A1A;fontFamily=Helvetica;fontSize=13;fontColor=#1A1A1A;endWidth=27.142857142857146;endSize=7.775;width=17.5;sketch=1;" parent="993" edge="1"><mxGeometry x="-8.887039040790654" width="50" height="50" as="geometry"><mxPoint x="13.970103816352207" y="59" as="sourcePoint"/><mxPoint x="13.970103816352207" as="targetPoint"/></mxGeometry></mxCell><mxCell id="995" value="&lt;font style=&quot;font-size: 13px;&quot;&gt;pivot&lt;/font&gt;" style="text;html=1;align=center;verticalAlign=middle;resizable=0;points=[];autosize=1;fontSize=13;fontFamily=Helvetica;fontColor=#1A1A1A;fontStyle=1;rotation=1;horizontal=0;" parent="993" vertex="1"><mxGeometry x="0.3034371496855499" y="23.527027027026634" width="26" height="35" as="geometry"/></mxCell><mxCell id="996" value="" style="group" parent="1" vertex="1" connectable="0"><mxGeometry x="247.36703904079064" y="17695" width="26.6068742993711" height="59.527027027026634" as="geometry"/></mxCell><mxCell id="997" value="" style="shape=flexArrow;endArrow=classic;html=1;shadow=0;strokeColor=#1A1A1A;fontFamily=Helvetica;fontSize=13;fontColor=#1A1A1A;endWidth=27.142857142857146;endSize=7.775;width=17.5;sketch=1;" parent="996" edge="1"><mxGeometry x="-8.887039040790654" width="50" height="50" as="geometry"><mxPoint x="13.970103816352207" y="59" as="sourcePoint"/><mxPoint x="13.970103816352207" as="targetPoint"/></mxGeometry></mxCell><mxCell id="998" value="&lt;font style=&quot;font-size: 13px&quot;&gt;swap&lt;/font&gt;" style="text;html=1;align=center;verticalAlign=middle;resizable=0;points=[];autosize=1;fontSize=13;fontFamily=Helvetica;fontColor=#1A1A1A;fontStyle=1;rotation=1;horizontal=0;" parent="996" vertex="1"><mxGeometry x="0.3034371496855499" y="22.527027027026634" width="26" height="37" as="geometry"/></mxCell><mxCell id="999" value="" style="group" parent="1" vertex="1" connectable="0"><mxGeometry x="325.8504761904762" y="17694.53" width="8" height="59" as="geometry"/></mxCell><mxCell id="1000" value="" style="shape=flexArrow;endArrow=classic;html=1;shadow=0;strokeColor=#1A1A1A;fontFamily=Helvetica;fontSize=13;fontColor=#1A1A1A;endWidth=27.142857142857146;endSize=7.775;width=17.5;sketch=1;" parent="999" edge="1"><mxGeometry x="-19.190476190476204" width="50" height="50" as="geometry"><mxPoint x="3.6666666666664014" y="59" as="sourcePoint"/><mxPoint x="3.6666666666664014" as="targetPoint"/></mxGeometry></mxCell><mxCell id="1001" value="&lt;font style=&quot;font-size: 15px;&quot;&gt;i&lt;/font&gt;" style="text;html=1;align=center;verticalAlign=middle;resizable=0;points=[];autosize=1;fontSize=15;fontFamily=Helvetica;fontColor=#1A1A1A;fontStyle=1;rotation=90;horizontal=0;" parent="999" vertex="1"><mxGeometry x="-10" y="37.527027027026634" width="28" height="8" as="geometry"/></mxCell><mxCell id="1002" value="&lt;p&gt;&lt;font face=&quot;Helvetica&quot;&gt;greater&lt;/font&gt;&lt;/p&gt;" style="text;align=center;verticalAlign=middle;resizable=0;points=[];autosize=1;fontSize=15;fontColor=#000000;fontStyle=1;fontFamily=Verdana;html=1;labelPosition=center;verticalLabelPosition=middle;spacing=0;" parent="1" vertex="1"><mxGeometry x="298.84999999999997" y="17535" width="62" height="53" as="geometry"/></mxCell><mxCell id="1003" value="&lt;p&gt;&lt;font face=&quot;Helvetica&quot;&gt;smaller&lt;/font&gt;&lt;/p&gt;" style="text;align=center;verticalAlign=middle;resizable=0;points=[];autosize=1;fontSize=15;fontColor=#000000;fontStyle=1;fontFamily=Verdana;html=1;labelPosition=center;verticalLabelPosition=middle;spacing=0;" parent="1" vertex="1"><mxGeometry x="230.16999999999996" y="17596.5" width="61" height="53" as="geometry"/></mxCell><mxCell id="1004" value="" style="group;direction=east;rotation=0;fillColor=#dae8fc;strokeColor=#6c8ebf;fontColor=#1A1A1A;sketch=1;shadow=0;" parent="1" vertex="1" connectable="0"><mxGeometry x="447.26" y="17853" width="50" height="70" as="geometry"/></mxCell><mxCell id="1005" value="3" style="rounded=0;whiteSpace=wrap;html=1;sketch=1;fillColor=#dae8fc;strokeColor=#6c8ebf;fontSize=20;fontStyle=1;direction=east;rotation=0;fontColor=#1A1A1A;shadow=0;" parent="1004" vertex="1"><mxGeometry width="49.999999999999986" height="70" as="geometry"/></mxCell><mxCell id="1006" value="" style="group;direction=east;rotation=0;fillColor=#f8cecc;strokeColor=#b85450;sketch=1;shadow=0;" parent="1" vertex="1" connectable="0"><mxGeometry x="166.07999999999998" y="17843" width="50" height="80" as="geometry"/></mxCell><mxCell id="1007" value="4" style="rounded=0;whiteSpace=wrap;html=1;sketch=1;fillColor=#f8cecc;strokeColor=#b85450;fontSize=20;fontStyle=1;direction=east;rotation=0;shadow=0;fontColor=#000000;" parent="1006" vertex="1"><mxGeometry width="49.999999999999986" height="80" as="geometry"/></mxCell><mxCell id="1008" value="" style="group;direction=east;rotation=0;fillColor=#f5f5f5;strokeColor=#666666;fontColor=#333333;sketch=1;shadow=0;" parent="1" vertex="1" connectable="0"><mxGeometry x="377.38" y="17813" width="50" height="110" as="geometry"/></mxCell><mxCell id="1009" value="7" style="rounded=0;whiteSpace=wrap;html=1;sketch=1;fillColor=#f5f5f5;strokeColor=#666666;fontSize=20;fontStyle=1;direction=east;rotation=0;fontColor=#333333;shadow=0;" parent="1008" vertex="1"><mxGeometry width="49.999999999999986" height="110.00000000000001" as="geometry"/></mxCell><mxCell id="1010" value="" style="group;direction=east;rotation=0;fillColor=#fff2cc;strokeColor=#d6b656;sketch=1;shadow=0;" parent="1" vertex="1" connectable="0"><mxGeometry x="236.61" y="17883" width="50" height="40" as="geometry"/></mxCell><mxCell id="1011" value="1" style="rounded=0;whiteSpace=wrap;html=1;sketch=1;fillColor=#fff2cc;strokeColor=#d6b656;fontSize=20;fontStyle=1;direction=east;rotation=0;shadow=0;fontColor=#1A1A1A;" parent="1010" vertex="1"><mxGeometry width="49.999999999999986" height="40" as="geometry"/></mxCell><mxCell id="1012" value="" style="group;direction=east;rotation=0;fillColor=#f5f5f5;strokeColor=#666666;fontColor=#333333;sketch=1;shadow=0;" parent="1" vertex="1" connectable="0"><mxGeometry x="306.08" y="17823" width="50" height="100" as="geometry"/></mxCell><mxCell id="1013" value="6" style="rounded=0;whiteSpace=wrap;html=1;sketch=1;fillColor=#f5f5f5;strokeColor=#666666;fontSize=20;fontStyle=1;direction=east;rotation=0;fontColor=#333333;shadow=0;" parent="1012" vertex="1"><mxGeometry width="49.999999999999986" height="100" as="geometry"/></mxCell><mxCell id="1014" value="2" style="rounded=0;whiteSpace=wrap;html=1;sketch=1;fillColor=#dae8fc;strokeColor=#6c8ebf;fontSize=20;fontStyle=1;direction=east;rotation=0;fontColor=#1A1A1A;shadow=0;" parent="1" vertex="1"><mxGeometry x="517.87" y="17863" width="49.999999999999986" height="60" as="geometry"/></mxCell><mxCell id="1015" value="5" style="rounded=0;whiteSpace=wrap;html=1;sketch=1;fillColor=#dae8fc;strokeColor=#6c8ebf;fontSize=20;fontStyle=1;direction=east;rotation=0;fontColor=#1A1A1A;shadow=0;" parent="1" vertex="1"><mxGeometry x="586.88" y="17833" width="49.999999999999986" height="90" as="geometry"/></mxCell><mxCell id="1016" value="" style="group" parent="1" vertex="1" connectable="0"><mxGeometry x="173.99703904079064" y="17937" width="26.6068742993711" height="59" as="geometry"/></mxCell><mxCell id="1017" value="" style="shape=flexArrow;endArrow=classic;html=1;shadow=0;strokeColor=#1A1A1A;fontFamily=Helvetica;fontSize=13;fontColor=#1A1A1A;endWidth=27.142857142857146;endSize=7.775;width=17.5;sketch=1;" parent="1016" edge="1"><mxGeometry x="-8.887039040790654" width="50" height="50" as="geometry"><mxPoint x="13.970103816352207" y="59" as="sourcePoint"/><mxPoint x="13.970103816352207" as="targetPoint"/></mxGeometry></mxCell><mxCell id="1018" value="&lt;font style=&quot;font-size: 13px;&quot;&gt;pivot&lt;/font&gt;" style="text;html=1;align=center;verticalAlign=middle;resizable=0;points=[];autosize=1;fontSize=13;fontFamily=Helvetica;fontColor=#1A1A1A;fontStyle=1;rotation=1;horizontal=0;" parent="1016" vertex="1"><mxGeometry x="0.3034371496855499" y="23.527027027026634" width="26" height="35" as="geometry"/></mxCell><mxCell id="1019" value="" style="group" parent="1" vertex="1" connectable="0"><mxGeometry x="247.36703904079064" y="17940" width="26.6068742993711" height="59.527027027026634" as="geometry"/></mxCell><mxCell id="1020" value="" style="shape=flexArrow;endArrow=classic;html=1;shadow=0;strokeColor=#1A1A1A;fontFamily=Helvetica;fontSize=13;fontColor=#1A1A1A;endWidth=27.142857142857146;endSize=7.775;width=17.5;sketch=1;" parent="1019" edge="1"><mxGeometry x="-8.887039040790654" width="50" height="50" as="geometry"><mxPoint x="13.970103816352207" y="59" as="sourcePoint"/><mxPoint x="13.970103816352207" as="targetPoint"/></mxGeometry></mxCell><mxCell id="1021" value="&lt;font style=&quot;font-size: 13px&quot;&gt;swap&lt;/font&gt;" style="text;html=1;align=center;verticalAlign=middle;resizable=0;points=[];autosize=1;fontSize=13;fontFamily=Helvetica;fontColor=#1A1A1A;fontStyle=1;rotation=1;horizontal=0;" parent="1019" vertex="1"><mxGeometry x="0.3034371496855499" y="22.527027027026634" width="26" height="37" as="geometry"/></mxCell><mxCell id="1022" value="" style="group" parent="1" vertex="1" connectable="0"><mxGeometry x="400.5004761904762" y="17937" width="8" height="59" as="geometry"/></mxCell><mxCell id="1023" value="" style="shape=flexArrow;endArrow=classic;html=1;shadow=0;strokeColor=#1A1A1A;fontFamily=Helvetica;fontSize=13;fontColor=#1A1A1A;endWidth=27.142857142857146;endSize=7.775;width=17.5;sketch=1;" parent="1022" edge="1"><mxGeometry x="-19.190476190476204" width="50" height="50" as="geometry"><mxPoint x="3.6666666666664014" y="59" as="sourcePoint"/><mxPoint x="3.6666666666664014" as="targetPoint"/></mxGeometry></mxCell><mxCell id="1024" value="&lt;font style=&quot;font-size: 15px;&quot;&gt;i&lt;/font&gt;" style="text;html=1;align=center;verticalAlign=middle;resizable=0;points=[];autosize=1;fontSize=15;fontFamily=Helvetica;fontColor=#1A1A1A;fontStyle=1;rotation=90;horizontal=0;" parent="1022" vertex="1"><mxGeometry x="-10" y="37.527027027026634" width="28" height="8" as="geometry"/></mxCell><mxCell id="1025" value="&lt;p&gt;&lt;font face=&quot;Helvetica&quot;&gt;greater&lt;/font&gt;&lt;/p&gt;" style="text;align=center;verticalAlign=middle;resizable=0;points=[];autosize=1;fontSize=15;fontColor=#000000;fontStyle=1;fontFamily=Verdana;html=1;labelPosition=center;verticalLabelPosition=middle;spacing=0;" parent="1" vertex="1"><mxGeometry x="298.84999999999997" y="17780" width="62" height="53" as="geometry"/></mxCell><mxCell id="1026" value="&lt;p&gt;&lt;font face=&quot;Helvetica&quot;&gt;smaller&lt;/font&gt;&lt;/p&gt;" style="text;align=center;verticalAlign=middle;resizable=0;points=[];autosize=1;fontSize=15;fontColor=#000000;fontStyle=1;fontFamily=Verdana;html=1;labelPosition=center;verticalLabelPosition=middle;spacing=0;" parent="1" vertex="1"><mxGeometry x="230.16999999999996" y="17841.5" width="61" height="53" as="geometry"/></mxCell><mxCell id="1027" value="&lt;p&gt;&lt;font face=&quot;Helvetica&quot;&gt;greater&lt;/font&gt;&lt;/p&gt;" style="text;align=center;verticalAlign=middle;resizable=0;points=[];autosize=1;fontSize=15;fontColor=#000000;fontStyle=1;fontFamily=Verdana;html=1;labelPosition=center;verticalLabelPosition=middle;spacing=0;" parent="1" vertex="1"><mxGeometry x="370.2" y="17770" width="62" height="53" as="geometry"/></mxCell><mxCell id="1028" value="" style="group;direction=east;rotation=0;fillColor=#fff2cc;strokeColor=#d6b656;sketch=1;shadow=0;" parent="1" vertex="1" connectable="0"><mxGeometry x="443.53999999999996" y="18109" width="50" height="70" as="geometry"/></mxCell><mxCell id="1029" value="3" style="rounded=0;whiteSpace=wrap;html=1;sketch=1;fillColor=#fff2cc;strokeColor=#d6b656;fontSize=20;fontStyle=1;direction=east;rotation=0;shadow=0;fontColor=#1A1A1A;" parent="1028" vertex="1"><mxGeometry width="49.999999999999986" height="70" as="geometry"/></mxCell><mxCell id="1030" value="" style="group;direction=east;rotation=0;fillColor=#f8cecc;strokeColor=#b85450;sketch=1;shadow=0;" parent="1" vertex="1" connectable="0"><mxGeometry x="162.35999999999999" y="18099" width="50" height="80" as="geometry"/></mxCell><mxCell id="1031" value="4" style="rounded=0;whiteSpace=wrap;html=1;sketch=1;fillColor=#f8cecc;strokeColor=#b85450;fontSize=20;fontStyle=1;direction=east;rotation=0;shadow=0;fontColor=#000000;" parent="1030" vertex="1"><mxGeometry width="49.999999999999986" height="80" as="geometry"/></mxCell><mxCell id="1032" value="" style="group;direction=east;rotation=0;fillColor=#f5f5f5;strokeColor=#666666;fontColor=#333333;sketch=1;shadow=0;" parent="1" vertex="1" connectable="0"><mxGeometry x="373.65999999999997" y="18069" width="50" height="110" as="geometry"/></mxCell><mxCell id="1033" value="7" style="rounded=0;whiteSpace=wrap;html=1;sketch=1;fillColor=#f5f5f5;strokeColor=#666666;fontSize=20;fontStyle=1;direction=east;rotation=0;fontColor=#333333;shadow=0;" parent="1032" vertex="1"><mxGeometry width="49.999999999999986" height="110.00000000000001" as="geometry"/></mxCell><mxCell id="1034" value="" style="group;direction=east;rotation=0;fillColor=#fff2cc;strokeColor=#d6b656;sketch=1;shadow=0;" parent="1" vertex="1" connectable="0"><mxGeometry x="232.89000000000001" y="18139" width="50" height="40" as="geometry"/></mxCell><mxCell id="1035" value="1" style="rounded=0;whiteSpace=wrap;html=1;sketch=1;fillColor=#fff2cc;strokeColor=#d6b656;fontSize=20;fontStyle=1;direction=east;rotation=0;shadow=0;fontColor=#1A1A1A;" parent="1034" vertex="1"><mxGeometry width="49.999999999999986" height="40" as="geometry"/></mxCell><mxCell id="1036" value="" style="group;direction=east;rotation=0;fillColor=#f5f5f5;strokeColor=#666666;fontColor=#333333;sketch=1;shadow=0;" parent="1" vertex="1" connectable="0"><mxGeometry x="302.35999999999996" y="18079" width="50" height="100" as="geometry"/></mxCell><mxCell id="1037" value="6" style="rounded=0;whiteSpace=wrap;html=1;sketch=1;fillColor=#f5f5f5;strokeColor=#666666;fontSize=20;fontStyle=1;direction=east;rotation=0;fontColor=#333333;shadow=0;" parent="1036" vertex="1"><mxGeometry width="49.999999999999986" height="100" as="geometry"/></mxCell><mxCell id="1038" value="2" style="rounded=0;whiteSpace=wrap;html=1;sketch=1;fillColor=#dae8fc;strokeColor=#6c8ebf;fontSize=20;fontStyle=1;direction=east;rotation=0;fontColor=#1A1A1A;shadow=0;" parent="1" vertex="1"><mxGeometry x="514.1500000000001" y="18119" width="49.999999999999986" height="60" as="geometry"/></mxCell><mxCell id="1039" value="5" style="rounded=0;whiteSpace=wrap;html=1;sketch=1;fillColor=#dae8fc;strokeColor=#6c8ebf;fontSize=20;fontStyle=1;direction=east;rotation=0;fontColor=#1A1A1A;shadow=0;" parent="1" vertex="1"><mxGeometry x="583.1600000000001" y="18089" width="49.999999999999986" height="90" as="geometry"/></mxCell><mxCell id="1040" value="" style="group" parent="1" vertex="1" connectable="0"><mxGeometry x="170.27703904079064" y="18193" width="26.6068742993711" height="59" as="geometry"/></mxCell><mxCell id="1041" value="" style="shape=flexArrow;endArrow=classic;html=1;shadow=0;strokeColor=#1A1A1A;fontFamily=Helvetica;fontSize=13;fontColor=#1A1A1A;endWidth=27.142857142857146;endSize=7.775;width=17.5;sketch=1;" parent="1040" edge="1"><mxGeometry x="-8.887039040790654" width="50" height="50" as="geometry"><mxPoint x="13.970103816352207" y="59" as="sourcePoint"/><mxPoint x="13.970103816352207" as="targetPoint"/></mxGeometry></mxCell><mxCell id="1042" value="&lt;font style=&quot;font-size: 13px;&quot;&gt;pivot&lt;/font&gt;" style="text;html=1;align=center;verticalAlign=middle;resizable=0;points=[];autosize=1;fontSize=13;fontFamily=Helvetica;fontColor=#1A1A1A;fontStyle=1;rotation=1;horizontal=0;" parent="1040" vertex="1"><mxGeometry x="0.3034371496855499" y="23.527027027026634" width="26" height="35" as="geometry"/></mxCell><mxCell id="1043" value="" style="group" parent="1" vertex="1" connectable="0"><mxGeometry x="243.64703904079065" y="18196" width="26.6068742993711" height="59.527027027026634" as="geometry"/></mxCell><mxCell id="1044" value="" style="shape=flexArrow;endArrow=classic;html=1;shadow=0;strokeColor=#1A1A1A;fontFamily=Helvetica;fontSize=13;fontColor=#1A1A1A;endWidth=27.142857142857146;endSize=7.775;width=17.5;sketch=1;" parent="1043" edge="1"><mxGeometry x="-8.887039040790654" width="50" height="50" as="geometry"><mxPoint x="13.970103816352207" y="59" as="sourcePoint"/><mxPoint x="13.970103816352207" as="targetPoint"/></mxGeometry></mxCell><mxCell id="1045" value="&lt;font style=&quot;font-size: 13px&quot;&gt;swap&lt;/font&gt;" style="text;html=1;align=center;verticalAlign=middle;resizable=0;points=[];autosize=1;fontSize=13;fontFamily=Helvetica;fontColor=#1A1A1A;fontStyle=1;rotation=1;horizontal=0;" parent="1043" vertex="1"><mxGeometry x="0.3034371496855499" y="22.527027027026634" width="26" height="37" as="geometry"/></mxCell><mxCell id="1046" value="" style="group" parent="1" vertex="1" connectable="0"><mxGeometry x="464.54047619047617" y="18196.53" width="8" height="59" as="geometry"/></mxCell><mxCell id="1047" value="" style="shape=flexArrow;endArrow=classic;html=1;shadow=0;strokeColor=#1A1A1A;fontFamily=Helvetica;fontSize=13;fontColor=#1A1A1A;endWidth=27.142857142857146;endSize=7.775;width=17.5;sketch=1;" parent="1046" edge="1"><mxGeometry x="-19.190476190476204" width="50" height="50" as="geometry"><mxPoint x="3.6666666666664014" y="59" as="sourcePoint"/><mxPoint x="3.6666666666664014" as="targetPoint"/></mxGeometry></mxCell><mxCell id="1048" value="&lt;font style=&quot;font-size: 15px;&quot;&gt;i&lt;/font&gt;" style="text;html=1;align=center;verticalAlign=middle;resizable=0;points=[];autosize=1;fontSize=15;fontFamily=Helvetica;fontColor=#1A1A1A;fontStyle=1;rotation=90;horizontal=0;" parent="1046" vertex="1"><mxGeometry x="-10" y="37.527027027026634" width="28" height="8" as="geometry"/></mxCell><mxCell id="1049" value="&lt;p&gt;&lt;font face=&quot;Helvetica&quot;&gt;greater&lt;/font&gt;&lt;/p&gt;" style="text;align=center;verticalAlign=middle;resizable=0;points=[];autosize=1;fontSize=15;fontColor=#000000;fontStyle=1;fontFamily=Verdana;html=1;labelPosition=center;verticalLabelPosition=middle;spacing=0;" parent="1" vertex="1"><mxGeometry x="295.12999999999994" y="18036" width="62" height="53" as="geometry"/></mxCell><mxCell id="1050" value="&lt;p&gt;&lt;font face=&quot;Helvetica&quot;&gt;smaller&lt;/font&gt;&lt;/p&gt;" style="text;align=center;verticalAlign=middle;resizable=0;points=[];autosize=1;fontSize=15;fontColor=#000000;fontStyle=1;fontFamily=Verdana;html=1;labelPosition=center;verticalLabelPosition=middle;spacing=0;" parent="1" vertex="1"><mxGeometry x="226.44999999999996" y="18097.5" width="61" height="53" as="geometry"/></mxCell><mxCell id="1051" value="&lt;p&gt;&lt;font face=&quot;Helvetica&quot;&gt;greater&lt;/font&gt;&lt;/p&gt;" style="text;align=center;verticalAlign=middle;resizable=0;points=[];autosize=1;fontSize=15;fontColor=#000000;fontStyle=1;fontFamily=Verdana;html=1;labelPosition=center;verticalLabelPosition=middle;spacing=0;" parent="1" vertex="1"><mxGeometry x="366.47999999999996" y="18026" width="62" height="53" as="geometry"/></mxCell><mxCell id="1052" value="&lt;p&gt;&lt;font face=&quot;Helvetica&quot;&gt;smaller&lt;/font&gt;&lt;/p&gt;" style="text;align=center;verticalAlign=middle;resizable=0;points=[];autosize=1;fontSize=15;fontColor=#000000;fontStyle=1;fontFamily=Verdana;html=1;labelPosition=center;verticalLabelPosition=middle;spacing=0;" parent="1" vertex="1"><mxGeometry x="438.03999999999996" y="18064" width="61" height="53" as="geometry"/></mxCell><mxCell id="1053" value="" style="group;direction=east;rotation=0;fillColor=#fff2cc;strokeColor=#d6b656;sketch=1;shadow=0;" parent="1" vertex="1" connectable="0"><mxGeometry x="440.97999999999996" y="18380" width="50" height="70" as="geometry"/></mxCell><mxCell id="1054" value="3" style="rounded=0;whiteSpace=wrap;html=1;sketch=1;fillColor=#fff2cc;strokeColor=#d6b656;fontSize=20;fontStyle=1;direction=east;rotation=0;shadow=0;fontColor=#1A1A1A;" parent="1053" vertex="1"><mxGeometry width="49.999999999999986" height="70" as="geometry"/></mxCell><mxCell id="1055" value="" style="group;direction=east;rotation=0;fillColor=#f8cecc;strokeColor=#b85450;sketch=1;shadow=0;" parent="1" vertex="1" connectable="0"><mxGeometry x="159.79999999999998" y="18370" width="50" height="80" as="geometry"/></mxCell><mxCell id="1056" value="4" style="rounded=0;whiteSpace=wrap;html=1;sketch=1;fillColor=#f8cecc;strokeColor=#b85450;fontSize=20;fontStyle=1;direction=east;rotation=0;shadow=0;fontColor=#000000;" parent="1055" vertex="1"><mxGeometry width="49.999999999999986" height="80" as="geometry"/></mxCell><mxCell id="1057" value="" style="group;direction=east;rotation=0;fillColor=#f5f5f5;strokeColor=#666666;fontColor=#333333;sketch=1;shadow=0;" parent="1" vertex="1" connectable="0"><mxGeometry x="371.09999999999997" y="18340" width="50" height="110" as="geometry"/></mxCell><mxCell id="1058" value="7" style="rounded=0;whiteSpace=wrap;html=1;sketch=1;fillColor=#f5f5f5;strokeColor=#666666;fontSize=20;fontStyle=1;direction=east;rotation=0;fontColor=#333333;shadow=0;" parent="1057" vertex="1"><mxGeometry width="49.999999999999986" height="110.00000000000001" as="geometry"/></mxCell><mxCell id="1059" value="" style="group;direction=east;rotation=0;fillColor=#fff2cc;strokeColor=#d6b656;sketch=1;shadow=0;" parent="1" vertex="1" connectable="0"><mxGeometry x="230.33" y="18410" width="50" height="40" as="geometry"/></mxCell><mxCell id="1060" value="1" style="rounded=0;whiteSpace=wrap;html=1;sketch=1;fillColor=#fff2cc;strokeColor=#d6b656;fontSize=20;fontStyle=1;direction=east;rotation=0;shadow=0;fontColor=#1A1A1A;" parent="1059" vertex="1"><mxGeometry width="49.999999999999986" height="40" as="geometry"/></mxCell><mxCell id="1061" value="" style="group;direction=east;rotation=0;fillColor=#f5f5f5;strokeColor=#666666;fontColor=#333333;sketch=1;shadow=0;" parent="1" vertex="1" connectable="0"><mxGeometry x="299.79999999999995" y="18350" width="50" height="100" as="geometry"/></mxCell><mxCell id="1062" value="6" style="rounded=0;whiteSpace=wrap;html=1;sketch=1;fillColor=#f5f5f5;strokeColor=#666666;fontSize=20;fontStyle=1;direction=east;rotation=0;fontColor=#333333;shadow=0;" parent="1061" vertex="1"><mxGeometry width="49.999999999999986" height="100" as="geometry"/></mxCell><mxCell id="1063" value="2" style="rounded=0;whiteSpace=wrap;html=1;sketch=1;fillColor=#dae8fc;strokeColor=#6c8ebf;fontSize=20;fontStyle=1;direction=east;rotation=0;fontColor=#1A1A1A;shadow=0;" parent="1" vertex="1"><mxGeometry x="511.5900000000001" y="18390" width="49.999999999999986" height="60" as="geometry"/></mxCell><mxCell id="1064" value="5" style="rounded=0;whiteSpace=wrap;html=1;sketch=1;fillColor=#dae8fc;strokeColor=#6c8ebf;fontSize=20;fontStyle=1;direction=east;rotation=0;fontColor=#1A1A1A;shadow=0;" parent="1" vertex="1"><mxGeometry x="580.6000000000001" y="18360" width="49.999999999999986" height="90" as="geometry"/></mxCell><mxCell id="1065" value="" style="group" parent="1" vertex="1" connectable="0"><mxGeometry x="167.71703904079064" y="18464" width="26.6068742993711" height="59" as="geometry"/></mxCell><mxCell id="1066" value="" style="shape=flexArrow;endArrow=classic;html=1;shadow=0;strokeColor=#1A1A1A;fontFamily=Helvetica;fontSize=13;fontColor=#1A1A1A;endWidth=27.142857142857146;endSize=7.775;width=17.5;sketch=1;" parent="1065" edge="1"><mxGeometry x="-8.887039040790654" width="50" height="50" as="geometry"><mxPoint x="13.970103816352207" y="59" as="sourcePoint"/><mxPoint x="13.970103816352207" as="targetPoint"/></mxGeometry></mxCell><mxCell id="1067" value="&lt;font style=&quot;font-size: 13px;&quot;&gt;pivot&lt;/font&gt;" style="text;html=1;align=center;verticalAlign=middle;resizable=0;points=[];autosize=1;fontSize=13;fontFamily=Helvetica;fontColor=#1A1A1A;fontStyle=1;rotation=1;horizontal=0;" parent="1065" vertex="1"><mxGeometry x="0.3034371496855499" y="23.527027027026634" width="26" height="35" as="geometry"/></mxCell><mxCell id="1068" value="" style="group" parent="1" vertex="1" connectable="0"><mxGeometry x="308.99703904079064" y="18466" width="26.6068742993711" height="59.527027027026634" as="geometry"/></mxCell><mxCell id="1069" value="" style="shape=flexArrow;endArrow=classic;html=1;shadow=0;strokeColor=#1A1A1A;fontFamily=Helvetica;fontSize=13;fontColor=#1A1A1A;endWidth=27.142857142857146;endSize=7.775;width=17.5;sketch=1;" parent="1068" edge="1"><mxGeometry x="-8.887039040790654" width="50" height="50" as="geometry"><mxPoint x="13.970103816352207" y="59" as="sourcePoint"/><mxPoint x="13.970103816352207" as="targetPoint"/></mxGeometry></mxCell><mxCell id="1070" value="&lt;font style=&quot;font-size: 13px&quot;&gt;swap&lt;/font&gt;" style="text;html=1;align=center;verticalAlign=middle;resizable=0;points=[];autosize=1;fontSize=13;fontFamily=Helvetica;fontColor=#1A1A1A;fontStyle=1;rotation=1;horizontal=0;" parent="1068" vertex="1"><mxGeometry x="0.3034371496855499" y="22.527027027026634" width="26" height="37" as="geometry"/></mxCell><mxCell id="1071" value="" style="group" parent="1" vertex="1" connectable="0"><mxGeometry x="461.98047619047617" y="18467.53" width="8" height="59" as="geometry"/></mxCell><mxCell id="1072" value="" style="shape=flexArrow;endArrow=classic;html=1;shadow=0;strokeColor=#1A1A1A;fontFamily=Helvetica;fontSize=13;fontColor=#1A1A1A;endWidth=27.142857142857146;endSize=7.775;width=17.5;sketch=1;" parent="1071" edge="1"><mxGeometry x="-19.190476190476204" width="50" height="50" as="geometry"><mxPoint x="3.6666666666664014" y="59" as="sourcePoint"/><mxPoint x="3.6666666666664014" as="targetPoint"/></mxGeometry></mxCell><mxCell id="1073" value="&lt;font style=&quot;font-size: 15px;&quot;&gt;i&lt;/font&gt;" style="text;html=1;align=center;verticalAlign=middle;resizable=0;points=[];autosize=1;fontSize=15;fontFamily=Helvetica;fontColor=#1A1A1A;fontStyle=1;rotation=90;horizontal=0;" parent="1071" vertex="1"><mxGeometry x="-10" y="37.527027027026634" width="28" height="8" as="geometry"/></mxCell><mxCell id="1074" value="&lt;p&gt;&lt;font face=&quot;Helvetica&quot;&gt;greater&lt;/font&gt;&lt;/p&gt;" style="text;align=center;verticalAlign=middle;resizable=0;points=[];autosize=1;fontSize=15;fontColor=#000000;fontStyle=1;fontFamily=Verdana;html=1;labelPosition=center;verticalLabelPosition=middle;spacing=0;" parent="1" vertex="1"><mxGeometry x="292.56999999999994" y="18307" width="62" height="53" as="geometry"/></mxCell><mxCell id="1075" value="&lt;p&gt;&lt;font face=&quot;Helvetica&quot;&gt;smaller&lt;/font&gt;&lt;/p&gt;" style="text;align=center;verticalAlign=middle;resizable=0;points=[];autosize=1;fontSize=15;fontColor=#000000;fontStyle=1;fontFamily=Verdana;html=1;labelPosition=center;verticalLabelPosition=middle;spacing=0;" parent="1" vertex="1"><mxGeometry x="223.88999999999996" y="18368.5" width="61" height="53" as="geometry"/></mxCell><mxCell id="1076" value="&lt;p&gt;&lt;font face=&quot;Helvetica&quot;&gt;greater&lt;/font&gt;&lt;/p&gt;" style="text;align=center;verticalAlign=middle;resizable=0;points=[];autosize=1;fontSize=15;fontColor=#000000;fontStyle=1;fontFamily=Verdana;html=1;labelPosition=center;verticalLabelPosition=middle;spacing=0;" parent="1" vertex="1"><mxGeometry x="363.91999999999996" y="18297" width="62" height="53" as="geometry"/></mxCell><mxCell id="1077" value="&lt;p&gt;&lt;font face=&quot;Helvetica&quot;&gt;smaller&lt;/font&gt;&lt;/p&gt;" style="text;align=center;verticalAlign=middle;resizable=0;points=[];autosize=1;fontSize=15;fontColor=#000000;fontStyle=1;fontFamily=Verdana;html=1;labelPosition=center;verticalLabelPosition=middle;spacing=0;" parent="1" vertex="1"><mxGeometry x="435.47999999999996" y="18335" width="61" height="53" as="geometry"/></mxCell><mxCell id="1101" value="" style="group;direction=east;rotation=0;fillColor=#fff2cc;strokeColor=#d6b656;sketch=1;shadow=0;" parent="1" vertex="1" connectable="0"><mxGeometry x="297" y="18633" width="50" height="70" as="geometry"/></mxCell><mxCell id="1102" value="3" style="rounded=0;whiteSpace=wrap;html=1;sketch=1;fillColor=#fff2cc;strokeColor=#d6b656;fontSize=20;fontStyle=1;direction=east;rotation=0;shadow=0;fontColor=#1A1A1A;" parent="1101" vertex="1"><mxGeometry width="49.999999999999986" height="70" as="geometry"/></mxCell><mxCell id="1103" value="" style="group;direction=east;rotation=0;fillColor=#f8cecc;strokeColor=#b85450;sketch=1;shadow=0;" parent="1" vertex="1" connectable="0"><mxGeometry x="157.04" y="18623" width="50" height="80" as="geometry"/></mxCell><mxCell id="1104" value="4" style="rounded=0;whiteSpace=wrap;html=1;sketch=1;fillColor=#f8cecc;strokeColor=#b85450;fontSize=20;fontStyle=1;direction=east;rotation=0;shadow=0;fontColor=#000000;" parent="1103" vertex="1"><mxGeometry width="49.999999999999986" height="80" as="geometry"/></mxCell><mxCell id="1105" value="" style="group;direction=east;rotation=0;fillColor=#f5f5f5;strokeColor=#666666;fontColor=#333333;sketch=1;shadow=0;" parent="1" vertex="1" connectable="0"><mxGeometry x="368.34" y="18593" width="50" height="110" as="geometry"/></mxCell><mxCell id="1106" value="7" style="rounded=0;whiteSpace=wrap;html=1;sketch=1;fillColor=#f5f5f5;strokeColor=#666666;fontSize=20;fontStyle=1;direction=east;rotation=0;fontColor=#333333;shadow=0;" parent="1105" vertex="1"><mxGeometry width="49.999999999999986" height="110.00000000000001" as="geometry"/></mxCell><mxCell id="1107" value="" style="group;direction=east;rotation=0;fillColor=#fff2cc;strokeColor=#d6b656;sketch=1;shadow=0;" parent="1" vertex="1" connectable="0"><mxGeometry x="227.57000000000002" y="18663" width="50" height="40" as="geometry"/></mxCell><mxCell id="1108" value="1" style="rounded=0;whiteSpace=wrap;html=1;sketch=1;fillColor=#fff2cc;strokeColor=#d6b656;fontSize=20;fontStyle=1;direction=east;rotation=0;shadow=0;fontColor=#1A1A1A;" parent="1107" vertex="1"><mxGeometry width="49.999999999999986" height="40" as="geometry"/></mxCell><mxCell id="1109" value="" style="group;direction=east;rotation=0;fillColor=#f5f5f5;strokeColor=#666666;fontColor=#333333;sketch=1;shadow=0;" parent="1" vertex="1" connectable="0"><mxGeometry x="438" y="18603" width="50" height="100" as="geometry"/></mxCell><mxCell id="1110" value="6" style="rounded=0;whiteSpace=wrap;html=1;sketch=1;fillColor=#f5f5f5;strokeColor=#666666;fontSize=20;fontStyle=1;direction=east;rotation=0;fontColor=#333333;shadow=0;" parent="1109" vertex="1"><mxGeometry width="49.999999999999986" height="100" as="geometry"/></mxCell><mxCell id="1111" value="2" style="rounded=0;whiteSpace=wrap;html=1;sketch=1;fillColor=#dae8fc;strokeColor=#6c8ebf;fontSize=20;fontStyle=1;direction=east;rotation=0;fontColor=#1A1A1A;shadow=0;" parent="1" vertex="1"><mxGeometry x="508.83000000000015" y="18643" width="49.999999999999986" height="60" as="geometry"/></mxCell><mxCell id="1112" value="5" style="rounded=0;whiteSpace=wrap;html=1;sketch=1;fillColor=#dae8fc;strokeColor=#6c8ebf;fontSize=20;fontStyle=1;direction=east;rotation=0;fontColor=#1A1A1A;shadow=0;" parent="1" vertex="1"><mxGeometry x="577.8400000000001" y="18613" width="49.999999999999986" height="90" as="geometry"/></mxCell><mxCell id="1113" value="" style="group" parent="1" vertex="1" connectable="0"><mxGeometry x="164.95703904079065" y="18717" width="26.6068742993711" height="59" as="geometry"/></mxCell><mxCell id="1114" value="" style="shape=flexArrow;endArrow=classic;html=1;shadow=0;strokeColor=#1A1A1A;fontFamily=Helvetica;fontSize=13;fontColor=#1A1A1A;endWidth=27.142857142857146;endSize=7.775;width=17.5;sketch=1;" parent="1113" edge="1"><mxGeometry x="-8.887039040790654" width="50" height="50" as="geometry"><mxPoint x="13.970103816352207" y="59" as="sourcePoint"/><mxPoint x="13.970103816352207" as="targetPoint"/></mxGeometry></mxCell><mxCell id="1115" value="&lt;font style=&quot;font-size: 13px;&quot;&gt;pivot&lt;/font&gt;" style="text;html=1;align=center;verticalAlign=middle;resizable=0;points=[];autosize=1;fontSize=13;fontFamily=Helvetica;fontColor=#1A1A1A;fontStyle=1;rotation=1;horizontal=0;" parent="1113" vertex="1"><mxGeometry x="0.3034371496855499" y="23.527027027026634" width="26" height="35" as="geometry"/></mxCell><mxCell id="1116" value="" style="group" parent="1" vertex="1" connectable="0"><mxGeometry x="306.23703904079065" y="18719" width="26.6068742993711" height="59.527027027026634" as="geometry"/></mxCell><mxCell id="1117" value="" style="shape=flexArrow;endArrow=classic;html=1;shadow=0;strokeColor=#1A1A1A;fontFamily=Helvetica;fontSize=13;fontColor=#1A1A1A;endWidth=27.142857142857146;endSize=7.775;width=17.5;sketch=1;" parent="1116" edge="1"><mxGeometry x="-8.887039040790654" width="50" height="50" as="geometry"><mxPoint x="13.970103816352207" y="59" as="sourcePoint"/><mxPoint x="13.970103816352207" as="targetPoint"/></mxGeometry></mxCell><mxCell id="1118" value="&lt;font style=&quot;font-size: 13px&quot;&gt;swap&lt;/font&gt;" style="text;html=1;align=center;verticalAlign=middle;resizable=0;points=[];autosize=1;fontSize=13;fontFamily=Helvetica;fontColor=#1A1A1A;fontStyle=1;rotation=1;horizontal=0;" parent="1116" vertex="1"><mxGeometry x="0.3034371496855499" y="22.527027027026634" width="26" height="37" as="geometry"/></mxCell><mxCell id="1119" value="" style="group" parent="1" vertex="1" connectable="0"><mxGeometry x="459.2204761904762" y="18720.53" width="8" height="59" as="geometry"/></mxCell><mxCell id="1120" value="" style="shape=flexArrow;endArrow=classic;html=1;shadow=0;strokeColor=#1A1A1A;fontFamily=Helvetica;fontSize=13;fontColor=#1A1A1A;endWidth=27.142857142857146;endSize=7.775;width=17.5;sketch=1;" parent="1119" edge="1"><mxGeometry x="-19.190476190476204" width="50" height="50" as="geometry"><mxPoint x="3.6666666666664014" y="59" as="sourcePoint"/><mxPoint x="3.6666666666664014" as="targetPoint"/></mxGeometry></mxCell><mxCell id="1121" value="&lt;font style=&quot;font-size: 15px;&quot;&gt;i&lt;/font&gt;" style="text;html=1;align=center;verticalAlign=middle;resizable=0;points=[];autosize=1;fontSize=15;fontFamily=Helvetica;fontColor=#1A1A1A;fontStyle=1;rotation=90;horizontal=0;" parent="1119" vertex="1"><mxGeometry x="-10" y="37.527027027026634" width="28" height="8" as="geometry"/></mxCell><mxCell id="1122" value="&lt;span style=&quot;font-family: &amp;#34;helvetica&amp;#34;&quot;&gt;smaller&lt;/span&gt;" style="text;align=center;verticalAlign=middle;resizable=0;points=[];autosize=1;fontSize=15;fontColor=#000000;fontStyle=1;fontFamily=Verdana;html=1;labelPosition=center;verticalLabelPosition=middle;spacing=0;" parent="1" vertex="1"><mxGeometry x="291.35999999999996" y="18604" width="61" height="23" as="geometry"/></mxCell><mxCell id="1123" value="&lt;p&gt;&lt;font face=&quot;Helvetica&quot;&gt;smaller&lt;/font&gt;&lt;/p&gt;" style="text;align=center;verticalAlign=middle;resizable=0;points=[];autosize=1;fontSize=15;fontColor=#000000;fontStyle=1;fontFamily=Verdana;html=1;labelPosition=center;verticalLabelPosition=middle;spacing=0;" parent="1" vertex="1"><mxGeometry x="221.12999999999997" y="18621.5" width="61" height="53" as="geometry"/></mxCell><mxCell id="1124" value="&lt;p&gt;&lt;font face=&quot;Helvetica&quot;&gt;greater&lt;/font&gt;&lt;/p&gt;" style="text;align=center;verticalAlign=middle;resizable=0;points=[];autosize=1;fontSize=15;fontColor=#000000;fontStyle=1;fontFamily=Verdana;html=1;labelPosition=center;verticalLabelPosition=middle;spacing=0;" parent="1" vertex="1"><mxGeometry x="361.15999999999997" y="18550" width="62" height="53" as="geometry"/></mxCell><mxCell id="1125" value="&lt;p&gt;&lt;span style=&quot;font-family: &amp;#34;helvetica&amp;#34;&quot;&gt;greater&lt;/span&gt;&lt;br&gt;&lt;/p&gt;" style="text;align=center;verticalAlign=middle;resizable=0;points=[];autosize=1;fontSize=15;fontColor=#000000;fontStyle=1;fontFamily=Verdana;html=1;labelPosition=center;verticalLabelPosition=middle;spacing=0;" parent="1" vertex="1"><mxGeometry x="430.71999999999997" y="18562" width="62" height="53" as="geometry"/></mxCell><mxCell id="1126" value="" style="group;direction=east;rotation=0;fillColor=#fff2cc;strokeColor=#d6b656;sketch=1;shadow=0;" parent="1" vertex="1" connectable="0"><mxGeometry x="293.04" y="18903" width="50" height="70" as="geometry"/></mxCell><mxCell id="1127" value="3" style="rounded=0;whiteSpace=wrap;html=1;sketch=1;fillColor=#fff2cc;strokeColor=#d6b656;fontSize=20;fontStyle=1;direction=east;rotation=0;shadow=0;fontColor=#1A1A1A;" parent="1126" vertex="1"><mxGeometry width="49.999999999999986" height="70" as="geometry"/></mxCell><mxCell id="1128" value="" style="group;direction=east;rotation=0;fillColor=#f8cecc;strokeColor=#b85450;sketch=1;shadow=0;" parent="1" vertex="1" connectable="0"><mxGeometry x="153.07999999999998" y="18893" width="50" height="80" as="geometry"/></mxCell><mxCell id="1129" value="4" style="rounded=0;whiteSpace=wrap;html=1;sketch=1;fillColor=#f8cecc;strokeColor=#b85450;fontSize=20;fontStyle=1;direction=east;rotation=0;shadow=0;fontColor=#000000;" parent="1128" vertex="1"><mxGeometry width="49.999999999999986" height="80" as="geometry"/></mxCell><mxCell id="1130" value="" style="group;direction=east;rotation=0;fillColor=#f5f5f5;strokeColor=#666666;fontColor=#333333;sketch=1;shadow=0;" parent="1" vertex="1" connectable="0"><mxGeometry x="364.38" y="18863" width="50" height="110" as="geometry"/></mxCell><mxCell id="1131" value="7" style="rounded=0;whiteSpace=wrap;html=1;sketch=1;fillColor=#f5f5f5;strokeColor=#666666;fontSize=20;fontStyle=1;direction=east;rotation=0;fontColor=#333333;shadow=0;" parent="1130" vertex="1"><mxGeometry width="49.999999999999986" height="110.00000000000001" as="geometry"/></mxCell><mxCell id="1132" value="" style="group;direction=east;rotation=0;fillColor=#fff2cc;strokeColor=#d6b656;sketch=1;shadow=0;" parent="1" vertex="1" connectable="0"><mxGeometry x="223.61" y="18933" width="50" height="40" as="geometry"/></mxCell><mxCell id="1133" value="1" style="rounded=0;whiteSpace=wrap;html=1;sketch=1;fillColor=#fff2cc;strokeColor=#d6b656;fontSize=20;fontStyle=1;direction=east;rotation=0;shadow=0;fontColor=#1A1A1A;" parent="1132" vertex="1"><mxGeometry width="49.999999999999986" height="40" as="geometry"/></mxCell><mxCell id="1134" value="" style="group;direction=east;rotation=0;fillColor=#f5f5f5;strokeColor=#666666;fontColor=#333333;sketch=1;shadow=0;" parent="1" vertex="1" connectable="0"><mxGeometry x="434.04" y="18873" width="50" height="100" as="geometry"/></mxCell><mxCell id="1135" value="6" style="rounded=0;whiteSpace=wrap;html=1;sketch=1;fillColor=#f5f5f5;strokeColor=#666666;fontSize=20;fontStyle=1;direction=east;rotation=0;fontColor=#333333;shadow=0;" parent="1134" vertex="1"><mxGeometry width="49.999999999999986" height="100" as="geometry"/></mxCell><mxCell id="1136" value="2" style="rounded=0;whiteSpace=wrap;html=1;sketch=1;fillColor=#fff2cc;strokeColor=#d6b656;fontSize=20;fontStyle=1;direction=east;rotation=0;shadow=0;fontColor=#1A1A1A;" parent="1" vertex="1"><mxGeometry x="504.8700000000002" y="18913" width="49.999999999999986" height="60" as="geometry"/></mxCell><mxCell id="1137" value="5" style="rounded=0;whiteSpace=wrap;html=1;sketch=1;fillColor=#dae8fc;strokeColor=#6c8ebf;fontSize=20;fontStyle=1;direction=east;rotation=0;fontColor=#1A1A1A;shadow=0;" parent="1" vertex="1"><mxGeometry x="573.8800000000001" y="18883" width="49.999999999999986" height="90" as="geometry"/></mxCell><mxCell id="1138" value="" style="group" parent="1" vertex="1" connectable="0"><mxGeometry x="160.99703904079064" y="18987" width="26.6068742993711" height="59" as="geometry"/></mxCell><mxCell id="1139" value="" style="shape=flexArrow;endArrow=classic;html=1;shadow=0;strokeColor=#1A1A1A;fontFamily=Helvetica;fontSize=13;fontColor=#1A1A1A;endWidth=27.142857142857146;endSize=7.775;width=17.5;sketch=1;" parent="1138" edge="1"><mxGeometry x="-8.887039040790654" width="50" height="50" as="geometry"><mxPoint x="13.970103816352207" y="59" as="sourcePoint"/><mxPoint x="13.970103816352207" as="targetPoint"/></mxGeometry></mxCell><mxCell id="1140" value="&lt;font style=&quot;font-size: 13px;&quot;&gt;pivot&lt;/font&gt;" style="text;html=1;align=center;verticalAlign=middle;resizable=0;points=[];autosize=1;fontSize=13;fontFamily=Helvetica;fontColor=#1A1A1A;fontStyle=1;rotation=1;horizontal=0;" parent="1138" vertex="1"><mxGeometry x="0.3034371496855499" y="23.527027027026634" width="26" height="35" as="geometry"/></mxCell><mxCell id="1141" value="" style="group" parent="1" vertex="1" connectable="0"><mxGeometry x="375.9970390407907" y="18986" width="26.6068742993711" height="59.527027027026634" as="geometry"/></mxCell><mxCell id="1142" value="" style="shape=flexArrow;endArrow=classic;html=1;shadow=0;strokeColor=#1A1A1A;fontFamily=Helvetica;fontSize=13;fontColor=#1A1A1A;endWidth=27.142857142857146;endSize=7.775;width=17.5;sketch=1;" parent="1141" edge="1"><mxGeometry x="-8.887039040790654" width="50" height="50" as="geometry"><mxPoint x="13.970103816352207" y="59" as="sourcePoint"/><mxPoint x="13.970103816352207" as="targetPoint"/></mxGeometry></mxCell><mxCell id="1143" value="&lt;font style=&quot;font-size: 13px&quot;&gt;swap&lt;/font&gt;" style="text;html=1;align=center;verticalAlign=middle;resizable=0;points=[];autosize=1;fontSize=13;fontFamily=Helvetica;fontColor=#1A1A1A;fontStyle=1;rotation=1;horizontal=0;" parent="1141" vertex="1"><mxGeometry x="0.3034371496855499" y="22.527027027026634" width="26" height="37" as="geometry"/></mxCell><mxCell id="1144" value="" style="group" parent="1" vertex="1" connectable="0"><mxGeometry x="526.2304761904762" y="18989.53" width="8" height="59" as="geometry"/></mxCell><mxCell id="1145" value="" style="shape=flexArrow;endArrow=classic;html=1;shadow=0;strokeColor=#1A1A1A;fontFamily=Helvetica;fontSize=13;fontColor=#1A1A1A;endWidth=27.142857142857146;endSize=7.775;width=17.5;sketch=1;" parent="1144" edge="1"><mxGeometry x="-19.190476190476204" width="50" height="50" as="geometry"><mxPoint x="3.6666666666664014" y="59" as="sourcePoint"/><mxPoint x="3.6666666666664014" as="targetPoint"/></mxGeometry></mxCell><mxCell id="1146" value="&lt;font style=&quot;font-size: 15px;&quot;&gt;i&lt;/font&gt;" style="text;html=1;align=center;verticalAlign=middle;resizable=0;points=[];autosize=1;fontSize=15;fontFamily=Helvetica;fontColor=#1A1A1A;fontStyle=1;rotation=90;horizontal=0;" parent="1144" vertex="1"><mxGeometry x="-10" y="37.527027027026634" width="28" height="8" as="geometry"/></mxCell><mxCell id="1147" value="&lt;span style=&quot;font-family: &amp;#34;helvetica&amp;#34;&quot;&gt;smaller&lt;/span&gt;" style="text;align=center;verticalAlign=middle;resizable=0;points=[];autosize=1;fontSize=15;fontColor=#000000;fontStyle=1;fontFamily=Verdana;html=1;labelPosition=center;verticalLabelPosition=middle;spacing=0;" parent="1" vertex="1"><mxGeometry x="287.4" y="18874" width="61" height="23" as="geometry"/></mxCell><mxCell id="1148" value="&lt;p&gt;&lt;font face=&quot;Helvetica&quot;&gt;smaller&lt;/font&gt;&lt;/p&gt;" style="text;align=center;verticalAlign=middle;resizable=0;points=[];autosize=1;fontSize=15;fontColor=#000000;fontStyle=1;fontFamily=Verdana;html=1;labelPosition=center;verticalLabelPosition=middle;spacing=0;" parent="1" vertex="1"><mxGeometry x="217.16999999999996" y="18891.5" width="61" height="53" as="geometry"/></mxCell><mxCell id="1149" value="&lt;p&gt;&lt;span style=&quot;font-family: &amp;#34;helvetica&amp;#34;&quot;&gt;greater&lt;/span&gt;&lt;br&gt;&lt;/p&gt;" style="text;align=center;verticalAlign=middle;resizable=0;points=[];autosize=1;fontSize=15;fontColor=#000000;fontStyle=1;fontFamily=Verdana;html=1;labelPosition=center;verticalLabelPosition=middle;spacing=0;" parent="1" vertex="1"><mxGeometry x="426.76" y="18832" width="62" height="53" as="geometry"/></mxCell><mxCell id="1150" value="&lt;span style=&quot;font-family: &amp;#34;helvetica&amp;#34;&quot;&gt;smaller&lt;/span&gt;" style="text;align=center;verticalAlign=middle;resizable=0;points=[];autosize=1;fontSize=15;fontColor=#000000;fontStyle=1;fontFamily=Verdana;html=1;labelPosition=center;verticalLabelPosition=middle;spacing=0;" parent="1" vertex="1"><mxGeometry x="498.23" y="18890" width="61" height="23" as="geometry"/></mxCell><mxCell id="1151" value="&lt;p&gt;&lt;font face=&quot;Helvetica&quot;&gt;greater&lt;/font&gt;&lt;/p&gt;" style="text;align=center;verticalAlign=middle;resizable=0;points=[];autosize=1;fontSize=15;fontColor=#000000;fontStyle=1;fontFamily=Verdana;html=1;labelPosition=center;verticalLabelPosition=middle;spacing=0;" parent="1" vertex="1"><mxGeometry x="358.29999999999995" y="18820" width="62" height="53" as="geometry"/></mxCell><mxCell id="1152" value="" style="group;textOpacity=20;opacity=20;" parent="1" vertex="1" connectable="0"><mxGeometry x="302.9970390407907" y="18986" width="26.6068742993711" height="59.527027027026634" as="geometry"/></mxCell><mxCell id="1153" value="" style="shape=flexArrow;endArrow=classic;html=1;shadow=0;strokeColor=#1A1A1A;fontFamily=Helvetica;fontSize=13;fontColor=#1A1A1A;endWidth=27.142857142857146;endSize=7.775;width=17.5;sketch=1;textOpacity=20;opacity=20;" parent="1152" edge="1"><mxGeometry x="-8.887039040790654" width="50" height="50" as="geometry"><mxPoint x="13.970103816352207" y="59" as="sourcePoint"/><mxPoint x="13.970103816352207" as="targetPoint"/></mxGeometry></mxCell><mxCell id="1154" value="&lt;font style=&quot;font-size: 13px&quot;&gt;swap&lt;/font&gt;" style="text;html=1;align=center;verticalAlign=middle;resizable=0;points=[];autosize=1;fontSize=13;fontFamily=Helvetica;fontColor=#1A1A1A;fontStyle=1;rotation=1;horizontal=0;textOpacity=20;opacity=20;" parent="1152" vertex="1"><mxGeometry x="0.3034371496855499" y="22.527027027026634" width="26" height="37" as="geometry"/></mxCell><mxCell id="1155" style="edgeStyle=orthogonalEdgeStyle;rounded=0;orthogonalLoop=1;jettySize=auto;html=1;entryX=0.02;entryY=0.44;entryDx=0;entryDy=0;entryPerimeter=0;fontFamily=Verdana;fontSize=15;fontColor=#1A1A1A;opacity=40;dashed=1;endArrow=none;endFill=0;strokeColor=#1A1A1A;" parent="1" source="1154" target="1143" edge="1"><mxGeometry relative="1" as="geometry"/></mxCell><mxCell id="1156" value="" style="group;direction=east;rotation=0;fillColor=#fff2cc;strokeColor=#d6b656;sketch=1;shadow=0;" parent="1" vertex="1" connectable="0"><mxGeometry x="284.98" y="19160" width="50" height="70" as="geometry"/></mxCell><mxCell id="1157" value="3" style="rounded=0;whiteSpace=wrap;html=1;sketch=1;fillColor=#fff2cc;strokeColor=#d6b656;fontSize=20;fontStyle=1;direction=east;rotation=0;shadow=0;fontColor=#1A1A1A;" parent="1156" vertex="1"><mxGeometry width="49.999999999999986" height="70" as="geometry"/></mxCell><mxCell id="1158" value="" style="group;direction=east;rotation=0;fillColor=#f8cecc;strokeColor=#b85450;sketch=1;shadow=0;" parent="1" vertex="1" connectable="0"><mxGeometry x="145.01999999999998" y="19150" width="50" height="80" as="geometry"/></mxCell><mxCell id="1159" value="4" style="rounded=0;whiteSpace=wrap;html=1;sketch=1;fillColor=#f8cecc;strokeColor=#b85450;fontSize=20;fontStyle=1;direction=east;rotation=0;shadow=0;fontColor=#000000;" parent="1158" vertex="1"><mxGeometry width="49.999999999999986" height="80" as="geometry"/></mxCell><mxCell id="1160" value="" style="group;direction=east;rotation=0;fillColor=#f5f5f5;strokeColor=#666666;fontColor=#333333;sketch=1;shadow=0;" parent="1" vertex="1" connectable="0"><mxGeometry x="496" y="19120" width="50" height="110" as="geometry"/></mxCell><mxCell id="1161" value="7" style="rounded=0;whiteSpace=wrap;html=1;sketch=1;fillColor=#f5f5f5;strokeColor=#666666;fontSize=20;fontStyle=1;direction=east;rotation=0;fontColor=#333333;shadow=0;" parent="1160" vertex="1"><mxGeometry width="49.999999999999986" height="110.00000000000001" as="geometry"/></mxCell><mxCell id="1162" value="" style="group;direction=east;rotation=0;fillColor=#fff2cc;strokeColor=#d6b656;sketch=1;shadow=0;" parent="1" vertex="1" connectable="0"><mxGeometry x="215.55" y="19190" width="50" height="40" as="geometry"/></mxCell><mxCell id="1163" value="1" style="rounded=0;whiteSpace=wrap;html=1;sketch=1;fillColor=#fff2cc;strokeColor=#d6b656;fontSize=20;fontStyle=1;direction=east;rotation=0;shadow=0;fontColor=#1A1A1A;" parent="1162" vertex="1"><mxGeometry width="49.999999999999986" height="40" as="geometry"/></mxCell><mxCell id="1164" value="" style="group;direction=east;rotation=0;fillColor=#f5f5f5;strokeColor=#666666;fontColor=#333333;sketch=1;shadow=0;" parent="1" vertex="1" connectable="0"><mxGeometry x="425.98" y="19130" width="50" height="100" as="geometry"/></mxCell><mxCell id="1165" value="6" style="rounded=0;whiteSpace=wrap;html=1;sketch=1;fillColor=#f5f5f5;strokeColor=#666666;fontSize=20;fontStyle=1;direction=east;rotation=0;fontColor=#333333;shadow=0;" parent="1164" vertex="1"><mxGeometry width="49.999999999999986" height="100" as="geometry"/></mxCell><mxCell id="1166" value="2" style="rounded=0;whiteSpace=wrap;html=1;sketch=1;fillColor=#fff2cc;strokeColor=#d6b656;fontSize=20;fontStyle=1;direction=east;rotation=0;shadow=0;fontColor=#1A1A1A;" parent="1" vertex="1"><mxGeometry x="356" y="19170" width="49.999999999999986" height="60" as="geometry"/></mxCell><mxCell id="1167" value="5" style="rounded=0;whiteSpace=wrap;html=1;sketch=1;fillColor=#dae8fc;strokeColor=#6c8ebf;fontSize=20;fontStyle=1;direction=east;rotation=0;fontColor=#1A1A1A;shadow=0;" parent="1" vertex="1"><mxGeometry x="565.8200000000002" y="19140" width="49.999999999999986" height="90" as="geometry"/></mxCell><mxCell id="1168" value="" style="group" parent="1" vertex="1" connectable="0"><mxGeometry x="152.93703904079064" y="19244" width="26.6068742993711" height="59" as="geometry"/></mxCell><mxCell id="1169" value="" style="shape=flexArrow;endArrow=classic;html=1;shadow=0;strokeColor=#1A1A1A;fontFamily=Helvetica;fontSize=13;fontColor=#1A1A1A;endWidth=27.142857142857146;endSize=7.775;width=17.5;sketch=1;" parent="1168" edge="1"><mxGeometry x="-8.887039040790654" width="50" height="50" as="geometry"><mxPoint x="13.970103816352207" y="59" as="sourcePoint"/><mxPoint x="13.970103816352207" as="targetPoint"/></mxGeometry></mxCell><mxCell id="1170" value="&lt;font style=&quot;font-size: 13px;&quot;&gt;pivot&lt;/font&gt;" style="text;html=1;align=center;verticalAlign=middle;resizable=0;points=[];autosize=1;fontSize=13;fontFamily=Helvetica;fontColor=#1A1A1A;fontStyle=1;rotation=1;horizontal=0;" parent="1168" vertex="1"><mxGeometry x="0.3034371496855499" y="23.527027027026634" width="26" height="35" as="geometry"/></mxCell><mxCell id="1171" value="" style="group" parent="1" vertex="1" connectable="0"><mxGeometry x="367.9370390407907" y="19243" width="26.6068742993711" height="59.527027027026634" as="geometry"/></mxCell><mxCell id="1172" value="" style="shape=flexArrow;endArrow=classic;html=1;shadow=0;strokeColor=#1A1A1A;fontFamily=Helvetica;fontSize=13;fontColor=#1A1A1A;endWidth=27.142857142857146;endSize=7.775;width=17.5;sketch=1;" parent="1171" edge="1"><mxGeometry x="-8.887039040790654" width="50" height="50" as="geometry"><mxPoint x="13.970103816352207" y="59" as="sourcePoint"/><mxPoint x="13.970103816352207" as="targetPoint"/></mxGeometry></mxCell><mxCell id="1173" value="&lt;font style=&quot;font-size: 13px&quot;&gt;swap&lt;/font&gt;" style="text;html=1;align=center;verticalAlign=middle;resizable=0;points=[];autosize=1;fontSize=13;fontFamily=Helvetica;fontColor=#1A1A1A;fontStyle=1;rotation=1;horizontal=0;" parent="1171" vertex="1"><mxGeometry x="0.3034371496855499" y="22.527027027026634" width="26" height="37" as="geometry"/></mxCell><mxCell id="1174" value="" style="group" parent="1" vertex="1" connectable="0"><mxGeometry x="518.1704761904763" y="19246.53" width="8" height="59" as="geometry"/></mxCell><mxCell id="1175" value="" style="shape=flexArrow;endArrow=classic;html=1;shadow=0;strokeColor=#1A1A1A;fontFamily=Helvetica;fontSize=13;fontColor=#1A1A1A;endWidth=27.142857142857146;endSize=7.775;width=17.5;sketch=1;" parent="1174" edge="1"><mxGeometry x="-19.190476190476204" width="50" height="50" as="geometry"><mxPoint x="3.6666666666664014" y="59" as="sourcePoint"/><mxPoint x="3.6666666666664014" as="targetPoint"/></mxGeometry></mxCell><mxCell id="1176" value="&lt;font style=&quot;font-size: 15px;&quot;&gt;i&lt;/font&gt;" style="text;html=1;align=center;verticalAlign=middle;resizable=0;points=[];autosize=1;fontSize=15;fontFamily=Helvetica;fontColor=#1A1A1A;fontStyle=1;rotation=90;horizontal=0;" parent="1174" vertex="1"><mxGeometry x="-10" y="37.527027027026634" width="28" height="8" as="geometry"/></mxCell><mxCell id="1177" value="&lt;span style=&quot;font-family: &amp;#34;helvetica&amp;#34;&quot;&gt;smaller&lt;/span&gt;" style="text;align=center;verticalAlign=middle;resizable=0;points=[];autosize=1;fontSize=15;fontColor=#000000;fontStyle=1;fontFamily=Verdana;html=1;labelPosition=center;verticalLabelPosition=middle;spacing=0;" parent="1" vertex="1"><mxGeometry x="279.34" y="19131" width="61" height="23" as="geometry"/></mxCell><mxCell id="1178" value="&lt;p&gt;&lt;font face=&quot;Helvetica&quot;&gt;smaller&lt;/font&gt;&lt;/p&gt;" style="text;align=center;verticalAlign=middle;resizable=0;points=[];autosize=1;fontSize=15;fontColor=#000000;fontStyle=1;fontFamily=Verdana;html=1;labelPosition=center;verticalLabelPosition=middle;spacing=0;" parent="1" vertex="1"><mxGeometry x="209.10999999999996" y="19148.5" width="61" height="53" as="geometry"/></mxCell><mxCell id="1179" value="&lt;p&gt;&lt;span style=&quot;font-family: &amp;#34;helvetica&amp;#34;&quot;&gt;greater&lt;/span&gt;&lt;br&gt;&lt;/p&gt;" style="text;align=center;verticalAlign=middle;resizable=0;points=[];autosize=1;fontSize=15;fontColor=#000000;fontStyle=1;fontFamily=Verdana;html=1;labelPosition=center;verticalLabelPosition=middle;spacing=0;" parent="1" vertex="1"><mxGeometry x="418.7" y="19089" width="62" height="53" as="geometry"/></mxCell><mxCell id="1180" value="&lt;span style=&quot;font-family: &amp;#34;helvetica&amp;#34;&quot;&gt;greater&lt;/span&gt;" style="text;align=center;verticalAlign=middle;resizable=0;points=[];autosize=1;fontSize=15;fontColor=#000000;fontStyle=1;fontFamily=Verdana;html=1;labelPosition=center;verticalLabelPosition=middle;spacing=0;" parent="1" vertex="1"><mxGeometry x="490.22" y="19094" width="62" height="23" as="geometry"/></mxCell><mxCell id="1181" value="&lt;p&gt;&lt;font face=&quot;Helvetica&quot;&gt;smaller&lt;/font&gt;&lt;/p&gt;" style="text;align=center;verticalAlign=middle;resizable=0;points=[];autosize=1;fontSize=15;fontColor=#000000;fontStyle=1;fontFamily=Verdana;html=1;labelPosition=center;verticalLabelPosition=middle;spacing=0;" parent="1" vertex="1"><mxGeometry x="349.91999999999996" y="19130" width="61" height="53" as="geometry"/></mxCell><mxCell id="1186" value="" style="group;direction=east;rotation=0;fillColor=#fff2cc;strokeColor=#d6b656;sketch=1;shadow=0;" parent="1" vertex="1" connectable="0"><mxGeometry x="277.96000000000004" y="19410" width="50" height="70" as="geometry"/></mxCell><mxCell id="1187" value="3" style="rounded=0;whiteSpace=wrap;html=1;sketch=1;fillColor=#fff2cc;strokeColor=#d6b656;fontSize=20;fontStyle=1;direction=east;rotation=0;shadow=0;fontColor=#1A1A1A;" parent="1186" vertex="1"><mxGeometry width="49.999999999999986" height="70" as="geometry"/></mxCell><mxCell id="1188" value="" style="group;direction=east;rotation=0;fillColor=#f8cecc;strokeColor=#b85450;sketch=1;shadow=0;" parent="1" vertex="1" connectable="0"><mxGeometry x="137.99999999999997" y="19400" width="50" height="80" as="geometry"/></mxCell><mxCell id="1189" value="4" style="rounded=0;whiteSpace=wrap;html=1;sketch=1;fillColor=#f8cecc;strokeColor=#b85450;fontSize=20;fontStyle=1;direction=east;rotation=0;shadow=0;fontColor=#000000;" parent="1188" vertex="1"><mxGeometry width="49.999999999999986" height="80" as="geometry"/></mxCell><mxCell id="1190" value="" style="group;direction=east;rotation=0;fillColor=#f5f5f5;strokeColor=#666666;fontColor=#333333;sketch=1;shadow=0;" parent="1" vertex="1" connectable="0"><mxGeometry x="488.98" y="19370" width="50" height="110" as="geometry"/></mxCell><mxCell id="1191" value="7" style="rounded=0;whiteSpace=wrap;html=1;sketch=1;fillColor=#f5f5f5;strokeColor=#666666;fontSize=20;fontStyle=1;direction=east;rotation=0;fontColor=#333333;shadow=0;" parent="1190" vertex="1"><mxGeometry width="49.999999999999986" height="110.00000000000001" as="geometry"/></mxCell><mxCell id="1192" value="" style="group;direction=east;rotation=0;fillColor=#fff2cc;strokeColor=#d6b656;sketch=1;shadow=0;" parent="1" vertex="1" connectable="0"><mxGeometry x="208.53" y="19440" width="50" height="40" as="geometry"/></mxCell><mxCell id="1193" value="1" style="rounded=0;whiteSpace=wrap;html=1;sketch=1;fillColor=#fff2cc;strokeColor=#d6b656;fontSize=20;fontStyle=1;direction=east;rotation=0;shadow=0;fontColor=#1A1A1A;" parent="1192" vertex="1"><mxGeometry width="49.999999999999986" height="40" as="geometry"/></mxCell><mxCell id="1194" value="" style="group;direction=east;rotation=0;fillColor=#f5f5f5;strokeColor=#666666;fontColor=#333333;sketch=1;shadow=0;" parent="1" vertex="1" connectable="0"><mxGeometry x="418.96000000000004" y="19380" width="50" height="100" as="geometry"/></mxCell><mxCell id="1195" value="6" style="rounded=0;whiteSpace=wrap;html=1;sketch=1;fillColor=#f5f5f5;strokeColor=#666666;fontSize=20;fontStyle=1;direction=east;rotation=0;fontColor=#333333;shadow=0;" parent="1194" vertex="1"><mxGeometry width="49.999999999999986" height="100" as="geometry"/></mxCell><mxCell id="1196" value="2" style="rounded=0;whiteSpace=wrap;html=1;sketch=1;fillColor=#fff2cc;strokeColor=#d6b656;fontSize=20;fontStyle=1;direction=east;rotation=0;shadow=0;fontColor=#1A1A1A;" parent="1" vertex="1"><mxGeometry x="348.98" y="19420" width="49.999999999999986" height="60" as="geometry"/></mxCell><mxCell id="1197" value="5" style="rounded=0;whiteSpace=wrap;html=1;sketch=1;fillColor=#f5f5f5;strokeColor=#666666;fontSize=20;fontStyle=1;direction=east;rotation=0;fontColor=#333333;shadow=0;" parent="1" vertex="1"><mxGeometry x="558.8000000000002" y="19390" width="49.999999999999986" height="90" as="geometry"/></mxCell><mxCell id="1198" value="" style="group" parent="1" vertex="1" connectable="0"><mxGeometry x="145.91703904079063" y="19494" width="26.6068742993711" height="59" as="geometry"/></mxCell><mxCell id="1199" value="" style="shape=flexArrow;endArrow=classic;html=1;shadow=0;strokeColor=#1A1A1A;fontFamily=Helvetica;fontSize=13;fontColor=#1A1A1A;endWidth=27.142857142857146;endSize=7.775;width=17.5;sketch=1;" parent="1198" edge="1"><mxGeometry x="-8.887039040790654" width="50" height="50" as="geometry"><mxPoint x="13.970103816352207" y="59" as="sourcePoint"/><mxPoint x="13.970103816352207" as="targetPoint"/></mxGeometry></mxCell><mxCell id="1200" value="&lt;font style=&quot;font-size: 13px;&quot;&gt;pivot&lt;/font&gt;" style="text;html=1;align=center;verticalAlign=middle;resizable=0;points=[];autosize=1;fontSize=13;fontFamily=Helvetica;fontColor=#1A1A1A;fontStyle=1;rotation=1;horizontal=0;" parent="1198" vertex="1"><mxGeometry x="0.3034371496855499" y="23.527027027026634" width="26" height="35" as="geometry"/></mxCell><mxCell id="1201" value="" style="group" parent="1" vertex="1" connectable="0"><mxGeometry x="360.9170390407907" y="19493" width="26.6068742993711" height="59.527027027026634" as="geometry"/></mxCell><mxCell id="1202" value="" style="shape=flexArrow;endArrow=classic;html=1;shadow=0;strokeColor=#1A1A1A;fontFamily=Helvetica;fontSize=13;fontColor=#1A1A1A;endWidth=27.142857142857146;endSize=7.775;width=17.5;sketch=1;" parent="1201" edge="1"><mxGeometry x="-8.887039040790654" width="50" height="50" as="geometry"><mxPoint x="13.970103816352207" y="59" as="sourcePoint"/><mxPoint x="13.970103816352207" as="targetPoint"/></mxGeometry></mxCell><mxCell id="1203" value="&lt;font style=&quot;font-size: 13px&quot;&gt;swap&lt;/font&gt;" style="text;html=1;align=center;verticalAlign=middle;resizable=0;points=[];autosize=1;fontSize=13;fontFamily=Helvetica;fontColor=#1A1A1A;fontStyle=1;rotation=1;horizontal=0;" parent="1201" vertex="1"><mxGeometry x="0.3034371496855499" y="22.527027027026634" width="26" height="37" as="geometry"/></mxCell><mxCell id="1204" value="" style="group" parent="1" vertex="1" connectable="0"><mxGeometry x="578.5104761904763" y="19498" width="8" height="59" as="geometry"/></mxCell><mxCell id="1205" value="" style="shape=flexArrow;endArrow=classic;html=1;shadow=0;strokeColor=#1A1A1A;fontFamily=Helvetica;fontSize=13;fontColor=#1A1A1A;endWidth=27.142857142857146;endSize=7.775;width=17.5;sketch=1;" parent="1204" edge="1"><mxGeometry x="-19.190476190476204" width="50" height="50" as="geometry"><mxPoint x="3.6666666666664014" y="59" as="sourcePoint"/><mxPoint x="3.6666666666664014" as="targetPoint"/></mxGeometry></mxCell><mxCell id="1206" value="&lt;font style=&quot;font-size: 15px;&quot;&gt;i&lt;/font&gt;" style="text;html=1;align=center;verticalAlign=middle;resizable=0;points=[];autosize=1;fontSize=15;fontFamily=Helvetica;fontColor=#1A1A1A;fontStyle=1;rotation=90;horizontal=0;" parent="1204" vertex="1"><mxGeometry x="-10" y="37.527027027026634" width="28" height="8" as="geometry"/></mxCell><mxCell id="1207" value="&lt;span style=&quot;font-family: &amp;#34;helvetica&amp;#34;&quot;&gt;smaller&lt;/span&gt;" style="text;align=center;verticalAlign=middle;resizable=0;points=[];autosize=1;fontSize=15;fontColor=#000000;fontStyle=1;fontFamily=Verdana;html=1;labelPosition=center;verticalLabelPosition=middle;spacing=0;" parent="1" vertex="1"><mxGeometry x="272.32" y="19381" width="61" height="23" as="geometry"/></mxCell><mxCell id="1208" value="&lt;p&gt;&lt;font face=&quot;Helvetica&quot;&gt;smaller&lt;/font&gt;&lt;/p&gt;" style="text;align=center;verticalAlign=middle;resizable=0;points=[];autosize=1;fontSize=15;fontColor=#000000;fontStyle=1;fontFamily=Verdana;html=1;labelPosition=center;verticalLabelPosition=middle;spacing=0;" parent="1" vertex="1"><mxGeometry x="202.08999999999995" y="19398.5" width="61" height="53" as="geometry"/></mxCell><mxCell id="1209" value="&lt;p&gt;&lt;span style=&quot;font-family: &amp;#34;helvetica&amp;#34;&quot;&gt;greater&lt;/span&gt;&lt;br&gt;&lt;/p&gt;" style="text;align=center;verticalAlign=middle;resizable=0;points=[];autosize=1;fontSize=15;fontColor=#000000;fontStyle=1;fontFamily=Verdana;html=1;labelPosition=center;verticalLabelPosition=middle;spacing=0;" parent="1" vertex="1"><mxGeometry x="411.68" y="19339" width="62" height="53" as="geometry"/></mxCell><mxCell id="1210" value="&lt;span style=&quot;font-family: &amp;#34;helvetica&amp;#34;&quot;&gt;greater&lt;/span&gt;" style="text;align=center;verticalAlign=middle;resizable=0;points=[];autosize=1;fontSize=15;fontColor=#000000;fontStyle=1;fontFamily=Verdana;html=1;labelPosition=center;verticalLabelPosition=middle;spacing=0;" parent="1" vertex="1"><mxGeometry x="483.20000000000005" y="19344" width="62" height="23" as="geometry"/></mxCell><mxCell id="1211" value="&lt;p&gt;&lt;font face=&quot;Helvetica&quot;&gt;smaller&lt;/font&gt;&lt;/p&gt;" style="text;align=center;verticalAlign=middle;resizable=0;points=[];autosize=1;fontSize=15;fontColor=#000000;fontStyle=1;fontFamily=Verdana;html=1;labelPosition=center;verticalLabelPosition=middle;spacing=0;" parent="1" vertex="1"><mxGeometry x="342.9" y="19380" width="61" height="53" as="geometry"/></mxCell><mxCell id="1213" value="&lt;span style=&quot;font-family: &amp;#34;helvetica&amp;#34;&quot;&gt;greater&lt;/span&gt;" style="text;align=center;verticalAlign=middle;resizable=0;points=[];autosize=1;fontSize=15;fontColor=#000000;fontStyle=1;fontFamily=Verdana;html=1;labelPosition=center;verticalLabelPosition=middle;spacing=0;" parent="1" vertex="1"><mxGeometry x="551.51" y="19367" width="62" height="23" as="geometry"/></mxCell><mxCell id="1241" value="" style="group;direction=east;rotation=0;fillColor=#fff2cc;strokeColor=#d6b656;sketch=1;shadow=0;" parent="1" vertex="1" connectable="0"><mxGeometry x="280.27000000000004" y="19686" width="50" height="70" as="geometry"/></mxCell><mxCell id="1242" value="3" style="rounded=0;whiteSpace=wrap;html=1;sketch=1;fillColor=#fff2cc;strokeColor=#d6b656;fontSize=20;fontStyle=1;direction=east;rotation=0;shadow=0;fontColor=#1A1A1A;" parent="1241" vertex="1"><mxGeometry width="49.999999999999986" height="70" as="geometry"/></mxCell><mxCell id="1243" value="" style="group;direction=east;rotation=0;fillColor=#f8cecc;strokeColor=#b85450;sketch=1;shadow=0;" parent="1" vertex="1" connectable="0"><mxGeometry x="351" y="19676" width="50" height="80" as="geometry"/></mxCell><mxCell id="1244" value="4" style="rounded=0;whiteSpace=wrap;html=1;sketch=1;fillColor=#f8cecc;strokeColor=#b85450;fontSize=20;fontStyle=1;direction=east;rotation=0;shadow=0;fontColor=#000000;" parent="1243" vertex="1"><mxGeometry width="49.999999999999986" height="80" as="geometry"/></mxCell><mxCell id="1245" value="" style="group;direction=east;rotation=0;fillColor=#f5f5f5;strokeColor=#666666;fontColor=#333333;sketch=1;shadow=0;" parent="1" vertex="1" connectable="0"><mxGeometry x="491.29" y="19646" width="50" height="110" as="geometry"/></mxCell><mxCell id="1246" value="7" style="rounded=0;whiteSpace=wrap;html=1;sketch=1;fillColor=#f5f5f5;strokeColor=#666666;fontSize=20;fontStyle=1;direction=east;rotation=0;fontColor=#333333;shadow=0;" parent="1245" vertex="1"><mxGeometry width="49.999999999999986" height="110.00000000000001" as="geometry"/></mxCell><mxCell id="1247" value="" style="group;direction=east;rotation=0;fillColor=#fff2cc;strokeColor=#d6b656;sketch=1;shadow=0;" parent="1" vertex="1" connectable="0"><mxGeometry x="210.84" y="19716" width="50" height="40" as="geometry"/></mxCell><mxCell id="1248" value="1" style="rounded=0;whiteSpace=wrap;html=1;sketch=1;fillColor=#fff2cc;strokeColor=#d6b656;fontSize=20;fontStyle=1;direction=east;rotation=0;shadow=0;fontColor=#1A1A1A;" parent="1247" vertex="1"><mxGeometry width="49.999999999999986" height="40" as="geometry"/></mxCell><mxCell id="1249" value="" style="group;direction=east;rotation=0;fillColor=#f5f5f5;strokeColor=#666666;fontColor=#333333;sketch=1;shadow=0;" parent="1" vertex="1" connectable="0"><mxGeometry x="421.27000000000004" y="19656" width="50" height="100" as="geometry"/></mxCell><mxCell id="1250" value="6" style="rounded=0;whiteSpace=wrap;html=1;sketch=1;fillColor=#f5f5f5;strokeColor=#666666;fontSize=20;fontStyle=1;direction=east;rotation=0;fontColor=#333333;shadow=0;" parent="1249" vertex="1"><mxGeometry width="49.999999999999986" height="100" as="geometry"/></mxCell><mxCell id="1251" value="2" style="rounded=0;whiteSpace=wrap;html=1;sketch=1;fillColor=#fff2cc;strokeColor=#d6b656;fontSize=20;fontStyle=1;direction=east;rotation=0;shadow=0;fontColor=#1A1A1A;" parent="1" vertex="1"><mxGeometry x="140" y="19696" width="49.999999999999986" height="60" as="geometry"/></mxCell><mxCell id="1252" value="5" style="rounded=0;whiteSpace=wrap;html=1;sketch=1;fillColor=#f5f5f5;strokeColor=#666666;fontSize=20;fontStyle=1;direction=east;rotation=0;fontColor=#333333;shadow=0;" parent="1" vertex="1"><mxGeometry x="561.1100000000001" y="19666" width="49.999999999999986" height="90" as="geometry"/></mxCell><mxCell id="1256" value="" style="group" parent="1" vertex="1" connectable="0"><mxGeometry x="363.2270390407907" y="19769" width="26.6068742993711" height="59.527027027026634" as="geometry"/></mxCell><mxCell id="1257" value="" style="shape=flexArrow;endArrow=classic;html=1;shadow=0;strokeColor=#1A1A1A;fontFamily=Helvetica;fontSize=13;fontColor=#1A1A1A;endWidth=27.142857142857146;endSize=7.775;width=17.5;sketch=1;" parent="1256" edge="1"><mxGeometry x="-8.887039040790654" width="50" height="50" as="geometry"><mxPoint x="13.970103816352207" y="59" as="sourcePoint"/><mxPoint x="13.970103816352207" as="targetPoint"/></mxGeometry></mxCell><mxCell id="1258" value="&lt;font style=&quot;font-size: 13px&quot;&gt;swap&lt;/font&gt;" style="text;html=1;align=center;verticalAlign=middle;resizable=0;points=[];autosize=1;fontSize=13;fontFamily=Helvetica;fontColor=#1A1A1A;fontStyle=1;rotation=1;horizontal=0;" parent="1256" vertex="1"><mxGeometry x="0.3034371496855499" y="22.527027027026634" width="26" height="37" as="geometry"/></mxCell><mxCell id="1262" value="&lt;span style=&quot;font-family: &amp;#34;helvetica&amp;#34;&quot;&gt;smaller&lt;/span&gt;" style="text;align=center;verticalAlign=middle;resizable=0;points=[];autosize=1;fontSize=15;fontColor=#000000;fontStyle=1;fontFamily=Verdana;html=1;labelPosition=center;verticalLabelPosition=middle;spacing=0;" parent="1" vertex="1"><mxGeometry x="274.63" y="19657" width="61" height="23" as="geometry"/></mxCell><mxCell id="1263" value="&lt;p&gt;&lt;font face=&quot;Helvetica&quot;&gt;smaller&lt;/font&gt;&lt;/p&gt;" style="text;align=center;verticalAlign=middle;resizable=0;points=[];autosize=1;fontSize=15;fontColor=#000000;fontStyle=1;fontFamily=Verdana;html=1;labelPosition=center;verticalLabelPosition=middle;spacing=0;" parent="1" vertex="1"><mxGeometry x="204.39999999999995" y="19674.5" width="61" height="53" as="geometry"/></mxCell><mxCell id="1264" value="&lt;p&gt;&lt;span style=&quot;font-family: &amp;#34;helvetica&amp;#34;&quot;&gt;greater&lt;/span&gt;&lt;br&gt;&lt;/p&gt;" style="text;align=center;verticalAlign=middle;resizable=0;points=[];autosize=1;fontSize=15;fontColor=#000000;fontStyle=1;fontFamily=Verdana;html=1;labelPosition=center;verticalLabelPosition=middle;spacing=0;" parent="1" vertex="1"><mxGeometry x="413.99" y="19615" width="62" height="53" as="geometry"/></mxCell><mxCell id="1265" value="&lt;span style=&quot;font-family: &amp;#34;helvetica&amp;#34;&quot;&gt;greater&lt;/span&gt;" style="text;align=center;verticalAlign=middle;resizable=0;points=[];autosize=1;fontSize=15;fontColor=#000000;fontStyle=1;fontFamily=Verdana;html=1;labelPosition=center;verticalLabelPosition=middle;spacing=0;" parent="1" vertex="1"><mxGeometry x="485.51000000000005" y="19620" width="62" height="23" as="geometry"/></mxCell><mxCell id="1266" value="&lt;p&gt;&lt;font face=&quot;Helvetica&quot;&gt;smaller&lt;/font&gt;&lt;/p&gt;" style="text;align=center;verticalAlign=middle;resizable=0;points=[];autosize=1;fontSize=15;fontColor=#000000;fontStyle=1;fontFamily=Verdana;html=1;labelPosition=center;verticalLabelPosition=middle;spacing=0;" parent="1" vertex="1"><mxGeometry x="134.01999999999998" y="19656" width="61" height="53" as="geometry"/></mxCell><mxCell id="1267" value="&lt;span style=&quot;font-family: &amp;#34;helvetica&amp;#34;&quot;&gt;greater&lt;/span&gt;" style="text;align=center;verticalAlign=middle;resizable=0;points=[];autosize=1;fontSize=15;fontColor=#000000;fontStyle=1;fontFamily=Verdana;html=1;labelPosition=center;verticalLabelPosition=middle;spacing=0;" parent="1" vertex="1"><mxGeometry x="553.8199999999999" y="19643" width="62" height="23" as="geometry"/></mxCell><mxCell id="1268" value="" style="group;direction=east;rotation=0;fillColor=#fff2cc;strokeColor=#d6b656;sketch=1;shadow=0;" parent="1" vertex="1" connectable="0"><mxGeometry x="285.77000000000004" y="19912" width="50" height="70" as="geometry"/></mxCell><mxCell id="1269" value="3" style="rounded=0;whiteSpace=wrap;html=1;sketch=1;fillColor=#fff2cc;strokeColor=#d6b656;fontSize=20;fontStyle=1;direction=east;rotation=0;shadow=0;fontColor=#1A1A1A;" parent="1268" vertex="1"><mxGeometry width="49.999999999999986" height="70" as="geometry"/></mxCell><mxCell id="1270" value="" style="group;direction=east;rotation=0;fillColor=#f8cecc;strokeColor=#b85450;sketch=1;shadow=0;" parent="1" vertex="1" connectable="0"><mxGeometry x="356.5" y="19902" width="50" height="80" as="geometry"/></mxCell><mxCell id="1271" value="4" style="rounded=0;whiteSpace=wrap;html=1;sketch=1;fillColor=#f8cecc;strokeColor=#b85450;fontSize=20;fontStyle=1;direction=east;rotation=0;shadow=0;fontColor=#000000;" parent="1270" vertex="1"><mxGeometry width="49.999999999999986" height="80" as="geometry"/></mxCell><mxCell id="1272" value="" style="group;direction=east;rotation=0;fillColor=#f5f5f5;strokeColor=#666666;fontColor=#333333;sketch=1;shadow=0;" parent="1" vertex="1" connectable="0"><mxGeometry x="496.79" y="19872" width="50" height="110" as="geometry"/></mxCell><mxCell id="1273" value="7" style="rounded=0;whiteSpace=wrap;html=1;sketch=1;fillColor=#f5f5f5;strokeColor=#666666;fontSize=20;fontStyle=1;direction=east;rotation=0;fontColor=#333333;shadow=0;" parent="1272" vertex="1"><mxGeometry width="49.999999999999986" height="110.00000000000001" as="geometry"/></mxCell><mxCell id="1274" value="" style="group;direction=east;rotation=0;fillColor=#fff2cc;strokeColor=#d6b656;sketch=1;shadow=0;" parent="1" vertex="1" connectable="0"><mxGeometry x="216.34" y="19942" width="50" height="40" as="geometry"/></mxCell><mxCell id="1275" value="1" style="rounded=0;whiteSpace=wrap;html=1;sketch=1;fillColor=#fff2cc;strokeColor=#d6b656;fontSize=20;fontStyle=1;direction=east;rotation=0;shadow=0;fontColor=#1A1A1A;" parent="1274" vertex="1"><mxGeometry width="49.999999999999986" height="40" as="geometry"/></mxCell><mxCell id="1276" value="" style="group;direction=east;rotation=0;fillColor=#f5f5f5;strokeColor=#666666;fontColor=#333333;sketch=1;shadow=0;" parent="1" vertex="1" connectable="0"><mxGeometry x="426.77000000000004" y="19882" width="50" height="100" as="geometry"/></mxCell><mxCell id="1277" value="6" style="rounded=0;whiteSpace=wrap;html=1;sketch=1;fillColor=#f5f5f5;strokeColor=#666666;fontSize=20;fontStyle=1;direction=east;rotation=0;fontColor=#333333;shadow=0;" parent="1276" vertex="1"><mxGeometry width="49.999999999999986" height="100" as="geometry"/></mxCell><mxCell id="1278" value="2" style="rounded=0;whiteSpace=wrap;html=1;sketch=1;fillColor=#fff2cc;strokeColor=#d6b656;fontSize=20;fontStyle=1;direction=east;rotation=0;shadow=0;fontColor=#1A1A1A;" parent="1" vertex="1"><mxGeometry x="145.5" y="19922" width="49.999999999999986" height="60" as="geometry"/></mxCell><mxCell id="1279" value="5" style="rounded=0;whiteSpace=wrap;html=1;sketch=1;fillColor=#f5f5f5;strokeColor=#666666;fontSize=20;fontStyle=1;direction=east;rotation=0;fontColor=#333333;shadow=0;" parent="1" vertex="1"><mxGeometry x="566.6100000000001" y="19892" width="49.999999999999986" height="90" as="geometry"/></mxCell><mxCell id="1280" value="" style="group" parent="1" vertex="1" connectable="0"><mxGeometry x="368.7270390407907" y="19995" width="26.6068742993711" height="59.527027027026634" as="geometry"/></mxCell><mxCell id="1281" value="" style="shape=flexArrow;endArrow=classic;html=1;shadow=0;strokeColor=#1A1A1A;fontFamily=Helvetica;fontSize=13;fontColor=#1A1A1A;endWidth=27.142857142857146;endSize=7.775;width=17.5;sketch=1;" parent="1280" edge="1"><mxGeometry x="-8.887039040790654" width="50" height="50" as="geometry"><mxPoint x="13.970103816352207" y="59" as="sourcePoint"/><mxPoint x="13.970103816352207" as="targetPoint"/></mxGeometry></mxCell><mxCell id="1282" value="pivot" style="text;html=1;align=center;verticalAlign=middle;resizable=0;points=[];autosize=1;fontSize=13;fontFamily=Helvetica;fontColor=#1A1A1A;fontStyle=1;rotation=1;horizontal=0;" parent="1280" vertex="1"><mxGeometry x="0.3034371496855499" y="23.527027027026634" width="26" height="35" as="geometry"/></mxCell><mxCell id="1289" value="" style="shape=curlyBracket;whiteSpace=wrap;html=1;rounded=1;rotation=-90;strokeColor=#000000;sketch=1;" parent="1" vertex="1"><mxGeometry x="225.84" y="19905" width="20" height="203" as="geometry"/></mxCell><mxCell id="1290" value="" style="shape=curlyBracket;whiteSpace=wrap;html=1;rounded=1;rotation=-90;strokeColor=#000000;sketch=1;" parent="1" vertex="1"><mxGeometry x="511.65999999999997" y="19908" width="20" height="203" as="geometry"/></mxCell><mxCell id="1304" style="edgeStyle=orthogonalEdgeStyle;rounded=0;sketch=1;orthogonalLoop=1;jettySize=auto;html=1;entryX=0.5;entryY=0;entryDx=0;entryDy=0;strokeColor=#000000;strokeWidth=2;fontFamily=Courier New;fontColor=#000000;" parent="1" source="1293" target="1301" edge="1"><mxGeometry relative="1" as="geometry"/></mxCell><mxCell id="1293" value="&lt;font color=&quot;#000000&quot; style=&quot;font-size: 16px&quot;&gt;quickSort(array, 0, pivotIndex - 1)&lt;/font&gt;" style="text;html=1;strokeColor=none;fillColor=none;align=center;verticalAlign=middle;whiteSpace=wrap;rounded=0;sketch=1;fontFamily=Courier New;fontStyle=0" parent="1" vertex="1"><mxGeometry x="4.920000000000002" y="20025" width="359" height="20" as="geometry"/></mxCell><mxCell id="1305" style="edgeStyle=orthogonalEdgeStyle;rounded=0;sketch=1;orthogonalLoop=1;jettySize=auto;html=1;entryX=0.5;entryY=0;entryDx=0;entryDy=0;strokeColor=#000000;strokeWidth=2;fontFamily=Courier New;fontColor=#000000;" parent="1" source="1297" target="1302" edge="1"><mxGeometry relative="1" as="geometry"/></mxCell><mxCell id="1297" value="&lt;font color=&quot;#000000&quot; style=&quot;font-size: 16px&quot;&gt;quickSort(array,&amp;nbsp;&lt;/font&gt;&lt;span style=&quot;color: rgb(0 , 0 , 0) ; font-size: 16px&quot;&gt;pivotIndex + 1&lt;/span&gt;&lt;font color=&quot;#000000&quot; style=&quot;font-size: 16px&quot;&gt;, 6)&lt;/font&gt;" style="text;html=1;strokeColor=none;fillColor=none;align=center;verticalAlign=middle;whiteSpace=wrap;rounded=0;sketch=1;fontFamily=Courier New;fontStyle=0" parent="1" vertex="1"><mxGeometry x="421.27" y="20025" width="359" height="20" as="geometry"/></mxCell><mxCell id="1300" value="&lt;span style=&quot;color: rgb(0 , 0 , 0) ; font-size: 16px&quot;&gt;pivotIndex = 3&lt;/span&gt;" style="text;html=1;strokeColor=none;fillColor=none;align=center;verticalAlign=middle;whiteSpace=wrap;rounded=0;sketch=1;fontFamily=Courier New;fontStyle=0;rotation=-60;" parent="1" vertex="1"><mxGeometry x="290" y="20108" width="157.98" height="20" as="geometry"/></mxCell><mxCell id="1301" value="&lt;font color=&quot;#000000&quot; style=&quot;font-size: 16px&quot;&gt;quickSort(array, 0, &lt;b&gt;2&lt;/b&gt;)&lt;/font&gt;" style="text;html=1;strokeColor=none;fillColor=none;align=center;verticalAlign=middle;whiteSpace=wrap;rounded=0;sketch=1;fontFamily=Courier New;fontStyle=0" parent="1" vertex="1"><mxGeometry x="4.4" y="20070" width="359" height="20" as="geometry"/></mxCell><mxCell id="1302" value="&lt;font color=&quot;#000000&quot; style=&quot;font-size: 16px&quot;&gt;quickSort(array,&amp;nbsp;&lt;/font&gt;&lt;span style=&quot;color: rgb(0 , 0 , 0) ; font-size: 16px&quot;&gt;&lt;b&gt;4&lt;/b&gt;&lt;/span&gt;&lt;font color=&quot;#000000&quot; style=&quot;font-size: 16px&quot;&gt;, 6)&lt;/font&gt;" style="text;html=1;strokeColor=none;fillColor=none;align=center;verticalAlign=middle;whiteSpace=wrap;rounded=0;sketch=1;fontFamily=Courier New;fontStyle=0" parent="1" vertex="1"><mxGeometry x="421.38" y="20070" width="359" height="20" as="geometry"/></mxCell><mxCell id="1306" value="" style="group;direction=east;rotation=0;fillColor=#fff2cc;strokeColor=#d6b656;sketch=1;shadow=0;fontColor=#000000;" parent="1" vertex="1" connectable="0"><mxGeometry x="271.95000000000005" y="20295" width="50" height="70" as="geometry"/></mxCell><mxCell id="1307" value="3" style="rounded=0;whiteSpace=wrap;html=1;sketch=1;fillColor=#fff2cc;strokeColor=#d6b656;fontSize=20;fontStyle=1;direction=east;rotation=0;shadow=0;fontColor=#000000;" parent="1306" vertex="1"><mxGeometry width="49.999999999999986" height="70" as="geometry"/></mxCell><mxCell id="1308" value="" style="group;direction=east;rotation=0;fillColor=#f5f5f5;strokeColor=#666666;sketch=1;shadow=0;fontColor=#333333;opacity=30;textOpacity=30;" parent="1" vertex="1" connectable="0"><mxGeometry x="342.68" y="20285" width="50" height="80" as="geometry"/></mxCell><mxCell id="1309" value="4" style="rounded=0;whiteSpace=wrap;html=1;sketch=1;fillColor=#f5f5f5;strokeColor=#666666;fontSize=20;fontStyle=1;direction=east;rotation=0;shadow=0;fontColor=#333333;opacity=30;textOpacity=30;" parent="1308" vertex="1"><mxGeometry width="49.999999999999986" height="80" as="geometry"/></mxCell><mxCell id="1310" value="" style="group;direction=east;rotation=0;fillColor=#f5f5f5;strokeColor=#666666;fontColor=#333333;sketch=1;shadow=0;opacity=30;textOpacity=30;" parent="1" vertex="1" connectable="0"><mxGeometry x="482.97" y="20255" width="50" height="110" as="geometry"/></mxCell><mxCell id="1311" value="7" style="rounded=0;whiteSpace=wrap;html=1;sketch=1;fillColor=#f5f5f5;strokeColor=#666666;fontSize=20;fontStyle=1;direction=east;rotation=0;fontColor=#333333;shadow=0;opacity=30;textOpacity=30;" parent="1310" vertex="1"><mxGeometry width="49.999999999999986" height="110.00000000000001" as="geometry"/></mxCell><mxCell id="1312" value="" style="group;direction=east;rotation=0;fillColor=#fff2cc;strokeColor=#d6b656;sketch=1;shadow=0;" parent="1" vertex="1" connectable="0"><mxGeometry x="202" y="20325" width="50" height="40" as="geometry"/></mxCell><mxCell id="1313" value="1" style="rounded=0;whiteSpace=wrap;html=1;sketch=1;fillColor=#fff2cc;strokeColor=#d6b656;fontSize=20;fontStyle=1;direction=east;rotation=0;shadow=0;fontColor=#1A1A1A;" parent="1312" vertex="1"><mxGeometry width="49.999999999999986" height="40" as="geometry"/></mxCell><mxCell id="1314" value="" style="group;direction=east;rotation=0;fillColor=#f5f5f5;strokeColor=#666666;fontColor=#333333;sketch=1;shadow=0;opacity=30;textOpacity=30;" parent="1" vertex="1" connectable="0"><mxGeometry x="412.95000000000005" y="20265" width="50" height="100" as="geometry"/></mxCell><mxCell id="1315" value="6" style="rounded=0;whiteSpace=wrap;html=1;sketch=1;fillColor=#f5f5f5;strokeColor=#666666;fontSize=20;fontStyle=1;direction=east;rotation=0;fontColor=#333333;shadow=0;opacity=30;textOpacity=30;" parent="1314" vertex="1"><mxGeometry width="49.999999999999986" height="100" as="geometry"/></mxCell><mxCell id="1316" value="2" style="rounded=0;whiteSpace=wrap;html=1;sketch=1;fillColor=#f8cecc;strokeColor=#b85450;fontSize=20;fontStyle=1;direction=east;rotation=0;shadow=0;fontColor=#000000;" parent="1" vertex="1"><mxGeometry x="131" y="20305" width="49.999999999999986" height="60" as="geometry"/></mxCell><mxCell id="1317" value="5" style="rounded=0;whiteSpace=wrap;html=1;sketch=1;fillColor=#f5f5f5;strokeColor=#666666;fontSize=20;fontStyle=1;direction=east;rotation=0;fontColor=#333333;shadow=0;opacity=30;textOpacity=30;" parent="1" vertex="1"><mxGeometry x="552.7900000000001" y="20275" width="49.999999999999986" height="90" as="geometry"/></mxCell><mxCell id="1319" value="" style="group" parent="1" vertex="1" connectable="0"><mxGeometry x="123.99703904079072" y="20378" width="26.6068742993711" height="59.527027027026634" as="geometry"/></mxCell><mxCell id="1320" value="" style="shape=flexArrow;endArrow=classic;html=1;shadow=0;strokeColor=#1A1A1A;fontFamily=Helvetica;fontSize=13;fontColor=#1A1A1A;endWidth=27.142857142857146;endSize=7.775;width=17.5;sketch=1;" parent="1319" edge="1"><mxGeometry x="-8.887039040790654" width="50" height="50" as="geometry"><mxPoint x="13.970103816352207" y="59" as="sourcePoint"/><mxPoint x="13.970103816352207" as="targetPoint"/></mxGeometry></mxCell><mxCell id="1321" value="pivot" style="text;html=1;align=center;verticalAlign=middle;resizable=0;points=[];autosize=1;fontSize=13;fontFamily=Helvetica;fontColor=#1A1A1A;fontStyle=1;rotation=1;horizontal=0;" parent="1319" vertex="1"><mxGeometry x="0.3034371496855499" y="23.527027027026634" width="26" height="35" as="geometry"/></mxCell><mxCell id="1322" value="" style="group;direction=east;rotation=0;fillColor=#fff2cc;strokeColor=#d6b656;sketch=1;shadow=0;" parent="1" vertex="1" connectable="0"><mxGeometry x="258.18000000000006" y="20986" width="50" height="70" as="geometry"/></mxCell><mxCell id="1323" value="3" style="rounded=0;whiteSpace=wrap;html=1;sketch=1;fillColor=#fff2cc;strokeColor=#d6b656;fontSize=20;fontStyle=1;direction=east;rotation=0;shadow=0;fontColor=#1A1A1A;" parent="1322" vertex="1"><mxGeometry width="49.999999999999986" height="70" as="geometry"/></mxCell><mxCell id="1324" value="" style="group;direction=east;rotation=0;fillColor=#f5f5f5;strokeColor=#666666;sketch=1;shadow=0;fontColor=#333333;opacity=30;textOpacity=30;" parent="1" vertex="1" connectable="0"><mxGeometry x="328.91" y="20976" width="50" height="80" as="geometry"/></mxCell><mxCell id="1325" value="4" style="rounded=0;whiteSpace=wrap;html=1;sketch=1;fillColor=#f5f5f5;strokeColor=#666666;fontSize=20;fontStyle=1;direction=east;rotation=0;shadow=0;fontColor=#333333;opacity=30;textOpacity=30;" parent="1324" vertex="1"><mxGeometry width="49.999999999999986" height="80" as="geometry"/></mxCell><mxCell id="1326" value="" style="group;direction=east;rotation=0;fillColor=#f5f5f5;strokeColor=#666666;fontColor=#333333;sketch=1;shadow=0;opacity=30;textOpacity=30;" parent="1" vertex="1" connectable="0"><mxGeometry x="469.20000000000005" y="20946" width="50" height="110" as="geometry"/></mxCell><mxCell id="1327" value="7" style="rounded=0;whiteSpace=wrap;html=1;sketch=1;fillColor=#f5f5f5;strokeColor=#666666;fontSize=20;fontStyle=1;direction=east;rotation=0;fontColor=#333333;shadow=0;opacity=30;textOpacity=30;" parent="1326" vertex="1"><mxGeometry width="49.999999999999986" height="110.00000000000001" as="geometry"/></mxCell><mxCell id="1328" value="" style="group;direction=east;rotation=0;fillColor=#fff2cc;strokeColor=#d6b656;sketch=1;shadow=0;" parent="1" vertex="1" connectable="0"><mxGeometry x="117.23" y="21016" width="50" height="40" as="geometry"/></mxCell><mxCell id="1329" value="1" style="rounded=0;whiteSpace=wrap;html=1;sketch=1;fillColor=#fff2cc;strokeColor=#d6b656;fontSize=20;fontStyle=1;direction=east;rotation=0;shadow=0;fontColor=#1A1A1A;" parent="1328" vertex="1"><mxGeometry width="49.999999999999986" height="40" as="geometry"/></mxCell><mxCell id="1330" value="" style="group;direction=east;rotation=0;fillColor=#f5f5f5;strokeColor=#666666;fontColor=#333333;sketch=1;shadow=0;opacity=30;textOpacity=30;" parent="1" vertex="1" connectable="0"><mxGeometry x="399.18000000000006" y="20956" width="50" height="100" as="geometry"/></mxCell><mxCell id="1331" value="6" style="rounded=0;whiteSpace=wrap;html=1;sketch=1;fillColor=#f5f5f5;strokeColor=#666666;fontSize=20;fontStyle=1;direction=east;rotation=0;fontColor=#333333;shadow=0;opacity=30;textOpacity=30;" parent="1330" vertex="1"><mxGeometry width="49.999999999999986" height="100" as="geometry"/></mxCell><mxCell id="1332" value="2" style="rounded=0;whiteSpace=wrap;html=1;sketch=1;fillColor=#f8cecc;strokeColor=#b85450;fontSize=20;fontStyle=1;direction=east;rotation=0;shadow=0;fontColor=#000000;" parent="1" vertex="1"><mxGeometry x="188.23" y="20996" width="49.999999999999986" height="60" as="geometry"/></mxCell><mxCell id="1333" value="5" style="rounded=0;whiteSpace=wrap;html=1;sketch=1;fillColor=#f5f5f5;strokeColor=#666666;fontSize=20;fontStyle=1;direction=east;rotation=0;fontColor=#333333;shadow=0;opacity=30;textOpacity=30;" parent="1" vertex="1"><mxGeometry x="539.0200000000001" y="20966" width="49.999999999999986" height="90" as="geometry"/></mxCell><mxCell id="1334" value="" style="group" parent="1" vertex="1" connectable="0"><mxGeometry x="200.22703904079071" y="21069" width="26.6068742993711" height="59.527027027026634" as="geometry"/></mxCell><mxCell id="1335" value="" style="shape=flexArrow;endArrow=classic;html=1;shadow=0;strokeColor=#1A1A1A;fontFamily=Helvetica;fontSize=13;fontColor=#1A1A1A;endWidth=27.142857142857146;endSize=7.775;width=17.5;sketch=1;" parent="1334" edge="1"><mxGeometry x="-8.887039040790654" width="50" height="50" as="geometry"><mxPoint x="13.970103816352207" y="59" as="sourcePoint"/><mxPoint x="13.970103816352207" as="targetPoint"/></mxGeometry></mxCell><mxCell id="1336" value="pivot" style="text;html=1;align=center;verticalAlign=middle;resizable=0;points=[];autosize=1;fontSize=13;fontFamily=Helvetica;fontColor=#1A1A1A;fontStyle=1;rotation=1;horizontal=0;" parent="1334" vertex="1"><mxGeometry x="0.3034371496855499" y="23.527027027026634" width="26" height="35" as="geometry"/></mxCell><mxCell id="1337" value="&lt;p&gt;&lt;font face=&quot;Helvetica&quot;&gt;smaller&lt;/font&gt;&lt;/p&gt;" style="text;align=center;verticalAlign=middle;resizable=0;points=[];autosize=1;fontSize=15;fontColor=#000000;fontStyle=1;fontFamily=Verdana;html=1;labelPosition=center;verticalLabelPosition=middle;spacing=0;" parent="1" vertex="1"><mxGeometry x="195.80999999999995" y="20282" width="61" height="53" as="geometry"/></mxCell><mxCell id="1338" value="&lt;p&gt;&lt;font face=&quot;Helvetica&quot;&gt;greater&lt;/font&gt;&lt;/p&gt;" style="text;align=center;verticalAlign=middle;resizable=0;points=[];autosize=1;fontSize=15;fontColor=#000000;fontStyle=1;fontFamily=Verdana;html=1;labelPosition=center;verticalLabelPosition=middle;spacing=0;" parent="1" vertex="1"><mxGeometry x="265.66999999999996" y="20252" width="62" height="53" as="geometry"/></mxCell><mxCell id="1339" value="" style="group" parent="1" vertex="1" connectable="0"><mxGeometry x="160.99703904079072" y="20378" width="26.6068742993711" height="59.527027027026634" as="geometry"/></mxCell><mxCell id="1340" value="" style="shape=flexArrow;endArrow=classic;html=1;shadow=0;strokeColor=#1A1A1A;fontFamily=Helvetica;fontSize=13;fontColor=#1A1A1A;endWidth=27.142857142857146;endSize=7.775;width=17.5;sketch=1;" parent="1339" edge="1"><mxGeometry x="-8.887039040790654" width="50" height="50" as="geometry"><mxPoint x="13.970103816352207" y="59" as="sourcePoint"/><mxPoint x="13.970103816352207" as="targetPoint"/></mxGeometry></mxCell><mxCell id="1341" value="swap" style="text;html=1;align=center;verticalAlign=middle;resizable=0;points=[];autosize=1;fontSize=13;fontFamily=Helvetica;fontColor=#1A1A1A;fontStyle=1;rotation=1;horizontal=0;" parent="1339" vertex="1"><mxGeometry x="0.3034371496855499" y="22.527027027026634" width="26" height="37" as="geometry"/></mxCell><mxCell id="1342" value="" style="group" parent="1" vertex="1" connectable="0"><mxGeometry x="213.99703904079072" y="20380" width="27.30343714968555" height="59.527027027026634" as="geometry"/></mxCell><mxCell id="1343" value="" style="shape=flexArrow;endArrow=classic;html=1;shadow=0;strokeColor=#1A1A1A;fontFamily=Helvetica;fontSize=13;fontColor=#1A1A1A;endWidth=27.142857142857146;endSize=7.775;width=17.5;sketch=1;" parent="1342" edge="1"><mxGeometry x="-8.887039040790654" width="50" height="50" as="geometry"><mxPoint x="13.970103816352207" y="59" as="sourcePoint"/><mxPoint x="13.970103816352207" as="targetPoint"/></mxGeometry></mxCell><mxCell id="1344" value="&lt;font style=&quot;font-size: 19px&quot;&gt;i&lt;/font&gt;" style="text;html=1;align=center;verticalAlign=middle;resizable=0;points=[];autosize=1;fontSize=13;fontFamily=Helvetica;fontColor=#1A1A1A;fontStyle=1;rotation=90;horizontal=0;" parent="1342" vertex="1"><mxGeometry x="0.3034371496855499" y="37.527027027026634" width="28" height="9" as="geometry"/></mxCell><mxCell id="1345" value="" style="group;direction=east;rotation=0;fillColor=#fff2cc;strokeColor=#d6b656;sketch=1;shadow=0;" parent="1" vertex="1" connectable="0"><mxGeometry x="277.55000000000007" y="20504" width="50" height="70" as="geometry"/></mxCell><mxCell id="1346" value="3" style="rounded=0;whiteSpace=wrap;html=1;sketch=1;fillColor=#fff2cc;strokeColor=#d6b656;fontSize=20;fontStyle=1;direction=east;rotation=0;shadow=0;fontColor=#000000;" parent="1345" vertex="1"><mxGeometry width="49.999999999999986" height="70" as="geometry"/></mxCell><mxCell id="1347" value="" style="group;direction=east;rotation=0;fillColor=#f5f5f5;strokeColor=#666666;sketch=1;shadow=0;fontColor=#333333;opacity=30;textOpacity=30;" parent="1" vertex="1" connectable="0"><mxGeometry x="348.28000000000003" y="20494" width="50" height="80" as="geometry"/></mxCell><mxCell id="1348" value="4" style="rounded=0;whiteSpace=wrap;html=1;sketch=1;fillColor=#f5f5f5;strokeColor=#666666;fontSize=20;fontStyle=1;direction=east;rotation=0;shadow=0;fontColor=#333333;opacity=30;textOpacity=30;" parent="1347" vertex="1"><mxGeometry width="49.999999999999986" height="80" as="geometry"/></mxCell><mxCell id="1349" value="" style="group;direction=east;rotation=0;fillColor=#f5f5f5;strokeColor=#666666;fontColor=#333333;sketch=1;shadow=0;opacity=30;textOpacity=30;" parent="1" vertex="1" connectable="0"><mxGeometry x="488.57000000000005" y="20464" width="50" height="110" as="geometry"/></mxCell><mxCell id="1350" value="7" style="rounded=0;whiteSpace=wrap;html=1;sketch=1;fillColor=#f5f5f5;strokeColor=#666666;fontSize=20;fontStyle=1;direction=east;rotation=0;fontColor=#333333;shadow=0;opacity=30;textOpacity=30;" parent="1349" vertex="1"><mxGeometry width="49.999999999999986" height="110.00000000000001" as="geometry"/></mxCell><mxCell id="1351" value="" style="group;direction=east;rotation=0;fillColor=#fff2cc;strokeColor=#d6b656;sketch=1;shadow=0;" parent="1" vertex="1" connectable="0"><mxGeometry x="207.6" y="20534" width="50" height="40" as="geometry"/></mxCell><mxCell id="1352" value="1" style="rounded=0;whiteSpace=wrap;html=1;sketch=1;fillColor=#fff2cc;strokeColor=#d6b656;fontSize=20;fontStyle=1;direction=east;rotation=0;shadow=0;fontColor=#1A1A1A;" parent="1351" vertex="1"><mxGeometry width="49.999999999999986" height="40" as="geometry"/></mxCell><mxCell id="1353" value="" style="group;direction=east;rotation=0;fillColor=#f5f5f5;strokeColor=#666666;fontColor=#333333;sketch=1;shadow=0;opacity=30;textOpacity=30;" parent="1" vertex="1" connectable="0"><mxGeometry x="418.55000000000007" y="20474" width="50" height="100" as="geometry"/></mxCell><mxCell id="1354" value="6" style="rounded=0;whiteSpace=wrap;html=1;sketch=1;fillColor=#f5f5f5;strokeColor=#666666;fontSize=20;fontStyle=1;direction=east;rotation=0;fontColor=#333333;shadow=0;opacity=30;textOpacity=30;" parent="1353" vertex="1"><mxGeometry width="49.999999999999986" height="100" as="geometry"/></mxCell><mxCell id="1355" value="2" style="rounded=0;whiteSpace=wrap;html=1;sketch=1;fillColor=#f8cecc;strokeColor=#b85450;fontSize=20;fontStyle=1;direction=east;rotation=0;shadow=0;fontColor=#000000;" parent="1" vertex="1"><mxGeometry x="136.6" y="20514" width="49.999999999999986" height="60" as="geometry"/></mxCell><mxCell id="1356" value="5" style="rounded=0;whiteSpace=wrap;html=1;sketch=1;fillColor=#f5f5f5;strokeColor=#666666;fontSize=20;fontStyle=1;direction=east;rotation=0;fontColor=#333333;shadow=0;opacity=30;textOpacity=30;" parent="1" vertex="1"><mxGeometry x="558.3900000000001" y="20484" width="49.999999999999986" height="90" as="geometry"/></mxCell><mxCell id="1357" value="" style="group" parent="1" vertex="1" connectable="0"><mxGeometry x="129.59703904079072" y="20587" width="26.6068742993711" height="59.527027027026634" as="geometry"/></mxCell><mxCell id="1358" value="" style="shape=flexArrow;endArrow=classic;html=1;shadow=0;strokeColor=#1A1A1A;fontFamily=Helvetica;fontSize=13;fontColor=#1A1A1A;endWidth=27.142857142857146;endSize=7.775;width=17.5;sketch=1;" parent="1357" edge="1"><mxGeometry x="-8.887039040790654" width="50" height="50" as="geometry"><mxPoint x="13.970103816352207" y="59" as="sourcePoint"/><mxPoint x="13.970103816352207" as="targetPoint"/></mxGeometry></mxCell><mxCell id="1359" value="pivot" style="text;html=1;align=center;verticalAlign=middle;resizable=0;points=[];autosize=1;fontSize=13;fontFamily=Helvetica;fontColor=#1A1A1A;fontStyle=1;rotation=1;horizontal=0;" parent="1357" vertex="1"><mxGeometry x="0.3034371496855499" y="23.527027027026634" width="26" height="35" as="geometry"/></mxCell><mxCell id="1360" value="&lt;p&gt;&lt;font face=&quot;Helvetica&quot;&gt;smaller&lt;/font&gt;&lt;/p&gt;" style="text;align=center;verticalAlign=middle;resizable=0;points=[];autosize=1;fontSize=15;fontColor=#000000;fontStyle=1;fontFamily=Verdana;html=1;labelPosition=center;verticalLabelPosition=middle;spacing=0;" parent="1" vertex="1"><mxGeometry x="201.40999999999994" y="20491" width="61" height="53" as="geometry"/></mxCell><mxCell id="1365" value="" style="group" parent="1" vertex="1" connectable="0"><mxGeometry x="232.45703904079073" y="20589" width="27.30343714968555" height="61.527027027026634" as="geometry"/></mxCell><mxCell id="1366" value="" style="shape=flexArrow;endArrow=classic;html=1;shadow=0;strokeColor=#1A1A1A;fontFamily=Helvetica;fontSize=13;fontColor=#1A1A1A;endWidth=27.142857142857146;endSize=7.775;width=17.5;sketch=1;" parent="1365" edge="1"><mxGeometry x="-8.887039040790654" width="50" height="50" as="geometry"><mxPoint x="13.970103816352207" y="59" as="sourcePoint"/><mxPoint x="13.970103816352207" as="targetPoint"/></mxGeometry></mxCell><mxCell id="1367" value="&lt;font style=&quot;font-size: 19px&quot;&gt;i&lt;/font&gt;" style="text;html=1;align=center;verticalAlign=middle;resizable=0;points=[];autosize=1;fontSize=13;fontFamily=Helvetica;fontColor=#1A1A1A;fontStyle=1;rotation=90;horizontal=0;" parent="1365" vertex="1"><mxGeometry x="0.3034371496855499" y="37.527027027026634" width="28" height="9" as="geometry"/></mxCell><mxCell id="1362" value="" style="group" parent="1365" vertex="1" connectable="0"><mxGeometry x="-32.46000000000001" y="2" width="26.6068742993711" height="59.527027027026634" as="geometry"/></mxCell><mxCell id="1363" value="" style="shape=flexArrow;endArrow=classic;html=1;shadow=0;strokeColor=#1A1A1A;fontFamily=Helvetica;fontSize=13;fontColor=#1A1A1A;endWidth=27.142857142857146;endSize=7.775;width=17.5;sketch=1;" parent="1362" edge="1"><mxGeometry x="-8.887039040790654" width="50" height="50" as="geometry"><mxPoint x="13.970103816352207" y="59" as="sourcePoint"/><mxPoint x="13.970103816352207" as="targetPoint"/></mxGeometry></mxCell><mxCell id="1364" value="swap" style="text;html=1;align=center;verticalAlign=middle;resizable=0;points=[];autosize=1;fontSize=13;fontFamily=Helvetica;fontColor=#1A1A1A;fontStyle=1;rotation=1;horizontal=0;" parent="1362" vertex="1"><mxGeometry x="0.3034371496855499" y="22.527027027026634" width="26" height="37" as="geometry"/></mxCell><mxCell id="1368" value="" style="group;direction=east;rotation=0;fillColor=#f5f5f5;strokeColor=#666666;sketch=1;shadow=0;fontColor=#333333;" parent="1" vertex="1" connectable="0"><mxGeometry x="278.95000000000005" y="20756" width="50" height="70" as="geometry"/></mxCell><mxCell id="1369" value="3" style="rounded=0;whiteSpace=wrap;html=1;sketch=1;fillColor=#f5f5f5;strokeColor=#666666;fontSize=20;fontStyle=1;direction=east;rotation=0;shadow=0;fontColor=#333333;" parent="1368" vertex="1"><mxGeometry width="49.999999999999986" height="70" as="geometry"/></mxCell><mxCell id="1370" value="" style="group;direction=east;rotation=0;fillColor=#f5f5f5;strokeColor=#666666;sketch=1;shadow=0;fontColor=#333333;opacity=30;textOpacity=30;" parent="1" vertex="1" connectable="0"><mxGeometry x="349.68" y="20746" width="50" height="80" as="geometry"/></mxCell><mxCell id="1371" value="4" style="rounded=0;whiteSpace=wrap;html=1;sketch=1;fillColor=#f5f5f5;strokeColor=#666666;fontSize=20;fontStyle=1;direction=east;rotation=0;shadow=0;fontColor=#333333;opacity=30;textOpacity=30;" parent="1370" vertex="1"><mxGeometry width="49.999999999999986" height="80" as="geometry"/></mxCell><mxCell id="1372" value="" style="group;direction=east;rotation=0;fillColor=#f5f5f5;strokeColor=#666666;fontColor=#333333;sketch=1;shadow=0;opacity=30;textOpacity=30;" parent="1" vertex="1" connectable="0"><mxGeometry x="489.97" y="20716" width="50" height="110" as="geometry"/></mxCell><mxCell id="1373" value="7" style="rounded=0;whiteSpace=wrap;html=1;sketch=1;fillColor=#f5f5f5;strokeColor=#666666;fontSize=20;fontStyle=1;direction=east;rotation=0;fontColor=#333333;shadow=0;opacity=30;textOpacity=30;" parent="1372" vertex="1"><mxGeometry width="49.999999999999986" height="110.00000000000001" as="geometry"/></mxCell><mxCell id="1374" value="" style="group;direction=east;rotation=0;fillColor=#fff2cc;strokeColor=#d6b656;sketch=1;shadow=0;" parent="1" vertex="1" connectable="0"><mxGeometry x="209" y="20786" width="50" height="40" as="geometry"/></mxCell><mxCell id="1375" value="1" style="rounded=0;whiteSpace=wrap;html=1;sketch=1;fillColor=#fff2cc;strokeColor=#d6b656;fontSize=20;fontStyle=1;direction=east;rotation=0;shadow=0;fontColor=#1A1A1A;" parent="1374" vertex="1"><mxGeometry width="49.999999999999986" height="40" as="geometry"/></mxCell><mxCell id="1376" value="" style="group;direction=east;rotation=0;fillColor=#f5f5f5;strokeColor=#666666;fontColor=#333333;sketch=1;shadow=0;opacity=30;textOpacity=30;" parent="1" vertex="1" connectable="0"><mxGeometry x="419.95000000000005" y="20726" width="50" height="100" as="geometry"/></mxCell><mxCell id="1377" value="6" style="rounded=0;whiteSpace=wrap;html=1;sketch=1;fillColor=#f5f5f5;strokeColor=#666666;fontSize=20;fontStyle=1;direction=east;rotation=0;fontColor=#333333;shadow=0;opacity=30;textOpacity=30;" parent="1376" vertex="1"><mxGeometry width="49.999999999999986" height="100" as="geometry"/></mxCell><mxCell id="1378" value="2" style="rounded=0;whiteSpace=wrap;html=1;sketch=1;fillColor=#f8cecc;strokeColor=#b85450;fontSize=20;fontStyle=1;direction=east;rotation=0;shadow=0;fontColor=#000000;" parent="1" vertex="1"><mxGeometry x="138" y="20766" width="49.999999999999986" height="60" as="geometry"/></mxCell><mxCell id="1379" value="5" style="rounded=0;whiteSpace=wrap;html=1;sketch=1;fillColor=#f5f5f5;strokeColor=#666666;fontSize=20;fontStyle=1;direction=east;rotation=0;fontColor=#333333;shadow=0;opacity=30;textOpacity=30;" parent="1" vertex="1"><mxGeometry x="559.7900000000001" y="20736" width="49.999999999999986" height="90" as="geometry"/></mxCell><mxCell id="1380" value="" style="group" parent="1" vertex="1" connectable="0"><mxGeometry x="130.99703904079072" y="20839" width="26.6068742993711" height="59.527027027026634" as="geometry"/></mxCell><mxCell id="1381" value="" style="shape=flexArrow;endArrow=classic;html=1;shadow=0;strokeColor=#1A1A1A;fontFamily=Helvetica;fontSize=13;fontColor=#1A1A1A;endWidth=27.142857142857146;endSize=7.775;width=17.5;sketch=1;" parent="1380" edge="1"><mxGeometry x="-8.887039040790654" width="50" height="50" as="geometry"><mxPoint x="13.970103816352207" y="59" as="sourcePoint"/><mxPoint x="13.970103816352207" as="targetPoint"/></mxGeometry></mxCell><mxCell id="1382" value="pivot" style="text;html=1;align=center;verticalAlign=middle;resizable=0;points=[];autosize=1;fontSize=13;fontFamily=Helvetica;fontColor=#1A1A1A;fontStyle=1;rotation=1;horizontal=0;" parent="1380" vertex="1"><mxGeometry x="0.3034371496855499" y="23.527027027026634" width="26" height="35" as="geometry"/></mxCell><mxCell id="1383" value="&lt;p&gt;&lt;font face=&quot;Helvetica&quot;&gt;smaller&lt;/font&gt;&lt;/p&gt;" style="text;align=center;verticalAlign=middle;resizable=0;points=[];autosize=1;fontSize=15;fontColor=#000000;fontStyle=1;fontFamily=Verdana;html=1;labelPosition=center;verticalLabelPosition=middle;spacing=0;" parent="1" vertex="1"><mxGeometry x="202.80999999999995" y="20743" width="61" height="53" as="geometry"/></mxCell><mxCell id="1387" value="" style="group" parent="1" vertex="1" connectable="0"><mxGeometry x="217.99703904079072" y="20843" width="26.6068742993711" height="59.527027027026634" as="geometry"/></mxCell><mxCell id="1388" value="" style="shape=flexArrow;endArrow=classic;html=1;shadow=0;strokeColor=#1A1A1A;fontFamily=Helvetica;fontSize=13;fontColor=#1A1A1A;endWidth=27.142857142857146;endSize=7.775;width=17.5;sketch=1;" parent="1387" edge="1"><mxGeometry x="-8.887039040790654" width="50" height="50" as="geometry"><mxPoint x="13.970103816352207" y="59" as="sourcePoint"/><mxPoint x="13.970103816352207" as="targetPoint"/></mxGeometry></mxCell><mxCell id="1389" value="swap" style="text;html=1;align=center;verticalAlign=middle;resizable=0;points=[];autosize=1;fontSize=13;fontFamily=Helvetica;fontColor=#1A1A1A;fontStyle=1;rotation=1;horizontal=0;" parent="1387" vertex="1"><mxGeometry x="0.3034371496855499" y="22.527027027026634" width="26" height="37" as="geometry"/></mxCell><mxCell id="1390" value="" style="group" parent="1" vertex="1" connectable="0"><mxGeometry x="298.0504761904763" y="20843" width="9" height="59" as="geometry"/></mxCell><mxCell id="1385" value="" style="shape=flexArrow;endArrow=classic;html=1;shadow=0;strokeColor=#1A1A1A;fontFamily=Helvetica;fontSize=13;fontColor=#1A1A1A;endWidth=27.142857142857146;endSize=7.775;width=17.5;sketch=1;" parent="1390" edge="1"><mxGeometry x="-18.690476190476204" width="50" height="50" as="geometry"><mxPoint x="4.166666666666657" y="59" as="sourcePoint"/><mxPoint x="4.166666666666657" as="targetPoint"/></mxGeometry></mxCell><mxCell id="1386" value="&lt;font style=&quot;font-size: 19px&quot;&gt;i&lt;/font&gt;" style="text;html=1;align=center;verticalAlign=middle;resizable=0;points=[];autosize=1;fontSize=13;fontFamily=Helvetica;fontColor=#1A1A1A;fontStyle=1;rotation=90;horizontal=0;" parent="1390" vertex="1"><mxGeometry x="-9.5" y="37.527027027026634" width="28" height="9" as="geometry"/></mxCell><mxCell id="1391" value="&lt;p&gt;&lt;font face=&quot;Helvetica&quot;&gt;greater&lt;/font&gt;&lt;/p&gt;" style="text;align=center;verticalAlign=middle;resizable=0;points=[];autosize=1;fontSize=15;fontColor=#000000;fontStyle=1;fontFamily=Verdana;html=1;labelPosition=center;verticalLabelPosition=middle;spacing=0;" parent="1" vertex="1"><mxGeometry x="273.9699999999999" y="20713" width="62" height="53" as="geometry"/></mxCell><mxCell id="1392" value="" style="group" parent="1" vertex="1" connectable="0"><mxGeometry x="128.99703904079072" y="21066" width="26.6068742993711" height="59.527027027026634" as="geometry"/></mxCell><mxCell id="1393" value="" style="shape=flexArrow;endArrow=classic;html=1;shadow=0;strokeColor=#1A1A1A;fontFamily=Helvetica;fontSize=13;fontColor=#1A1A1A;endWidth=27.142857142857146;endSize=7.775;width=17.5;sketch=1;" parent="1392" edge="1"><mxGeometry x="-8.887039040790654" width="50" height="50" as="geometry"><mxPoint x="13.970103816352207" y="59" as="sourcePoint"/><mxPoint x="13.970103816352207" as="targetPoint"/></mxGeometry></mxCell><mxCell id="1394" value="swap" style="text;html=1;align=center;verticalAlign=middle;resizable=0;points=[];autosize=1;fontSize=13;fontFamily=Helvetica;fontColor=#1A1A1A;fontStyle=1;rotation=1;horizontal=0;" parent="1392" vertex="1"><mxGeometry x="0.3034371496855499" y="22.527027027026634" width="26" height="37" as="geometry"/></mxCell><mxCell id="1395" value="" style="group;direction=east;rotation=0;fillColor=#fff2cc;strokeColor=#d6b656;sketch=1;shadow=0;" parent="1" vertex="1" connectable="0"><mxGeometry x="262.7900000000001" y="21220" width="50" height="70" as="geometry"/></mxCell><mxCell id="1396" value="3" style="rounded=0;whiteSpace=wrap;html=1;sketch=1;fillColor=#fff2cc;strokeColor=#d6b656;fontSize=20;fontStyle=1;direction=east;rotation=0;shadow=0;fontColor=#1A1A1A;" parent="1395" vertex="1"><mxGeometry width="49.999999999999986" height="70" as="geometry"/></mxCell><mxCell id="1397" value="" style="group;direction=east;rotation=0;fillColor=#f5f5f5;strokeColor=#666666;sketch=1;shadow=0;fontColor=#333333;opacity=30;textOpacity=30;" parent="1" vertex="1" connectable="0"><mxGeometry x="333.52000000000004" y="21210" width="50" height="80" as="geometry"/></mxCell><mxCell id="1398" value="4" style="rounded=0;whiteSpace=wrap;html=1;sketch=1;fillColor=#f5f5f5;strokeColor=#666666;fontSize=20;fontStyle=1;direction=east;rotation=0;shadow=0;fontColor=#333333;opacity=30;textOpacity=30;" parent="1397" vertex="1"><mxGeometry width="49.999999999999986" height="80" as="geometry"/></mxCell><mxCell id="1399" value="" style="group;direction=east;rotation=0;fillColor=#f5f5f5;strokeColor=#666666;fontColor=#333333;sketch=1;shadow=0;opacity=30;textOpacity=30;" parent="1" vertex="1" connectable="0"><mxGeometry x="473.81000000000006" y="21180" width="50" height="110" as="geometry"/></mxCell><mxCell id="1400" value="7" style="rounded=0;whiteSpace=wrap;html=1;sketch=1;fillColor=#f5f5f5;strokeColor=#666666;fontSize=20;fontStyle=1;direction=east;rotation=0;fontColor=#333333;shadow=0;opacity=30;textOpacity=30;" parent="1399" vertex="1"><mxGeometry width="49.999999999999986" height="110.00000000000001" as="geometry"/></mxCell><mxCell id="1401" value="" style="group;direction=east;rotation=0;fillColor=#fff2cc;strokeColor=#d6b656;sketch=1;shadow=0;" parent="1" vertex="1" connectable="0"><mxGeometry x="121.84" y="21250" width="50" height="40" as="geometry"/></mxCell><mxCell id="1402" value="1" style="rounded=0;whiteSpace=wrap;html=1;sketch=1;fillColor=#fff2cc;strokeColor=#d6b656;fontSize=20;fontStyle=1;direction=east;rotation=0;shadow=0;fontColor=#1A1A1A;" parent="1401" vertex="1"><mxGeometry width="49.999999999999986" height="40" as="geometry"/></mxCell><mxCell id="1403" value="" style="group;direction=east;rotation=0;fillColor=#f5f5f5;strokeColor=#666666;fontColor=#333333;sketch=1;shadow=0;opacity=30;textOpacity=30;" parent="1" vertex="1" connectable="0"><mxGeometry x="403.7900000000001" y="21190" width="50" height="100" as="geometry"/></mxCell><mxCell id="1404" value="6" style="rounded=0;whiteSpace=wrap;html=1;sketch=1;fillColor=#f5f5f5;strokeColor=#666666;fontSize=20;fontStyle=1;direction=east;rotation=0;fontColor=#333333;shadow=0;opacity=30;textOpacity=30;" parent="1403" vertex="1"><mxGeometry width="49.999999999999986" height="100" as="geometry"/></mxCell><mxCell id="1405" value="2" style="rounded=0;whiteSpace=wrap;html=1;sketch=1;fillColor=#f8cecc;strokeColor=#b85450;fontSize=20;fontStyle=1;direction=east;rotation=0;shadow=0;fontColor=#000000;" parent="1" vertex="1"><mxGeometry x="192.84" y="21230" width="49.999999999999986" height="60" as="geometry"/></mxCell><mxCell id="1406" value="5" style="rounded=0;whiteSpace=wrap;html=1;sketch=1;fillColor=#f5f5f5;strokeColor=#666666;fontSize=20;fontStyle=1;direction=east;rotation=0;fontColor=#333333;shadow=0;opacity=30;textOpacity=30;" parent="1" vertex="1"><mxGeometry x="543.6300000000001" y="21200" width="49.999999999999986" height="90" as="geometry"/></mxCell><mxCell id="1407" value="" style="group" parent="1" vertex="1" connectable="0"><mxGeometry x="204.83703904079073" y="21303" width="26.6068742993711" height="59.527027027026634" as="geometry"/></mxCell><mxCell id="1408" value="" style="shape=flexArrow;endArrow=classic;html=1;shadow=0;strokeColor=#1A1A1A;fontFamily=Helvetica;fontSize=13;fontColor=#1A1A1A;endWidth=27.142857142857146;endSize=7.775;width=17.5;sketch=1;" parent="1407" edge="1"><mxGeometry x="-8.887039040790654" width="50" height="50" as="geometry"><mxPoint x="13.970103816352207" y="59" as="sourcePoint"/><mxPoint x="13.970103816352207" as="targetPoint"/></mxGeometry></mxCell><mxCell id="1409" value="pivot" style="text;html=1;align=center;verticalAlign=middle;resizable=0;points=[];autosize=1;fontSize=13;fontFamily=Helvetica;fontColor=#1A1A1A;fontStyle=1;rotation=1;horizontal=0;" parent="1407" vertex="1"><mxGeometry x="0.3034371496855499" y="23.527027027026634" width="26" height="35" as="geometry"/></mxCell><mxCell id="1416" value="" style="shape=curlyBracket;whiteSpace=wrap;html=1;rounded=1;rotation=-90;strokeColor=#000000;sketch=1;" parent="1" vertex="1"><mxGeometry x="138.73" y="21286" width="20" height="57" as="geometry"/></mxCell><mxCell id="1417" value="" style="shape=curlyBracket;whiteSpace=wrap;html=1;rounded=1;rotation=-90;strokeColor=#000000;sketch=1;size=0.5;" parent="1" vertex="1"><mxGeometry x="280.33000000000004" y="21279.5" width="20" height="59.5" as="geometry"/></mxCell><mxCell id="1418" style="edgeStyle=orthogonalEdgeStyle;rounded=0;sketch=1;orthogonalLoop=1;jettySize=auto;html=1;entryX=0.5;entryY=0;entryDx=0;entryDy=0;strokeColor=#000000;strokeWidth=2;fontFamily=Courier New;fontColor=#000000;" parent="1" source="1419" target="1423" edge="1"><mxGeometry relative="1" as="geometry"/></mxCell><mxCell id="1419" value="&lt;font color=&quot;#000000&quot; style=&quot;font-size: 16px&quot;&gt;quickSort(array, 0, pivotIndex - 1)&lt;/font&gt;" style="text;html=1;strokeColor=none;fillColor=none;align=center;verticalAlign=middle;whiteSpace=wrap;rounded=0;sketch=1;fontFamily=Courier New;fontStyle=0" parent="1" vertex="1"><mxGeometry x="-171.39999999999998" y="21339" width="359" height="20" as="geometry"/></mxCell><mxCell id="1420" style="edgeStyle=orthogonalEdgeStyle;rounded=0;sketch=1;orthogonalLoop=1;jettySize=auto;html=1;entryX=0.5;entryY=0;entryDx=0;entryDy=0;strokeColor=#000000;strokeWidth=2;fontFamily=Courier New;fontColor=#000000;" parent="1" source="1421" target="1424" edge="1"><mxGeometry relative="1" as="geometry"/></mxCell><mxCell id="1421" value="&lt;font color=&quot;#000000&quot; style=&quot;font-size: 16px&quot;&gt;quickSort(array,&amp;nbsp;&lt;/font&gt;&lt;span style=&quot;color: rgb(0 , 0 , 0) ; font-size: 16px&quot;&gt;pivotIndex + 1&lt;/span&gt;&lt;font color=&quot;#000000&quot; style=&quot;font-size: 16px&quot;&gt;, 2)&lt;/font&gt;" style="text;html=1;strokeColor=none;fillColor=none;align=center;verticalAlign=middle;whiteSpace=wrap;rounded=0;sketch=1;fontFamily=Courier New;fontStyle=0" parent="1" vertex="1"><mxGeometry x="322.47999999999996" y="21303" width="359" height="20" as="geometry"/></mxCell><mxCell id="1422" value="&lt;span style=&quot;color: rgb(0 , 0 , 0) ; font-size: 16px&quot;&gt;pivotIndex = 1&lt;/span&gt;" style="text;html=1;strokeColor=none;fillColor=none;align=center;verticalAlign=middle;whiteSpace=wrap;rounded=0;sketch=1;fontFamily=Courier New;fontStyle=0;rotation=-60;" parent="1" vertex="1"><mxGeometry x="122.75999999999999" y="21428" width="157.98" height="20" as="geometry"/></mxCell><mxCell id="1423" value="&lt;font color=&quot;#000000&quot; style=&quot;font-size: 16px&quot;&gt;quickSort(array, 0, &lt;b&gt;0&lt;/b&gt;)&lt;/font&gt;" style="text;html=1;strokeColor=none;fillColor=none;align=center;verticalAlign=middle;whiteSpace=wrap;rounded=0;sketch=1;fontFamily=Courier New;fontStyle=0" parent="1" vertex="1"><mxGeometry x="-171.92" y="21384" width="359" height="20" as="geometry"/></mxCell><mxCell id="1424" value="&lt;font color=&quot;#000000&quot; style=&quot;font-size: 16px&quot;&gt;quickSort(array, &lt;b&gt;2&lt;/b&gt;&lt;/font&gt;&lt;font color=&quot;#000000&quot; style=&quot;font-size: 16px&quot;&gt;, 2)&lt;/font&gt;" style="text;html=1;strokeColor=none;fillColor=none;align=center;verticalAlign=middle;whiteSpace=wrap;rounded=0;sketch=1;fontFamily=Courier New;fontStyle=0" parent="1" vertex="1"><mxGeometry x="322.59" y="21348" width="359" height="20" as="geometry"/></mxCell><mxCell id="1425" value="" style="group;direction=east;rotation=0;fillColor=#f5f5f5;strokeColor=#666666;sketch=1;shadow=0;fontColor=#333333;opacity=30;textOpacity=30;" parent="1" vertex="1" connectable="0"><mxGeometry x="261.88000000000005" y="21608" width="50" height="70" as="geometry"/></mxCell><mxCell id="1426" value="3" style="rounded=0;whiteSpace=wrap;html=1;sketch=1;fillColor=#f5f5f5;strokeColor=#666666;fontSize=20;fontStyle=1;direction=east;rotation=0;shadow=0;fontColor=#333333;textOpacity=30;opacity=30;" parent="1425" vertex="1"><mxGeometry width="49.999999999999986" height="70" as="geometry"/></mxCell><mxCell id="1427" value="" style="group;direction=east;rotation=0;fillColor=#f5f5f5;strokeColor=#666666;sketch=1;shadow=0;fontColor=#333333;opacity=30;textOpacity=30;" parent="1" vertex="1" connectable="0"><mxGeometry x="332.61" y="21598" width="50" height="80" as="geometry"/></mxCell><mxCell id="1428" value="4" style="rounded=0;whiteSpace=wrap;html=1;sketch=1;fillColor=#f5f5f5;strokeColor=#666666;fontSize=20;fontStyle=1;direction=east;rotation=0;shadow=0;fontColor=#333333;opacity=30;textOpacity=30;" parent="1427" vertex="1"><mxGeometry width="49.999999999999986" height="80" as="geometry"/></mxCell><mxCell id="1429" value="" style="group;direction=east;rotation=0;fillColor=#f5f5f5;strokeColor=#666666;sketch=1;shadow=0;fontColor=#333333;" parent="1" vertex="1" connectable="0"><mxGeometry x="472.90000000000003" y="21568" width="50" height="110" as="geometry"/></mxCell><mxCell id="1430" value="7" style="rounded=0;whiteSpace=wrap;html=1;sketch=1;fillColor=#f5f5f5;strokeColor=#666666;fontSize=20;fontStyle=1;direction=east;rotation=0;shadow=0;fontColor=#333333;" parent="1429" vertex="1"><mxGeometry width="49.999999999999986" height="110.00000000000001" as="geometry"/></mxCell><mxCell id="1431" value="" style="group;direction=east;rotation=0;fillColor=#f5f5f5;strokeColor=#666666;sketch=1;shadow=0;fontColor=#333333;opacity=30;textOpacity=30;" parent="1" vertex="1" connectable="0"><mxGeometry x="120" y="21638" width="50" height="40" as="geometry"/></mxCell><mxCell id="1432" value="1" style="rounded=0;whiteSpace=wrap;html=1;sketch=1;fillColor=#f5f5f5;strokeColor=#666666;fontSize=20;fontStyle=1;direction=east;rotation=0;shadow=0;fontColor=#333333;opacity=30;textOpacity=30;" parent="1431" vertex="1"><mxGeometry width="49.999999999999986" height="40" as="geometry"/></mxCell><mxCell id="1433" value="" style="group;direction=east;rotation=0;fillColor=#f8cecc;strokeColor=#b85450;sketch=1;shadow=0;fontColor=#000000;" parent="1" vertex="1" connectable="0"><mxGeometry x="402.88000000000005" y="21578" width="50" height="100" as="geometry"/></mxCell><mxCell id="1434" value="6" style="rounded=0;whiteSpace=wrap;html=1;sketch=1;fillColor=#f8cecc;strokeColor=#b85450;fontSize=20;fontStyle=1;direction=east;rotation=0;shadow=0;fontColor=#000000;" parent="1433" vertex="1"><mxGeometry width="49.999999999999986" height="100" as="geometry"/></mxCell><mxCell id="1435" value="2" style="rounded=0;whiteSpace=wrap;html=1;sketch=1;fillColor=#f5f5f5;strokeColor=#666666;fontSize=20;fontStyle=1;direction=east;rotation=0;shadow=0;fontColor=#333333;opacity=30;textOpacity=30;" parent="1" vertex="1"><mxGeometry x="191" y="21618" width="49.999999999999986" height="60" as="geometry"/></mxCell><mxCell id="1436" value="5" style="rounded=0;whiteSpace=wrap;html=1;sketch=1;fillColor=#fff2cc;strokeColor=#d6b656;fontSize=20;fontStyle=1;direction=east;rotation=0;shadow=0;fontColor=#000000;" parent="1" vertex="1"><mxGeometry x="542.72" y="21588" width="49.999999999999986" height="90" as="geometry"/></mxCell><mxCell id="1437" value="" style="group" parent="1" vertex="1" connectable="0"><mxGeometry x="400.9970390407907" y="21693" width="57.6068742993711" height="59.527027027026634" as="geometry"/></mxCell><mxCell id="1438" value="" style="shape=flexArrow;endArrow=classic;html=1;shadow=0;strokeColor=#1A1A1A;fontFamily=Helvetica;fontSize=13;fontColor=#1A1A1A;endWidth=27.142857142857146;endSize=7.775;width=17.5;sketch=1;" parent="1437" edge="1"><mxGeometry x="-8.887039040790654" width="50" height="50" as="geometry"><mxPoint x="13.970103816352207" y="59" as="sourcePoint"/><mxPoint x="13.970103816352207" as="targetPoint"/></mxGeometry></mxCell><mxCell id="1439" value="pivot" style="text;html=1;align=center;verticalAlign=middle;resizable=0;points=[];autosize=1;fontSize=13;fontFamily=Helvetica;fontColor=#1A1A1A;fontStyle=1;rotation=1;horizontal=0;" parent="1437" vertex="1"><mxGeometry x="0.3034371496855499" y="23.527027027026634" width="26" height="35" as="geometry"/></mxCell><mxCell id="1442" value="" style="group" parent="1437" vertex="1" connectable="0"><mxGeometry x="31" width="26.6068742993711" height="59.527027027026634" as="geometry"/></mxCell><mxCell id="1443" value="" style="shape=flexArrow;endArrow=classic;html=1;shadow=0;strokeColor=#1A1A1A;fontFamily=Helvetica;fontSize=13;fontColor=#1A1A1A;endWidth=27.142857142857146;endSize=7.775;width=17.5;sketch=1;" parent="1442" edge="1"><mxGeometry x="-8.887039040790654" width="50" height="50" as="geometry"><mxPoint x="13.970103816352207" y="59" as="sourcePoint"/><mxPoint x="13.970103816352207" as="targetPoint"/></mxGeometry></mxCell><mxCell id="1444" value="swap" style="text;html=1;align=center;verticalAlign=middle;resizable=0;points=[];autosize=1;fontSize=13;fontFamily=Helvetica;fontColor=#1A1A1A;fontStyle=1;rotation=1;horizontal=0;" parent="1442" vertex="1"><mxGeometry x="0.3034371496855499" y="22.527027027026634" width="26" height="37" as="geometry"/></mxCell><mxCell id="1440" value="&lt;p&gt;&lt;font face=&quot;Helvetica&quot;&gt;smaller&lt;/font&gt;&lt;/p&gt;" style="text;align=center;verticalAlign=middle;resizable=0;points=[];autosize=1;fontSize=15;fontColor=#000000;fontStyle=1;fontFamily=Verdana;html=1;labelPosition=center;verticalLabelPosition=middle;spacing=0;" parent="1" vertex="1"><mxGeometry x="538.1299999999999" y="21545" width="61" height="53" as="geometry"/></mxCell><mxCell id="1441" value="&lt;p&gt;&lt;font face=&quot;Helvetica&quot;&gt;greater&lt;/font&gt;&lt;/p&gt;" style="text;align=center;verticalAlign=middle;resizable=0;points=[];autosize=1;fontSize=15;fontColor=#000000;fontStyle=1;fontFamily=Verdana;html=1;labelPosition=center;verticalLabelPosition=middle;spacing=0;" parent="1" vertex="1"><mxGeometry x="468.54999999999995" y="21525" width="62" height="53" as="geometry"/></mxCell><mxCell id="1445" value="" style="group" parent="1" vertex="1" connectable="0"><mxGeometry x="554.9770390407907" y="21691" width="27.30343714968555" height="59.527027027026634" as="geometry"/></mxCell><mxCell id="1446" value="" style="shape=flexArrow;endArrow=classic;html=1;shadow=0;strokeColor=#1A1A1A;fontFamily=Helvetica;fontSize=13;fontColor=#1A1A1A;endWidth=27.142857142857146;endSize=7.775;width=17.5;sketch=1;" parent="1445" edge="1"><mxGeometry x="-8.887039040790654" width="50" height="50" as="geometry"><mxPoint x="13.970103816352207" y="59" as="sourcePoint"/><mxPoint x="13.970103816352207" as="targetPoint"/></mxGeometry></mxCell><mxCell id="1447" value="&lt;font style=&quot;font-size: 19px&quot;&gt;i&lt;/font&gt;" style="text;html=1;align=center;verticalAlign=middle;resizable=0;points=[];autosize=1;fontSize=13;fontFamily=Helvetica;fontColor=#1A1A1A;fontStyle=1;rotation=90;horizontal=0;" parent="1445" vertex="1"><mxGeometry x="0.3034371496855499" y="37.527027027026634" width="28" height="9" as="geometry"/></mxCell><mxCell id="1448" value="" style="group;direction=east;rotation=0;fillColor=#f5f5f5;strokeColor=#666666;sketch=1;shadow=0;fontColor=#333333;opacity=30;textOpacity=30;" parent="1" vertex="1" connectable="0"><mxGeometry x="265.5400000000001" y="21878" width="50" height="70" as="geometry"/></mxCell><mxCell id="1449" value="3" style="rounded=0;whiteSpace=wrap;html=1;sketch=1;fillColor=#f5f5f5;strokeColor=#666666;fontSize=20;fontStyle=1;direction=east;rotation=0;shadow=0;fontColor=#333333;textOpacity=30;opacity=30;" parent="1448" vertex="1"><mxGeometry width="49.999999999999986" height="70" as="geometry"/></mxCell><mxCell id="1450" value="" style="group;direction=east;rotation=0;fillColor=#f5f5f5;strokeColor=#666666;sketch=1;shadow=0;fontColor=#333333;opacity=30;textOpacity=30;" parent="1" vertex="1" connectable="0"><mxGeometry x="336.27000000000004" y="21868" width="50" height="80" as="geometry"/></mxCell><mxCell id="1451" value="4" style="rounded=0;whiteSpace=wrap;html=1;sketch=1;fillColor=#f5f5f5;strokeColor=#666666;fontSize=20;fontStyle=1;direction=east;rotation=0;shadow=0;fontColor=#333333;opacity=30;textOpacity=30;" parent="1450" vertex="1"><mxGeometry width="49.999999999999986" height="80" as="geometry"/></mxCell><mxCell id="1452" value="" style="group;direction=east;rotation=0;fillColor=#f5f5f5;strokeColor=#666666;sketch=1;shadow=0;fontColor=#333333;" parent="1" vertex="1" connectable="0"><mxGeometry x="476.56000000000006" y="21838" width="50" height="110" as="geometry"/></mxCell><mxCell id="1453" value="7" style="rounded=0;whiteSpace=wrap;html=1;sketch=1;fillColor=#f5f5f5;strokeColor=#666666;fontSize=20;fontStyle=1;direction=east;rotation=0;shadow=0;fontColor=#333333;" parent="1452" vertex="1"><mxGeometry width="49.999999999999986" height="110.00000000000001" as="geometry"/></mxCell><mxCell id="1454" value="" style="group;direction=east;rotation=0;fillColor=#f5f5f5;strokeColor=#666666;sketch=1;shadow=0;fontColor=#333333;opacity=30;textOpacity=30;" parent="1" vertex="1" connectable="0"><mxGeometry x="124" y="21908" width="50" height="40" as="geometry"/></mxCell><mxCell id="1455" value="1" style="rounded=0;whiteSpace=wrap;html=1;sketch=1;fillColor=#f5f5f5;strokeColor=#666666;fontSize=20;fontStyle=1;direction=east;rotation=0;shadow=0;fontColor=#333333;opacity=30;textOpacity=30;" parent="1454" vertex="1"><mxGeometry width="49.999999999999986" height="40" as="geometry"/></mxCell><mxCell id="1456" value="" style="group;direction=east;rotation=0;fillColor=#f8cecc;strokeColor=#b85450;sketch=1;shadow=0;fontColor=#000000;" parent="1" vertex="1" connectable="0"><mxGeometry x="406.5400000000001" y="21848" width="50" height="100" as="geometry"/></mxCell><mxCell id="1457" value="6" style="rounded=0;whiteSpace=wrap;html=1;sketch=1;fillColor=#f8cecc;strokeColor=#b85450;fontSize=20;fontStyle=1;direction=east;rotation=0;shadow=0;fontColor=#000000;" parent="1456" vertex="1"><mxGeometry width="49.999999999999986" height="100" as="geometry"/></mxCell><mxCell id="1458" value="2" style="rounded=0;whiteSpace=wrap;html=1;sketch=1;fillColor=#f5f5f5;strokeColor=#666666;fontSize=20;fontStyle=1;direction=east;rotation=0;shadow=0;fontColor=#333333;opacity=30;textOpacity=30;" parent="1" vertex="1"><mxGeometry x="195" y="21888" width="49.999999999999986" height="60" as="geometry"/></mxCell><mxCell id="1459" value="5" style="rounded=0;whiteSpace=wrap;html=1;sketch=1;fillColor=#fff2cc;strokeColor=#d6b656;fontSize=20;fontStyle=1;direction=east;rotation=0;shadow=0;fontColor=#000000;" parent="1" vertex="1"><mxGeometry x="546.38" y="21858" width="49.999999999999986" height="90" as="geometry"/></mxCell><mxCell id="1466" value="&lt;p&gt;&lt;font face=&quot;Helvetica&quot;&gt;smaller&lt;/font&gt;&lt;/p&gt;" style="text;align=center;verticalAlign=middle;resizable=0;points=[];autosize=1;fontSize=15;fontColor=#000000;fontStyle=1;fontFamily=Verdana;html=1;labelPosition=center;verticalLabelPosition=middle;spacing=0;" parent="1" vertex="1"><mxGeometry x="541.7899999999998" y="21815" width="61" height="53" as="geometry"/></mxCell><mxCell id="1467" value="" style="group" parent="1" vertex="1" connectable="0"><mxGeometry x="558.6370390407907" y="21961" width="27.30343714968555" height="59.527027027026634" as="geometry"/></mxCell><mxCell id="1468" value="" style="shape=flexArrow;endArrow=classic;html=1;shadow=0;strokeColor=#1A1A1A;fontFamily=Helvetica;fontSize=13;fontColor=#1A1A1A;endWidth=27.142857142857146;endSize=7.775;width=17.5;sketch=1;" parent="1467" edge="1"><mxGeometry x="-8.887039040790654" width="50" height="50" as="geometry"><mxPoint x="13.970103816352207" y="59" as="sourcePoint"/><mxPoint x="13.970103816352207" as="targetPoint"/></mxGeometry></mxCell><mxCell id="1469" value="&lt;font style=&quot;font-size: 19px&quot;&gt;i&lt;/font&gt;" style="text;html=1;align=center;verticalAlign=middle;resizable=0;points=[];autosize=1;fontSize=13;fontFamily=Helvetica;fontColor=#1A1A1A;fontStyle=1;rotation=90;horizontal=0;" parent="1467" vertex="1"><mxGeometry x="0.3034371496855499" y="37.527027027026634" width="28" height="9" as="geometry"/></mxCell><mxCell id="1470" value="&lt;p&gt;&lt;font face=&quot;Helvetica&quot;&gt;greater&lt;/font&gt;&lt;/p&gt;" style="text;align=center;verticalAlign=middle;resizable=0;points=[];autosize=1;fontSize=15;fontColor=#000000;fontStyle=1;fontFamily=Verdana;html=1;labelPosition=center;verticalLabelPosition=middle;spacing=0;" parent="1" vertex="1"><mxGeometry x="470.55999999999995" y="21795" width="62" height="53" as="geometry"/></mxCell><mxCell id="1461" value="" style="shape=flexArrow;endArrow=classic;html=1;shadow=0;strokeColor=#1A1A1A;fontFamily=Helvetica;fontSize=13;fontColor=#1A1A1A;endWidth=27.142857142857146;endSize=7.775;width=17.5;sketch=1;" parent="1" edge="1"><mxGeometry x="409.77000000000004" y="21961.53" width="50" height="50" as="geometry"><mxPoint x="432.6271428571429" y="22020.53" as="sourcePoint"/><mxPoint x="432.6271428571429" y="21961.53" as="targetPoint"/></mxGeometry></mxCell><mxCell id="1462" value="pivot" style="text;html=1;align=center;verticalAlign=middle;resizable=0;points=[];autosize=1;fontSize=13;fontFamily=Helvetica;fontColor=#1A1A1A;fontStyle=1;rotation=1;horizontal=0;" parent="1" vertex="1"><mxGeometry x="418.9604761904763" y="21985.057027027025" width="26" height="35" as="geometry"/></mxCell><mxCell id="1471" value="" style="group" parent="1" vertex="1" connectable="0"><mxGeometry x="487.5470390407907" y="21961" width="26.6068742993711" height="59.527027027026634" as="geometry"/></mxCell><mxCell id="1463" value="" style="group" parent="1471" vertex="1" connectable="0"><mxGeometry width="26.6068742993711" height="59.527027027026634" as="geometry"/></mxCell><mxCell id="1464" value="" style="shape=flexArrow;endArrow=classic;html=1;shadow=0;strokeColor=#1A1A1A;fontFamily=Helvetica;fontSize=13;fontColor=#1A1A1A;endWidth=27.142857142857146;endSize=7.775;width=17.5;sketch=1;" parent="1463" edge="1"><mxGeometry x="-8.887039040790654" width="50" height="50" as="geometry"><mxPoint x="13.970103816352207" y="59" as="sourcePoint"/><mxPoint x="13.970103816352207" as="targetPoint"/></mxGeometry></mxCell><mxCell id="1465" value="swap" style="text;html=1;align=center;verticalAlign=middle;resizable=0;points=[];autosize=1;fontSize=13;fontFamily=Helvetica;fontColor=#1A1A1A;fontStyle=1;rotation=1;horizontal=0;" parent="1463" vertex="1"><mxGeometry x="0.3034371496855499" y="22.527027027026634" width="26" height="37" as="geometry"/></mxCell><mxCell id="1472" value="" style="group;direction=east;rotation=0;fillColor=#f5f5f5;strokeColor=#666666;sketch=1;shadow=0;fontColor=#333333;opacity=30;textOpacity=30;" parent="1" vertex="1" connectable="0"><mxGeometry x="265.5400000000001" y="22125" width="50" height="70" as="geometry"/></mxCell><mxCell id="1473" value="3" style="rounded=0;whiteSpace=wrap;html=1;sketch=1;fillColor=#f5f5f5;strokeColor=#666666;fontSize=20;fontStyle=1;direction=east;rotation=0;shadow=0;fontColor=#333333;textOpacity=30;opacity=30;" parent="1472" vertex="1"><mxGeometry width="49.999999999999986" height="70" as="geometry"/></mxCell><mxCell id="1474" value="" style="group;direction=east;rotation=0;fillColor=#f5f5f5;strokeColor=#666666;sketch=1;shadow=0;fontColor=#333333;opacity=30;textOpacity=30;" parent="1" vertex="1" connectable="0"><mxGeometry x="336.27000000000004" y="22115" width="50" height="80" as="geometry"/></mxCell><mxCell id="1475" value="4" style="rounded=0;whiteSpace=wrap;html=1;sketch=1;fillColor=#f5f5f5;strokeColor=#666666;fontSize=20;fontStyle=1;direction=east;rotation=0;shadow=0;fontColor=#333333;opacity=30;textOpacity=30;" parent="1474" vertex="1"><mxGeometry width="49.999999999999986" height="80" as="geometry"/></mxCell><mxCell id="1476" value="" style="group;direction=east;rotation=0;fillColor=#f5f5f5;strokeColor=#666666;sketch=1;shadow=0;fontColor=#333333;" parent="1" vertex="1" connectable="0"><mxGeometry x="546" y="22085" width="50" height="110" as="geometry"/></mxCell><mxCell id="1477" value="7" style="rounded=0;whiteSpace=wrap;html=1;sketch=1;fillColor=#f5f5f5;strokeColor=#666666;fontSize=20;fontStyle=1;direction=east;rotation=0;shadow=0;fontColor=#333333;" parent="1476" vertex="1"><mxGeometry width="49.999999999999986" height="110.00000000000001" as="geometry"/></mxCell><mxCell id="1478" value="" style="group;direction=east;rotation=0;fillColor=#f5f5f5;strokeColor=#666666;sketch=1;shadow=0;fontColor=#333333;opacity=30;textOpacity=30;" parent="1" vertex="1" connectable="0"><mxGeometry x="124" y="22155" width="50" height="40" as="geometry"/></mxCell><mxCell id="1479" value="1" style="rounded=0;whiteSpace=wrap;html=1;sketch=1;fillColor=#f5f5f5;strokeColor=#666666;fontSize=20;fontStyle=1;direction=east;rotation=0;shadow=0;fontColor=#333333;opacity=30;textOpacity=30;" parent="1478" vertex="1"><mxGeometry width="49.999999999999986" height="40" as="geometry"/></mxCell><mxCell id="1480" value="" style="group;direction=east;rotation=0;fillColor=#f8cecc;strokeColor=#b85450;sketch=1;shadow=0;fontColor=#000000;" parent="1" vertex="1" connectable="0"><mxGeometry x="406.5400000000001" y="22095" width="50" height="100" as="geometry"/></mxCell><mxCell id="1481" value="6" style="rounded=0;whiteSpace=wrap;html=1;sketch=1;fillColor=#f8cecc;strokeColor=#b85450;fontSize=20;fontStyle=1;direction=east;rotation=0;shadow=0;fontColor=#000000;" parent="1480" vertex="1"><mxGeometry width="49.999999999999986" height="100" as="geometry"/></mxCell><mxCell id="1482" value="2" style="rounded=0;whiteSpace=wrap;html=1;sketch=1;fillColor=#f5f5f5;strokeColor=#666666;fontSize=20;fontStyle=1;direction=east;rotation=0;shadow=0;fontColor=#333333;opacity=30;textOpacity=30;" parent="1" vertex="1"><mxGeometry x="195" y="22135" width="49.999999999999986" height="60" as="geometry"/></mxCell><mxCell id="1483" value="5" style="rounded=0;whiteSpace=wrap;html=1;sketch=1;fillColor=#fff2cc;strokeColor=#d6b656;fontSize=20;fontStyle=1;direction=east;rotation=0;shadow=0;fontColor=#000000;" parent="1" vertex="1"><mxGeometry x="476" y="22105" width="49.999999999999986" height="90" as="geometry"/></mxCell><mxCell id="1484" value="&lt;p&gt;&lt;font face=&quot;Helvetica&quot;&gt;smaller&lt;/font&gt;&lt;/p&gt;" style="text;align=center;verticalAlign=middle;resizable=0;points=[];autosize=1;fontSize=15;fontColor=#000000;fontStyle=1;fontFamily=Verdana;html=1;labelPosition=center;verticalLabelPosition=middle;spacing=0;" parent="1" vertex="1"><mxGeometry x="470.71999999999986" y="22062" width="61" height="53" as="geometry"/></mxCell><mxCell id="1485" value="" style="group" parent="1" vertex="1" connectable="0"><mxGeometry x="558.6370390407907" y="22208" width="27.30343714968555" height="59.527027027026634" as="geometry"/></mxCell><mxCell id="1486" value="" style="shape=flexArrow;endArrow=classic;html=1;shadow=0;strokeColor=#1A1A1A;fontFamily=Helvetica;fontSize=13;fontColor=#1A1A1A;endWidth=27.142857142857146;endSize=7.775;width=17.5;sketch=1;" parent="1485" edge="1"><mxGeometry x="-8.887039040790654" width="50" height="50" as="geometry"><mxPoint x="13.970103816352207" y="59" as="sourcePoint"/><mxPoint x="13.970103816352207" as="targetPoint"/></mxGeometry></mxCell><mxCell id="1487" value="&lt;font style=&quot;font-size: 19px&quot;&gt;i&lt;/font&gt;" style="text;html=1;align=center;verticalAlign=middle;resizable=0;points=[];autosize=1;fontSize=13;fontFamily=Helvetica;fontColor=#1A1A1A;fontStyle=1;rotation=90;horizontal=0;" parent="1485" vertex="1"><mxGeometry x="0.3034371496855499" y="37.527027027026634" width="28" height="9" as="geometry"/></mxCell><mxCell id="1488" value="&lt;p&gt;&lt;font face=&quot;Helvetica&quot;&gt;greater&lt;/font&gt;&lt;/p&gt;" style="text;align=center;verticalAlign=middle;resizable=0;points=[];autosize=1;fontSize=15;fontColor=#000000;fontStyle=1;fontFamily=Verdana;html=1;labelPosition=center;verticalLabelPosition=middle;spacing=0;" parent="1" vertex="1"><mxGeometry x="538.9699999999999" y="22042" width="62" height="53" as="geometry"/></mxCell><mxCell id="1489" value="" style="shape=flexArrow;endArrow=classic;html=1;shadow=0;strokeColor=#1A1A1A;fontFamily=Helvetica;fontSize=13;fontColor=#1A1A1A;endWidth=27.142857142857146;endSize=7.775;width=17.5;sketch=1;" parent="1" edge="1"><mxGeometry x="409.77000000000004" y="22208.53" width="50" height="50" as="geometry"><mxPoint x="432.62714285714287" y="22267.53" as="sourcePoint"/><mxPoint x="432.62714285714287" y="22208.53" as="targetPoint"/></mxGeometry></mxCell><mxCell id="1490" value="pivot" style="text;html=1;align=center;verticalAlign=middle;resizable=0;points=[];autosize=1;fontSize=13;fontFamily=Helvetica;fontColor=#1A1A1A;fontStyle=1;rotation=1;horizontal=0;" parent="1" vertex="1"><mxGeometry x="418.9604761904763" y="22232.057027027025" width="26" height="35" as="geometry"/></mxCell><mxCell id="1491" value="" style="group" parent="1" vertex="1" connectable="0"><mxGeometry x="487.5470390407907" y="22208" width="26.6068742993711" height="59.527027027026634" as="geometry"/></mxCell><mxCell id="1492" value="" style="group" parent="1491" vertex="1" connectable="0"><mxGeometry width="26.6068742993711" height="59.527027027026634" as="geometry"/></mxCell><mxCell id="1493" value="" style="shape=flexArrow;endArrow=classic;html=1;shadow=0;strokeColor=#1A1A1A;fontFamily=Helvetica;fontSize=13;fontColor=#1A1A1A;endWidth=27.142857142857146;endSize=7.775;width=17.5;sketch=1;" parent="1492" edge="1"><mxGeometry x="-8.887039040790654" width="50" height="50" as="geometry"><mxPoint x="13.970103816352207" y="59" as="sourcePoint"/><mxPoint x="13.970103816352207" as="targetPoint"/></mxGeometry></mxCell><mxCell id="1494" value="swap" style="text;html=1;align=center;verticalAlign=middle;resizable=0;points=[];autosize=1;fontSize=13;fontFamily=Helvetica;fontColor=#1A1A1A;fontStyle=1;rotation=1;horizontal=0;" parent="1492" vertex="1"><mxGeometry x="0.3034371496855499" y="22.527027027026634" width="26" height="37" as="geometry"/></mxCell><mxCell id="1495" value="" style="group;direction=east;rotation=0;fillColor=#f5f5f5;strokeColor=#666666;sketch=1;shadow=0;fontColor=#333333;opacity=30;textOpacity=30;" parent="1" vertex="1" connectable="0"><mxGeometry x="255.48000000000008" y="22369" width="50" height="70" as="geometry"/></mxCell><mxCell id="1496" value="3" style="rounded=0;whiteSpace=wrap;html=1;sketch=1;fillColor=#f5f5f5;strokeColor=#666666;fontSize=20;fontStyle=1;direction=east;rotation=0;shadow=0;fontColor=#333333;textOpacity=30;opacity=30;" parent="1495" vertex="1"><mxGeometry width="49.999999999999986" height="70" as="geometry"/></mxCell><mxCell id="1497" value="" style="group;direction=east;rotation=0;fillColor=#f5f5f5;strokeColor=#666666;sketch=1;shadow=0;fontColor=#333333;opacity=30;textOpacity=30;" parent="1" vertex="1" connectable="0"><mxGeometry x="326.21000000000004" y="22359" width="50" height="80" as="geometry"/></mxCell><mxCell id="1498" value="4" style="rounded=0;whiteSpace=wrap;html=1;sketch=1;fillColor=#f5f5f5;strokeColor=#666666;fontSize=20;fontStyle=1;direction=east;rotation=0;shadow=0;fontColor=#333333;opacity=30;textOpacity=30;" parent="1497" vertex="1"><mxGeometry width="49.999999999999986" height="80" as="geometry"/></mxCell><mxCell id="1499" value="" style="group;direction=east;rotation=0;fillColor=#fff2cc;strokeColor=#d6b656;sketch=1;shadow=0;" parent="1" vertex="1" connectable="0"><mxGeometry x="535.94" y="22329" width="50" height="110" as="geometry"/></mxCell><mxCell id="1500" value="7" style="rounded=0;whiteSpace=wrap;html=1;sketch=1;fillColor=#fff2cc;strokeColor=#d6b656;fontSize=20;fontStyle=1;direction=east;rotation=0;shadow=0;fontColor=#000000;" parent="1499" vertex="1"><mxGeometry width="49.999999999999986" height="110.00000000000001" as="geometry"/></mxCell><mxCell id="1501" value="" style="group;direction=east;rotation=0;fillColor=#f5f5f5;strokeColor=#666666;sketch=1;shadow=0;fontColor=#333333;opacity=30;textOpacity=30;" parent="1" vertex="1" connectable="0"><mxGeometry x="114" y="22399" width="50" height="40" as="geometry"/></mxCell><mxCell id="1502" value="1" style="rounded=0;whiteSpace=wrap;html=1;sketch=1;fillColor=#f5f5f5;strokeColor=#666666;fontSize=20;fontStyle=1;direction=east;rotation=0;shadow=0;fontColor=#333333;opacity=30;textOpacity=30;" parent="1501" vertex="1"><mxGeometry width="49.999999999999986" height="40" as="geometry"/></mxCell><mxCell id="1503" value="" style="group;direction=east;rotation=0;fillColor=#f8cecc;strokeColor=#b85450;sketch=1;shadow=0;fontColor=#000000;" parent="1" vertex="1" connectable="0"><mxGeometry x="465" y="22339" width="50" height="100" as="geometry"/></mxCell><mxCell id="1504" value="6" style="rounded=0;whiteSpace=wrap;html=1;sketch=1;fillColor=#f8cecc;strokeColor=#b85450;fontSize=20;fontStyle=1;direction=east;rotation=0;shadow=0;fontColor=#000000;" parent="1503" vertex="1"><mxGeometry width="49.999999999999986" height="100" as="geometry"/></mxCell><mxCell id="1505" value="2" style="rounded=0;whiteSpace=wrap;html=1;sketch=1;fillColor=#f5f5f5;strokeColor=#666666;fontSize=20;fontStyle=1;direction=east;rotation=0;shadow=0;fontColor=#333333;opacity=30;textOpacity=30;" parent="1" vertex="1"><mxGeometry x="185" y="22379" width="49.999999999999986" height="60" as="geometry"/></mxCell><mxCell id="1506" value="5" style="rounded=0;whiteSpace=wrap;html=1;sketch=1;fillColor=#fff2cc;strokeColor=#d6b656;fontSize=20;fontStyle=1;direction=east;rotation=0;shadow=0;fontColor=#000000;" parent="1" vertex="1"><mxGeometry x="396" y="22349" width="49.999999999999986" height="90" as="geometry"/></mxCell><mxCell id="1511" value="" style="shape=flexArrow;endArrow=classic;html=1;shadow=0;strokeColor=#1A1A1A;fontFamily=Helvetica;fontSize=13;fontColor=#1A1A1A;endWidth=27.142857142857146;endSize=7.775;width=17.5;sketch=1;" parent="1" edge="1"><mxGeometry x="399.71000000000004" y="22452.53" width="50" height="50" as="geometry"><mxPoint x="422.56714285714287" y="22511.53" as="sourcePoint"/><mxPoint x="422.56714285714287" y="22452.53" as="targetPoint"/></mxGeometry></mxCell><mxCell id="1512" value="pivot" style="text;html=1;align=center;verticalAlign=middle;resizable=0;points=[];autosize=1;fontSize=13;fontFamily=Helvetica;fontColor=#1A1A1A;fontStyle=1;rotation=1;horizontal=0;" parent="1" vertex="1"><mxGeometry x="408.9004761904763" y="22476.057027027025" width="26" height="35" as="geometry"/></mxCell><mxCell id="1513" value="" style="group" parent="1" vertex="1" connectable="0"><mxGeometry x="477.4870390407907" y="22452" width="26.6068742993711" height="59.527027027026634" as="geometry"/></mxCell><mxCell id="1514" value="" style="group" parent="1513" vertex="1" connectable="0"><mxGeometry width="26.6068742993711" height="59.527027027026634" as="geometry"/></mxCell><mxCell id="1515" value="" style="shape=flexArrow;endArrow=classic;html=1;shadow=0;strokeColor=#1A1A1A;fontFamily=Helvetica;fontSize=13;fontColor=#1A1A1A;endWidth=27.142857142857146;endSize=7.775;width=17.5;sketch=1;" parent="1514" edge="1"><mxGeometry x="-8.887039040790654" width="50" height="50" as="geometry"><mxPoint x="13.970103816352207" y="59" as="sourcePoint"/><mxPoint x="13.970103816352207" as="targetPoint"/></mxGeometry></mxCell><mxCell id="1516" value="swap" style="text;html=1;align=center;verticalAlign=middle;resizable=0;points=[];autosize=1;fontSize=13;fontFamily=Helvetica;fontColor=#1A1A1A;fontStyle=1;rotation=1;horizontal=0;" parent="1514" vertex="1"><mxGeometry x="0.3034371496855499" y="22.527027027026634" width="26" height="37" as="geometry"/></mxCell><mxCell id="1518" value="" style="group;direction=east;rotation=0;fillColor=#fff2cc;strokeColor=#d6b656;sketch=1;shadow=0;fontColor=#000000;" parent="1" vertex="1" connectable="0"><mxGeometry x="250.14000000000007" y="22603" width="50" height="70" as="geometry"/></mxCell><mxCell id="1519" value="&lt;font&gt;3&lt;/font&gt;" style="rounded=0;whiteSpace=wrap;html=1;sketch=1;fillColor=#fff2cc;strokeColor=#d6b656;fontSize=20;fontStyle=1;direction=east;rotation=0;shadow=0;fontColor=#000000;" parent="1518" vertex="1"><mxGeometry width="49.999999999999986" height="70" as="geometry"/></mxCell><mxCell id="1520" value="" style="group;direction=east;rotation=0;fillColor=#fff2cc;strokeColor=#d6b656;sketch=1;shadow=0;fontColor=#000000;" parent="1" vertex="1" connectable="0"><mxGeometry x="320.87000000000006" y="22593" width="50" height="80" as="geometry"/></mxCell><mxCell id="1521" value="4" style="rounded=0;whiteSpace=wrap;html=1;sketch=1;fillColor=#fff2cc;strokeColor=#d6b656;fontSize=20;fontStyle=1;direction=east;rotation=0;shadow=0;opacity=30;fontColor=#000000;" parent="1520" vertex="1"><mxGeometry width="49.999999999999986" height="80" as="geometry"/></mxCell><mxCell id="1522" value="" style="group;direction=east;rotation=0;fillColor=#fff2cc;strokeColor=#d6b656;sketch=1;shadow=0;fontColor=#000000;" parent="1" vertex="1" connectable="0"><mxGeometry x="530.6" y="22563" width="50" height="110" as="geometry"/></mxCell><mxCell id="1523" value="7" style="rounded=0;whiteSpace=wrap;html=1;sketch=1;fillColor=#fff2cc;strokeColor=#d6b656;fontSize=20;fontStyle=1;direction=east;rotation=0;shadow=0;fontColor=#000000;" parent="1522" vertex="1"><mxGeometry width="49.999999999999986" height="110.00000000000001" as="geometry"/></mxCell><mxCell id="1524" value="" style="group;direction=east;rotation=0;fillColor=#fff2cc;strokeColor=#d6b656;sketch=1;shadow=0;fontColor=#000000;" parent="1" vertex="1" connectable="0"><mxGeometry x="109" y="22633" width="50" height="40" as="geometry"/></mxCell><mxCell id="1525" value="1" style="rounded=0;whiteSpace=wrap;html=1;sketch=1;fillColor=#fff2cc;strokeColor=#d6b656;fontSize=20;fontStyle=1;direction=east;rotation=0;shadow=0;fontColor=#000000;" parent="1524" vertex="1"><mxGeometry width="49.999999999999986" height="40" as="geometry"/></mxCell><mxCell id="1526" value="" style="group;direction=east;rotation=0;fillColor=#fff2cc;strokeColor=#d6b656;sketch=1;shadow=0;fontColor=#000000;" parent="1" vertex="1" connectable="0"><mxGeometry x="459.66" y="22573" width="50" height="100" as="geometry"/></mxCell><mxCell id="1527" value="6" style="rounded=0;whiteSpace=wrap;html=1;sketch=1;fillColor=#fff2cc;strokeColor=#d6b656;fontSize=20;fontStyle=1;direction=east;rotation=0;shadow=0;fontColor=#000000;" parent="1526" vertex="1"><mxGeometry width="49.999999999999986" height="100" as="geometry"/></mxCell><mxCell id="1528" value="2" style="rounded=0;whiteSpace=wrap;html=1;sketch=1;fillColor=#fff2cc;strokeColor=#d6b656;fontSize=20;fontStyle=1;direction=east;rotation=0;shadow=0;fontColor=#000000;" parent="1" vertex="1"><mxGeometry x="180" y="22613" width="49.999999999999986" height="60" as="geometry"/></mxCell><mxCell id="1529" value="5" style="rounded=0;whiteSpace=wrap;html=1;sketch=1;fillColor=#fff2cc;strokeColor=#d6b656;fontSize=20;fontStyle=1;direction=east;rotation=0;shadow=0;fontColor=#000000;" parent="1" vertex="1"><mxGeometry x="390.66" y="22583" width="49.999999999999986" height="90" as="geometry"/></mxCell><mxCell id="1536" value="" style="group;direction=east;rotation=0;fillColor=#f8cecc;strokeColor=#b85450;sketch=1;shadow=0;" parent="1" vertex="1" connectable="0"><mxGeometry x="107" y="22788" width="50" height="40" as="geometry"/></mxCell><mxCell id="1537" value="1" style="rounded=0;whiteSpace=wrap;html=1;sketch=1;fillColor=#f8cecc;strokeColor=#b85450;fontSize=20;fontStyle=1;direction=east;rotation=0;shadow=0;fontColor=#000000;" parent="1536" vertex="1"><mxGeometry width="49.999999999999986" height="40" as="geometry"/></mxCell><mxCell id="1542" value="" style="shape=curlyBracket;whiteSpace=wrap;html=1;rounded=1;rotation=-90;strokeColor=#000000;sketch=1;" parent="1" vertex="1"><mxGeometry x="371.34" y="22646.5" width="20" height="412" as="geometry"/></mxCell><mxCell id="1555" value="" style="shape=curlyBracket;whiteSpace=wrap;html=1;rounded=1;rotation=-90;strokeColor=#000000;sketch=1;" parent="1" vertex="1"><mxGeometry x="408.55" y="22874.5" width="20" height="337" as="geometry"/></mxCell><mxCell id="1559" value="" style="group;direction=east;rotation=0;fillColor=#fff2cc;strokeColor=#d6b656;sketch=1;shadow=0;fontColor=#000000;" parent="1" vertex="1" connectable="0"><mxGeometry x="247.3800000000001" y="22761" width="50" height="70" as="geometry"/></mxCell><mxCell id="1560" value="&lt;font&gt;3&lt;/font&gt;" style="rounded=0;whiteSpace=wrap;html=1;sketch=1;fillColor=#fff2cc;strokeColor=#d6b656;fontSize=20;fontStyle=1;direction=east;rotation=0;shadow=0;fontColor=#000000;" parent="1559" vertex="1"><mxGeometry width="49.999999999999986" height="70" as="geometry"/></mxCell><mxCell id="1561" value="" style="group;direction=east;rotation=0;fillColor=#fff2cc;strokeColor=#d6b656;sketch=1;shadow=0;fontColor=#000000;" parent="1" vertex="1" connectable="0"><mxGeometry x="318.11000000000007" y="22751" width="50" height="80" as="geometry"/></mxCell><mxCell id="1562" value="4" style="rounded=0;whiteSpace=wrap;html=1;sketch=1;fillColor=#fff2cc;strokeColor=#d6b656;fontSize=20;fontStyle=1;direction=east;rotation=0;shadow=0;opacity=30;fontColor=#000000;" parent="1561" vertex="1"><mxGeometry width="49.999999999999986" height="80" as="geometry"/></mxCell><mxCell id="1563" value="" style="group;direction=east;rotation=0;fillColor=#fff2cc;strokeColor=#d6b656;sketch=1;shadow=0;fontColor=#000000;" parent="1" vertex="1" connectable="0"><mxGeometry x="527.84" y="22721" width="50" height="110" as="geometry"/></mxCell><mxCell id="1564" value="7" style="rounded=0;whiteSpace=wrap;html=1;sketch=1;fillColor=#fff2cc;strokeColor=#d6b656;fontSize=20;fontStyle=1;direction=east;rotation=0;shadow=0;fontColor=#000000;" parent="1563" vertex="1"><mxGeometry width="49.999999999999986" height="110.00000000000001" as="geometry"/></mxCell><mxCell id="1565" value="" style="group;direction=east;rotation=0;fillColor=#fff2cc;strokeColor=#d6b656;sketch=1;shadow=0;fontColor=#000000;" parent="1" vertex="1" connectable="0"><mxGeometry x="456.90000000000003" y="22731" width="50" height="100" as="geometry"/></mxCell><mxCell id="1566" value="6" style="rounded=0;whiteSpace=wrap;html=1;sketch=1;fillColor=#fff2cc;strokeColor=#d6b656;fontSize=20;fontStyle=1;direction=east;rotation=0;shadow=0;fontColor=#000000;" parent="1565" vertex="1"><mxGeometry width="49.999999999999986" height="100" as="geometry"/></mxCell><mxCell id="1567" value="2" style="rounded=0;whiteSpace=wrap;html=1;sketch=1;fillColor=#fff2cc;strokeColor=#d6b656;fontSize=20;fontStyle=1;direction=east;rotation=0;shadow=0;fontColor=#000000;" parent="1" vertex="1"><mxGeometry x="177.24" y="22771" width="49.999999999999986" height="60" as="geometry"/></mxCell><mxCell id="1568" value="5" style="rounded=0;whiteSpace=wrap;html=1;sketch=1;fillColor=#fff2cc;strokeColor=#d6b656;fontSize=20;fontStyle=1;direction=east;rotation=0;shadow=0;fontColor=#000000;" parent="1" vertex="1"><mxGeometry x="387.90000000000003" y="22741" width="49.999999999999986" height="90" as="geometry"/></mxCell><mxCell id="1569" value="" style="group;direction=east;rotation=0;fillColor=#dae8fc;strokeColor=#6c8ebf;sketch=1;shadow=0;" parent="1" vertex="1" connectable="0"><mxGeometry x="114.23" y="22976" width="50" height="40" as="geometry"/></mxCell><mxCell id="1570" value="1" style="rounded=0;whiteSpace=wrap;html=1;sketch=1;fillColor=#dae8fc;strokeColor=#6c8ebf;fontSize=20;fontStyle=1;direction=east;rotation=0;shadow=0;fontColor=#000000;" parent="1569" vertex="1"><mxGeometry width="49.999999999999986" height="40" as="geometry"/></mxCell><mxCell id="1571" value="" style="group;direction=east;rotation=0;fillColor=#fff2cc;strokeColor=#d6b656;sketch=1;shadow=0;fontColor=#000000;" parent="1" vertex="1" connectable="0"><mxGeometry x="254.6100000000001" y="22949" width="50" height="70" as="geometry"/></mxCell><mxCell id="1572" value="&lt;font&gt;3&lt;/font&gt;" style="rounded=0;whiteSpace=wrap;html=1;sketch=1;fillColor=#fff2cc;strokeColor=#d6b656;fontSize=20;fontStyle=1;direction=east;rotation=0;shadow=0;fontColor=#000000;" parent="1571" vertex="1"><mxGeometry width="49.999999999999986" height="70" as="geometry"/></mxCell><mxCell id="1573" value="" style="group;direction=east;rotation=0;fillColor=#fff2cc;strokeColor=#d6b656;sketch=1;shadow=0;fontColor=#000000;" parent="1" vertex="1" connectable="0"><mxGeometry x="325.3400000000001" y="22939" width="50" height="80" as="geometry"/></mxCell><mxCell id="1574" value="4" style="rounded=0;whiteSpace=wrap;html=1;sketch=1;fillColor=#fff2cc;strokeColor=#d6b656;fontSize=20;fontStyle=1;direction=east;rotation=0;shadow=0;opacity=30;fontColor=#000000;" parent="1573" vertex="1"><mxGeometry width="49.999999999999986" height="80" as="geometry"/></mxCell><mxCell id="1575" value="" style="group;direction=east;rotation=0;fillColor=#fff2cc;strokeColor=#d6b656;sketch=1;shadow=0;fontColor=#000000;" parent="1" vertex="1" connectable="0"><mxGeometry x="535.07" y="22909" width="50" height="110" as="geometry"/></mxCell><mxCell id="1576" value="7" style="rounded=0;whiteSpace=wrap;html=1;sketch=1;fillColor=#fff2cc;strokeColor=#d6b656;fontSize=20;fontStyle=1;direction=east;rotation=0;shadow=0;fontColor=#000000;" parent="1575" vertex="1"><mxGeometry width="49.999999999999986" height="110.00000000000001" as="geometry"/></mxCell><mxCell id="1577" value="" style="group;direction=east;rotation=0;fillColor=#fff2cc;strokeColor=#d6b656;sketch=1;shadow=0;fontColor=#000000;" parent="1" vertex="1" connectable="0"><mxGeometry x="464.13000000000005" y="22919" width="50" height="100" as="geometry"/></mxCell><mxCell id="1578" value="6" style="rounded=0;whiteSpace=wrap;html=1;sketch=1;fillColor=#fff2cc;strokeColor=#d6b656;fontSize=20;fontStyle=1;direction=east;rotation=0;shadow=0;fontColor=#000000;" parent="1577" vertex="1"><mxGeometry width="49.999999999999986" height="100" as="geometry"/></mxCell><mxCell id="1579" value="2" style="rounded=0;whiteSpace=wrap;html=1;sketch=1;fillColor=#f8cecc;strokeColor=#b85450;fontSize=20;fontStyle=1;direction=east;rotation=0;shadow=0;fontColor=#000000;" parent="1" vertex="1"><mxGeometry x="184.47" y="22959" width="49.999999999999986" height="60" as="geometry"/></mxCell><mxCell id="1580" value="5" style="rounded=0;whiteSpace=wrap;html=1;sketch=1;fillColor=#fff2cc;strokeColor=#d6b656;fontSize=20;fontStyle=1;direction=east;rotation=0;shadow=0;fontColor=#000000;" parent="1" vertex="1"><mxGeometry x="395.13000000000005" y="22929" width="49.999999999999986" height="90" as="geometry"/></mxCell><mxCell id="1581" value="" style="shape=curlyBracket;whiteSpace=wrap;html=1;rounded=1;rotation=-90;strokeColor=#000000;sketch=1;" parent="1" vertex="1"><mxGeometry x="452.2" y="23075" width="20" height="265" as="geometry"/></mxCell><mxCell id="1582" value="" style="group;direction=east;rotation=0;fillColor=#dae8fc;strokeColor=#6c8ebf;sketch=1;shadow=0;" parent="1" vertex="1" connectable="0"><mxGeometry x="121.88000000000001" y="23140.5" width="50" height="40" as="geometry"/></mxCell><mxCell id="1583" value="1" style="rounded=0;whiteSpace=wrap;html=1;sketch=1;fillColor=#dae8fc;strokeColor=#6c8ebf;fontSize=20;fontStyle=1;direction=east;rotation=0;shadow=0;fontColor=#000000;" parent="1582" vertex="1"><mxGeometry width="49.999999999999986" height="40" as="geometry"/></mxCell><mxCell id="1584" value="" style="group;direction=east;rotation=0;fillColor=#f8cecc;strokeColor=#b85450;sketch=1;shadow=0;" parent="1" vertex="1" connectable="0"><mxGeometry x="262.2600000000001" y="23113.5" width="50" height="70" as="geometry"/></mxCell><mxCell id="1585" value="&lt;font&gt;3&lt;/font&gt;" style="rounded=0;whiteSpace=wrap;html=1;sketch=1;fillColor=#f8cecc;strokeColor=#b85450;fontSize=20;fontStyle=1;direction=east;rotation=0;shadow=0;fontColor=#000000;" parent="1584" vertex="1"><mxGeometry width="49.999999999999986" height="70" as="geometry"/></mxCell><mxCell id="1586" value="" style="group;direction=east;rotation=0;fillColor=#fff2cc;strokeColor=#d6b656;sketch=1;shadow=0;fontColor=#000000;" parent="1" vertex="1" connectable="0"><mxGeometry x="332.99000000000007" y="23103.5" width="50" height="80" as="geometry"/></mxCell><mxCell id="1587" value="4" style="rounded=0;whiteSpace=wrap;html=1;sketch=1;fillColor=#fff2cc;strokeColor=#d6b656;fontSize=20;fontStyle=1;direction=east;rotation=0;shadow=0;opacity=30;fontColor=#000000;" parent="1586" vertex="1"><mxGeometry width="49.999999999999986" height="80" as="geometry"/></mxCell><mxCell id="1588" value="" style="group;direction=east;rotation=0;fillColor=#fff2cc;strokeColor=#d6b656;sketch=1;shadow=0;fontColor=#000000;" parent="1" vertex="1" connectable="0"><mxGeometry x="542.72" y="23073.5" width="50" height="110" as="geometry"/></mxCell><mxCell id="1589" value="7" style="rounded=0;whiteSpace=wrap;html=1;sketch=1;fillColor=#fff2cc;strokeColor=#d6b656;fontSize=20;fontStyle=1;direction=east;rotation=0;shadow=0;fontColor=#000000;" parent="1588" vertex="1"><mxGeometry width="49.999999999999986" height="110.00000000000001" as="geometry"/></mxCell><mxCell id="1590" value="" style="group;direction=east;rotation=0;fillColor=#fff2cc;strokeColor=#d6b656;sketch=1;shadow=0;fontColor=#000000;" parent="1" vertex="1" connectable="0"><mxGeometry x="471.78000000000003" y="23083.5" width="50" height="100" as="geometry"/></mxCell><mxCell id="1591" value="6" style="rounded=0;whiteSpace=wrap;html=1;sketch=1;fillColor=#fff2cc;strokeColor=#d6b656;fontSize=20;fontStyle=1;direction=east;rotation=0;shadow=0;fontColor=#000000;" parent="1590" vertex="1"><mxGeometry width="49.999999999999986" height="100" as="geometry"/></mxCell><mxCell id="1592" value="2" style="rounded=0;whiteSpace=wrap;html=1;sketch=1;fillColor=#dae8fc;strokeColor=#6c8ebf;fontSize=20;fontStyle=1;direction=east;rotation=0;shadow=0;fontColor=#000000;" parent="1" vertex="1"><mxGeometry x="192.12" y="23123.5" width="49.999999999999986" height="60" as="geometry"/></mxCell><mxCell id="1593" value="5" style="rounded=0;whiteSpace=wrap;html=1;sketch=1;fillColor=#fff2cc;strokeColor=#d6b656;fontSize=20;fontStyle=1;direction=east;rotation=0;shadow=0;fontColor=#000000;" parent="1" vertex="1"><mxGeometry x="402.78000000000003" y="23093.5" width="49.999999999999986" height="90" as="geometry"/></mxCell><mxCell id="1595" value="" style="shape=curlyBracket;whiteSpace=wrap;html=1;rounded=1;rotation=-90;strokeColor=#000000;sketch=1;" parent="1" vertex="1"><mxGeometry x="481.25" y="23292.25" width="20" height="199.5" as="geometry"/></mxCell><mxCell id="1596" value="" style="group;direction=east;rotation=0;fillColor=#dae8fc;strokeColor=#6c8ebf;sketch=1;shadow=0;" parent="1" vertex="1" connectable="0"><mxGeometry x="118.17999999999999" y="23325" width="50" height="40" as="geometry"/></mxCell><mxCell id="1597" value="1" style="rounded=0;whiteSpace=wrap;html=1;sketch=1;fillColor=#dae8fc;strokeColor=#6c8ebf;fontSize=20;fontStyle=1;direction=east;rotation=0;shadow=0;fontColor=#000000;" parent="1596" vertex="1"><mxGeometry width="49.999999999999986" height="40" as="geometry"/></mxCell><mxCell id="1598" value="" style="group;direction=east;rotation=0;fillColor=#dae8fc;strokeColor=#6c8ebf;sketch=1;shadow=0;" parent="1" vertex="1" connectable="0"><mxGeometry x="258.5600000000001" y="23298" width="50" height="70" as="geometry"/></mxCell><mxCell id="1599" value="&lt;font&gt;3&lt;/font&gt;" style="rounded=0;whiteSpace=wrap;html=1;sketch=1;fillColor=#dae8fc;strokeColor=#6c8ebf;fontSize=20;fontStyle=1;direction=east;rotation=0;shadow=0;fontColor=#000000;" parent="1598" vertex="1"><mxGeometry width="49.999999999999986" height="70" as="geometry"/></mxCell><mxCell id="1600" value="" style="group;direction=east;rotation=0;fillColor=#f8cecc;strokeColor=#b85450;sketch=1;shadow=0;fontColor=#000000;" parent="1" vertex="1" connectable="0"><mxGeometry x="329.2900000000001" y="23288" width="50" height="80" as="geometry"/></mxCell><mxCell id="1601" value="4" style="rounded=0;whiteSpace=wrap;html=1;sketch=1;fillColor=#f8cecc;strokeColor=#b85450;fontSize=20;fontStyle=1;direction=east;rotation=0;shadow=0;opacity=30;fontColor=#000000;" parent="1600" vertex="1"><mxGeometry width="49.999999999999986" height="80" as="geometry"/></mxCell><mxCell id="1602" value="" style="group;direction=east;rotation=0;fillColor=#fff2cc;strokeColor=#d6b656;sketch=1;shadow=0;fontColor=#000000;" parent="1" vertex="1" connectable="0"><mxGeometry x="539.02" y="23258" width="50" height="110" as="geometry"/></mxCell><mxCell id="1603" value="7" style="rounded=0;whiteSpace=wrap;html=1;sketch=1;fillColor=#fff2cc;strokeColor=#d6b656;fontSize=20;fontStyle=1;direction=east;rotation=0;shadow=0;fontColor=#000000;" parent="1602" vertex="1"><mxGeometry width="49.999999999999986" height="110.00000000000001" as="geometry"/></mxCell><mxCell id="1604" value="" style="group;direction=east;rotation=0;fillColor=#fff2cc;strokeColor=#d6b656;sketch=1;shadow=0;fontColor=#000000;" parent="1" vertex="1" connectable="0"><mxGeometry x="468.08000000000004" y="23268" width="50" height="100" as="geometry"/></mxCell><mxCell id="1605" value="6" style="rounded=0;whiteSpace=wrap;html=1;sketch=1;fillColor=#fff2cc;strokeColor=#d6b656;fontSize=20;fontStyle=1;direction=east;rotation=0;shadow=0;fontColor=#000000;" parent="1604" vertex="1"><mxGeometry width="49.999999999999986" height="100" as="geometry"/></mxCell><mxCell id="1606" value="2" style="rounded=0;whiteSpace=wrap;html=1;sketch=1;fillColor=#dae8fc;strokeColor=#6c8ebf;fontSize=20;fontStyle=1;direction=east;rotation=0;shadow=0;fontColor=#000000;" parent="1" vertex="1"><mxGeometry x="188.42000000000002" y="23308" width="49.999999999999986" height="60" as="geometry"/></mxCell><mxCell id="1607" value="5" style="rounded=0;whiteSpace=wrap;html=1;sketch=1;fillColor=#fff2cc;strokeColor=#d6b656;fontSize=20;fontStyle=1;direction=east;rotation=0;shadow=0;fontColor=#000000;" parent="1" vertex="1"><mxGeometry x="399.08000000000004" y="23278" width="49.999999999999986" height="90" as="geometry"/></mxCell><mxCell id="1608" value="" style="shape=curlyBracket;whiteSpace=wrap;html=1;rounded=1;rotation=-90;strokeColor=#000000;sketch=1;" parent="1" vertex="1"><mxGeometry x="517.31" y="23512.63" width="20" height="128.75" as="geometry"/></mxCell><mxCell id="1609" value="" style="group;direction=east;rotation=0;fillColor=#dae8fc;strokeColor=#6c8ebf;sketch=1;shadow=0;" parent="1" vertex="1" connectable="0"><mxGeometry x="118.87" y="23510" width="50" height="40" as="geometry"/></mxCell><mxCell id="1610" value="1" style="rounded=0;whiteSpace=wrap;html=1;sketch=1;fillColor=#dae8fc;strokeColor=#6c8ebf;fontSize=20;fontStyle=1;direction=east;rotation=0;shadow=0;fontColor=#000000;" parent="1609" vertex="1"><mxGeometry width="49.999999999999986" height="40" as="geometry"/></mxCell><mxCell id="1611" value="" style="group;direction=east;rotation=0;fillColor=#dae8fc;strokeColor=#6c8ebf;sketch=1;shadow=0;" parent="1" vertex="1" connectable="0"><mxGeometry x="259.2500000000001" y="23483" width="50" height="70" as="geometry"/></mxCell><mxCell id="1612" value="&lt;font&gt;3&lt;/font&gt;" style="rounded=0;whiteSpace=wrap;html=1;sketch=1;fillColor=#dae8fc;strokeColor=#6c8ebf;fontSize=20;fontStyle=1;direction=east;rotation=0;shadow=0;fontColor=#000000;" parent="1611" vertex="1"><mxGeometry width="49.999999999999986" height="70" as="geometry"/></mxCell><mxCell id="1613" value="" style="group;direction=east;rotation=0;fillColor=#dae8fc;strokeColor=#6c8ebf;sketch=1;shadow=0;" parent="1" vertex="1" connectable="0"><mxGeometry x="329.9800000000001" y="23473" width="50" height="80" as="geometry"/></mxCell><mxCell id="1614" value="4" style="rounded=0;whiteSpace=wrap;html=1;sketch=1;fillColor=#dae8fc;strokeColor=#6c8ebf;fontSize=20;fontStyle=1;direction=east;rotation=0;shadow=0;opacity=30;fontColor=#000000;" parent="1613" vertex="1"><mxGeometry width="49.999999999999986" height="80" as="geometry"/></mxCell><mxCell id="1615" value="" style="group;direction=east;rotation=0;fillColor=#fff2cc;strokeColor=#d6b656;sketch=1;shadow=0;fontColor=#000000;" parent="1" vertex="1" connectable="0"><mxGeometry x="539.71" y="23443" width="50" height="110" as="geometry"/></mxCell><mxCell id="1616" value="7" style="rounded=0;whiteSpace=wrap;html=1;sketch=1;fillColor=#fff2cc;strokeColor=#d6b656;fontSize=20;fontStyle=1;direction=east;rotation=0;shadow=0;fontColor=#000000;" parent="1615" vertex="1"><mxGeometry width="49.999999999999986" height="110.00000000000001" as="geometry"/></mxCell><mxCell id="1617" value="" style="group;direction=east;rotation=0;fillColor=#fff2cc;strokeColor=#d6b656;sketch=1;shadow=0;fontColor=#000000;" parent="1" vertex="1" connectable="0"><mxGeometry x="468.77000000000004" y="23453" width="50" height="100" as="geometry"/></mxCell><mxCell id="1618" value="6" style="rounded=0;whiteSpace=wrap;html=1;sketch=1;fillColor=#fff2cc;strokeColor=#d6b656;fontSize=20;fontStyle=1;direction=east;rotation=0;shadow=0;fontColor=#000000;" parent="1617" vertex="1"><mxGeometry width="49.999999999999986" height="100" as="geometry"/></mxCell><mxCell id="1619" value="2" style="rounded=0;whiteSpace=wrap;html=1;sketch=1;fillColor=#dae8fc;strokeColor=#6c8ebf;fontSize=20;fontStyle=1;direction=east;rotation=0;shadow=0;fontColor=#000000;" parent="1" vertex="1"><mxGeometry x="189.11" y="23493" width="49.999999999999986" height="60" as="geometry"/></mxCell><mxCell id="1620" value="5" style="rounded=0;whiteSpace=wrap;html=1;sketch=1;fillColor=#f8cecc;strokeColor=#b85450;fontSize=20;fontStyle=1;direction=east;rotation=0;shadow=0;fontColor=#000000;" parent="1" vertex="1"><mxGeometry x="399.77000000000004" y="23463" width="49.999999999999986" height="90" as="geometry"/></mxCell><mxCell id="1621" value="" style="shape=curlyBracket;whiteSpace=wrap;html=1;rounded=1;rotation=-90;strokeColor=#000000;sketch=1;" parent="1" vertex="1"><mxGeometry x="550.16" y="23737.32" width="20" height="57.38" as="geometry"/></mxCell><mxCell id="1622" value="" style="group;direction=east;rotation=0;fillColor=#dae8fc;strokeColor=#6c8ebf;sketch=1;shadow=0;" parent="1" vertex="1" connectable="0"><mxGeometry x="116.04" y="23699" width="50" height="40" as="geometry"/></mxCell><mxCell id="1623" value="1" style="rounded=0;whiteSpace=wrap;html=1;sketch=1;fillColor=#dae8fc;strokeColor=#6c8ebf;fontSize=20;fontStyle=1;direction=east;rotation=0;shadow=0;fontColor=#000000;" parent="1622" vertex="1"><mxGeometry width="49.999999999999986" height="40" as="geometry"/></mxCell><mxCell id="1624" value="" style="group;direction=east;rotation=0;fillColor=#dae8fc;strokeColor=#6c8ebf;sketch=1;shadow=0;" parent="1" vertex="1" connectable="0"><mxGeometry x="256.4200000000001" y="23672" width="50" height="70" as="geometry"/></mxCell><mxCell id="1625" value="&lt;font&gt;3&lt;/font&gt;" style="rounded=0;whiteSpace=wrap;html=1;sketch=1;fillColor=#dae8fc;strokeColor=#6c8ebf;fontSize=20;fontStyle=1;direction=east;rotation=0;shadow=0;fontColor=#000000;" parent="1624" vertex="1"><mxGeometry width="49.999999999999986" height="70" as="geometry"/></mxCell><mxCell id="1626" value="" style="group;direction=east;rotation=0;fillColor=#dae8fc;strokeColor=#6c8ebf;sketch=1;shadow=0;" parent="1" vertex="1" connectable="0"><mxGeometry x="327.15000000000003" y="23662" width="50" height="80" as="geometry"/></mxCell><mxCell id="1627" value="4" style="rounded=0;whiteSpace=wrap;html=1;sketch=1;fillColor=#dae8fc;strokeColor=#6c8ebf;fontSize=20;fontStyle=1;direction=east;rotation=0;shadow=0;opacity=30;fontColor=#000000;" parent="1626" vertex="1"><mxGeometry width="49.999999999999986" height="80" as="geometry"/></mxCell><mxCell id="1628" value="" style="group;direction=east;rotation=0;fillColor=#fff2cc;strokeColor=#d6b656;sketch=1;shadow=0;fontColor=#000000;" parent="1" vertex="1" connectable="0"><mxGeometry x="536.88" y="23632" width="50" height="110" as="geometry"/></mxCell><mxCell id="1629" value="7" style="rounded=0;whiteSpace=wrap;html=1;sketch=1;fillColor=#fff2cc;strokeColor=#d6b656;fontSize=20;fontStyle=1;direction=east;rotation=0;shadow=0;fontColor=#000000;" parent="1628" vertex="1"><mxGeometry width="49.999999999999986" height="110.00000000000001" as="geometry"/></mxCell><mxCell id="1630" value="" style="group;direction=east;rotation=0;fillColor=#f8cecc;strokeColor=#b85450;sketch=1;shadow=0;" parent="1" vertex="1" connectable="0"><mxGeometry x="465.94" y="23642" width="50" height="100" as="geometry"/></mxCell><mxCell id="1631" value="6" style="rounded=0;whiteSpace=wrap;html=1;sketch=1;fillColor=#f8cecc;strokeColor=#b85450;fontSize=20;fontStyle=1;direction=east;rotation=0;shadow=0;fontColor=#000000;" parent="1630" vertex="1"><mxGeometry width="49.999999999999986" height="100" as="geometry"/></mxCell><mxCell id="1632" value="2" style="rounded=0;whiteSpace=wrap;html=1;sketch=1;fillColor=#dae8fc;strokeColor=#6c8ebf;fontSize=20;fontStyle=1;direction=east;rotation=0;shadow=0;fontColor=#000000;" parent="1" vertex="1"><mxGeometry x="186.28000000000003" y="23682" width="49.999999999999986" height="60" as="geometry"/></mxCell><mxCell id="1633" value="5" style="rounded=0;whiteSpace=wrap;html=1;sketch=1;fillColor=#dae8fc;strokeColor=#6c8ebf;fontSize=20;fontStyle=1;direction=east;rotation=0;shadow=0;fontColor=#000000;" parent="1" vertex="1"><mxGeometry x="396.94" y="23652" width="49.999999999999986" height="90" as="geometry"/></mxCell><mxCell id="1635" value="" style="group;direction=east;rotation=0;fillColor=#dae8fc;strokeColor=#6c8ebf;sketch=1;shadow=0;" parent="1" vertex="1" connectable="0"><mxGeometry x="112.67" y="23896" width="50" height="40" as="geometry"/></mxCell><mxCell id="1636" value="1" style="rounded=0;whiteSpace=wrap;html=1;sketch=1;fillColor=#dae8fc;strokeColor=#6c8ebf;fontSize=20;fontStyle=1;direction=east;rotation=0;shadow=0;fontColor=#000000;" parent="1635" vertex="1"><mxGeometry width="49.999999999999986" height="40" as="geometry"/></mxCell><mxCell id="1637" value="" style="group;direction=east;rotation=0;fillColor=#dae8fc;strokeColor=#6c8ebf;sketch=1;shadow=0;" parent="1" vertex="1" connectable="0"><mxGeometry x="253.05000000000007" y="23869" width="50" height="70" as="geometry"/></mxCell><mxCell id="1638" value="&lt;font&gt;3&lt;/font&gt;" style="rounded=0;whiteSpace=wrap;html=1;sketch=1;fillColor=#dae8fc;strokeColor=#6c8ebf;fontSize=20;fontStyle=1;direction=east;rotation=0;shadow=0;fontColor=#000000;" parent="1637" vertex="1"><mxGeometry width="49.999999999999986" height="70" as="geometry"/></mxCell><mxCell id="1639" value="" style="group;direction=east;rotation=0;fillColor=#dae8fc;strokeColor=#6c8ebf;sketch=1;shadow=0;" parent="1" vertex="1" connectable="0"><mxGeometry x="323.78000000000003" y="23859" width="50" height="80" as="geometry"/></mxCell><mxCell id="1640" value="4" style="rounded=0;whiteSpace=wrap;html=1;sketch=1;fillColor=#dae8fc;strokeColor=#6c8ebf;fontSize=20;fontStyle=1;direction=east;rotation=0;shadow=0;opacity=30;fontColor=#000000;" parent="1639" vertex="1"><mxGeometry width="49.999999999999986" height="80" as="geometry"/></mxCell><mxCell id="1641" value="" style="group;direction=east;rotation=0;fillColor=#f8cecc;strokeColor=#b85450;sketch=1;shadow=0;" parent="1" vertex="1" connectable="0"><mxGeometry x="533.51" y="23829" width="50" height="110" as="geometry"/></mxCell><mxCell id="1642" value="7" style="rounded=0;whiteSpace=wrap;html=1;sketch=1;fillColor=#f8cecc;strokeColor=#b85450;fontSize=20;fontStyle=1;direction=east;rotation=0;shadow=0;fontColor=#000000;" parent="1641" vertex="1"><mxGeometry width="49.999999999999986" height="110.00000000000001" as="geometry"/></mxCell><mxCell id="1643" value="" style="group;direction=east;rotation=0;fillColor=#dae8fc;strokeColor=#6c8ebf;sketch=1;shadow=0;" parent="1" vertex="1" connectable="0"><mxGeometry x="462.57" y="23839" width="50" height="100" as="geometry"/></mxCell><mxCell id="1644" value="6" style="rounded=0;whiteSpace=wrap;html=1;sketch=1;fillColor=#dae8fc;strokeColor=#6c8ebf;fontSize=20;fontStyle=1;direction=east;rotation=0;shadow=0;fontColor=#000000;" parent="1643" vertex="1"><mxGeometry width="49.999999999999986" height="100" as="geometry"/></mxCell><mxCell id="1645" value="2" style="rounded=0;whiteSpace=wrap;html=1;sketch=1;fillColor=#dae8fc;strokeColor=#6c8ebf;fontSize=20;fontStyle=1;direction=east;rotation=0;shadow=0;fontColor=#000000;" parent="1" vertex="1"><mxGeometry x="182.91000000000003" y="23879" width="49.999999999999986" height="60" as="geometry"/></mxCell><mxCell id="1646" value="5" style="rounded=0;whiteSpace=wrap;html=1;sketch=1;fillColor=#dae8fc;strokeColor=#6c8ebf;fontSize=20;fontStyle=1;direction=east;rotation=0;shadow=0;fontColor=#000000;" parent="1" vertex="1"><mxGeometry x="393.57" y="23849" width="49.999999999999986" height="90" as="geometry"/></mxCell><mxCell id="1647" value="" style="group;direction=east;rotation=0;fillColor=#dae8fc;strokeColor=#6c8ebf;sketch=1;shadow=0;" parent="1" vertex="1" connectable="0"><mxGeometry x="114.23" y="24058" width="50" height="40" as="geometry"/></mxCell><mxCell id="1648" value="1" style="rounded=0;whiteSpace=wrap;html=1;sketch=1;fillColor=#dae8fc;strokeColor=#6c8ebf;fontSize=20;fontStyle=1;direction=east;rotation=0;shadow=0;fontColor=#000000;" parent="1647" vertex="1"><mxGeometry width="49.999999999999986" height="40" as="geometry"/></mxCell><mxCell id="1649" value="" style="group;direction=east;rotation=0;fillColor=#dae8fc;strokeColor=#6c8ebf;sketch=1;shadow=0;" parent="1" vertex="1" connectable="0"><mxGeometry x="254.61000000000007" y="24031" width="50" height="70" as="geometry"/></mxCell><mxCell id="1650" value="&lt;font&gt;3&lt;/font&gt;" style="rounded=0;whiteSpace=wrap;html=1;sketch=1;fillColor=#dae8fc;strokeColor=#6c8ebf;fontSize=20;fontStyle=1;direction=east;rotation=0;shadow=0;fontColor=#000000;" parent="1649" vertex="1"><mxGeometry width="49.999999999999986" height="70" as="geometry"/></mxCell><mxCell id="1651" value="" style="group;direction=east;rotation=0;fillColor=#dae8fc;strokeColor=#6c8ebf;sketch=1;shadow=0;" parent="1" vertex="1" connectable="0"><mxGeometry x="325.34000000000003" y="24021" width="50" height="80" as="geometry"/></mxCell><mxCell id="1652" value="4" style="rounded=0;whiteSpace=wrap;html=1;sketch=1;fillColor=#dae8fc;strokeColor=#6c8ebf;fontSize=20;fontStyle=1;direction=east;rotation=0;shadow=0;opacity=30;fontColor=#000000;" parent="1651" vertex="1"><mxGeometry width="49.999999999999986" height="80" as="geometry"/></mxCell><mxCell id="1653" value="" style="group;direction=east;rotation=0;fillColor=#dae8fc;strokeColor=#6c8ebf;sketch=1;shadow=0;" parent="1" vertex="1" connectable="0"><mxGeometry x="535.0699999999999" y="23991" width="50" height="110" as="geometry"/></mxCell><mxCell id="1654" value="7" style="rounded=0;whiteSpace=wrap;html=1;sketch=1;fillColor=#dae8fc;strokeColor=#6c8ebf;fontSize=20;fontStyle=1;direction=east;rotation=0;shadow=0;fontColor=#000000;" parent="1653" vertex="1"><mxGeometry width="49.999999999999986" height="110.00000000000001" as="geometry"/></mxCell><mxCell id="1655" value="" style="group;direction=east;rotation=0;fillColor=#dae8fc;strokeColor=#6c8ebf;sketch=1;shadow=0;" parent="1" vertex="1" connectable="0"><mxGeometry x="464.13" y="24001" width="50" height="100" as="geometry"/></mxCell><mxCell id="1656" value="6" style="rounded=0;whiteSpace=wrap;html=1;sketch=1;fillColor=#dae8fc;strokeColor=#6c8ebf;fontSize=20;fontStyle=1;direction=east;rotation=0;shadow=0;fontColor=#000000;" parent="1655" vertex="1"><mxGeometry width="49.999999999999986" height="100" as="geometry"/></mxCell><mxCell id="1657" value="2" style="rounded=0;whiteSpace=wrap;html=1;sketch=1;fillColor=#dae8fc;strokeColor=#6c8ebf;fontSize=20;fontStyle=1;direction=east;rotation=0;shadow=0;fontColor=#000000;" parent="1" vertex="1"><mxGeometry x="184.47000000000003" y="24041" width="49.999999999999986" height="60" as="geometry"/></mxCell><mxCell id="1658" value="5" style="rounded=0;whiteSpace=wrap;html=1;sketch=1;fillColor=#dae8fc;strokeColor=#6c8ebf;fontSize=20;fontStyle=1;direction=east;rotation=0;shadow=0;fontColor=#000000;" parent="1" vertex="1"><mxGeometry x="395.13" y="24011" width="49.999999999999986" height="90" as="geometry"/></mxCell></root></mxGraphModel></diagram></mxfile>